<svg xmlns="http://www.w3.org/2000/svg" viewBox="0 0 500 500"><g id="freepik--Chicken--inject-358"><g><g><path d="M288.95669,124.6525c-4.3118-.5172-8.51869,1.5587-12.52169,3.5945,2.36739-4.9201,4.77409-9.9646,5.66109-15.5753,.88691-5.6107-.0264-11.9953-3.4729-15.8343-3.9277-4.375-9.89819-4.3456-15.1179-3.2047-24.24129,5.2989-44.6614,30.779-48.5987,60.6413l52.6592,3.24c9.1713-.8846,18.0869-5.4065,25.0957-12.7279,2.5487-2.6625,5.0027-6.127,4.9889-10.2373-.0179-5.3228-4.3819-9.379-8.6937-9.8963Z" style="fill:#FF4840;"></path><path d="M210.978,148.0775c-3.90737-7.95828-7.03822-16.52179-7.21639-25.5204-.12676-8.83592,3.2732-18.61605,11.0052-23.46372-6.4757,5.99269-9.12046,14.85453-9.00662,23.4343,.09352,8.73903,2.85929,17.15829,5.21782,25.54982h0Z" style="fill:#FF4840;"></path></g><path d="M202.62119,422.5162c-7.4293,1.3029-14.5244,4.4694-20.4553,9.1293-.9663,.7593-1.9338,1.5985-2.4247,2.7251-.491,1.1267-.3624,2.6144,.608,3.3684,.8757,.6804,2.1091,.5783,3.2047,.4062,4.0329-.6338,7.9866-1.7701,11.7405-3.3744-3.3974,2.6387-6.2289,5.9975-8.278,9.7791-.922,1.7017,.7129,3.63,2.5688,3.0809,4.897-1.4488,9.5599-3.6896,13.7436-6.6186-1.3767,2.0963-2.7927,4.29-2.7007,6.9115,.0546,1.5551,.8215,3.093,2.1775,3.8563,2.982,1.6791,6.3665-1.1935,8.5537-3.7989,5.8563-6.9762,11.7126-13.9523,17.569-20.9284l-26.3071-4.5365Z" style="fill:#FF4840;"></path><path d="M285.85839,425.6789c7.4293,1.3028,14.5243,4.4694,20.4553,9.1293,.96631,.7593,1.9338,1.5985,2.4247,2.7251s.3624,2.6143-.608,3.3684c-.8757,.6804-2.1091,.5783-3.2047,.4061-4.0329-.6337-7.9866-1.77-11.7406-3.3744,3.3974,2.6388,6.22891,5.9976,8.2781,9.7792,.922,1.7017-.7129,3.63-2.5688,3.0809-4.897-1.4488-9.56-3.6897-13.7436-6.6187,1.3766,2.0963,2.7927,4.29,2.7006,6.9116-.0546,1.5551-.8215,3.0929-2.17739,3.8563-2.982,1.6791-6.36651-1.1935-8.55371-3.7989-5.85629-6.9762-11.7127-13.9523-17.569-20.9285l26.3071-4.5364Z" style="fill:#FF4840;"></path><path d="M175.1132,349.215c-14.2847,4.722-29.5737,10.1662-38.0785,22.3696-1.7296,2.4818-3.1674,5.5177-2.3606,8.4176,.7276,2.6153,3.1794,4.4965,5.8114,5.3265,2.632,.8299,5.4561,.7841,8.2203,.73-6.3047,.8871-10.3153,8.8324-7.2109,14.2853,3.1045,5.4528,12.1072,6.276,16.1865,1.4799-1.2918,2.821,.3553,6.3106,3.0045,7.9883,2.6493,1.6777,5.9946,1.8962,9.1372,1.6342,8.4759-.7068,16.6264-4.6614,22.3407-10.8396l-17.0506-51.3918Z" style="fill:#FF4840;"></path><g style="opacity:.6;"><path d="M175.1132,349.215c-14.2847,4.722-29.5737,10.1662-38.0785,22.3696-1.7296,2.4818-3.1674,5.5177-2.3606,8.4176,.7276,2.6153,3.1794,4.4965,5.8114,5.3265,2.632,.8299,5.4561,.7841,8.2203,.73-6.3047,.8871-10.3153,8.8324-7.2109,14.2853,3.1045,5.4528,12.1072,6.276,16.1865,1.4799-1.2918,2.821,.3553,6.3106,3.0045,7.9883,2.6493,1.6777,5.9946,1.8962,9.1372,1.6342,8.4759-.7068,16.6264-4.6614,22.3407-10.8396l-17.0506-51.3918Z" style="fill:#fff;"></path></g><path d="M173.3668,411.1717s-20.842-12.086-21.4346-31.5053c-.5926-19.4194,10.8816-26.6917,10.8816-26.6917l11.8837,57.2354-2.1563,1.3291" style="opacity:.3;"></path><g><path d="M232.30579,150.5313c42.3633-2.9208,84.2927,12.0051,114.2596,42.091,28.4889,28.6021,35.603,59.615,34.17661,82.408-2.15881,34.4974-26.449,66.7141-59.45361,78.8548,4.4777-2.0112,9.1048-4.0584,14.0273-4.2203,4.9224-.1619,10.2681,2.0396,12.2592,6.4564,1.99111,4.4168-1.0891,10.6805-6.0142,10.713,4.2541-3.1925,10.36731-3.8016,15.1895-1.5135,4.8221,2.2882,8.1279,7.3667,8.21381,12.6185,.10039,6.1419-3.77921,11.6285-7.93541,16.2248-14.3111,15.8268-33.7901,26.707-54.4734,32.7177-20.68319,6.0108-42.5638,7.3367-64.09219,5.9824-15.10451-.9502-30.327-3.2575-44.1716-9.2544-13.8447-5.997-26.2925-15.9998-32.867-29.3666-6.5745-13.3667-6.4965-30.2448,2.1693-42.4116,0,0-59.9035-24.6746-54.3332-85.4339,5.5704-60.7592,62.6663-108.5474,104.4438-114.0089,6.5448-.8556,12.765-1.455,18.6015-1.8574Z" style="fill:#FF4840;"></path><g style="opacity:.6;"><path d="M232.30579,150.5313c42.3633-2.9208,84.2927,12.0051,114.2596,42.091,28.4889,28.6021,35.603,59.615,34.17661,82.408-2.15881,34.4974-26.449,66.7141-59.45361,78.8548,4.4777-2.0112,9.1048-4.0584,14.0273-4.2203,4.9224-.1619,10.2681,2.0396,12.2592,6.4564,1.99111,4.4168-1.0891,10.6805-6.0142,10.713,4.2541-3.1925,10.36731-3.8016,15.1895-1.5135,4.8221,2.2882,8.1279,7.3667,8.21381,12.6185,.10039,6.1419-3.77921,11.6285-7.93541,16.2248-14.3111,15.8268-33.7901,26.707-54.4734,32.7177-20.68319,6.0108-42.5638,7.3367-64.09219,5.9824-15.10451-.9502-30.327-3.2575-44.1716-9.2544-13.8447-5.997-26.2925-15.9998-32.867-29.3666-6.5745-13.3667-6.4965-30.2448,2.1693-42.4116,0,0-59.9035-24.6746-54.3332-85.4339,5.5704-60.7592,62.6663-108.5474,104.4438-114.0089,6.5448-.8556,12.765-1.455,18.6015-1.8574Z" style="fill:#fff;"></path></g></g><g><path d="M232.80269,265.5951c-5.8396,3.5575-13.3006,6.1768-29.753,3.7614-16.4524-2.4153-20.3898-7.9099-10.7119-18.2958,5.4023-5.7976,11.3325-9.6151,15.4196-10.6557,3.6049-.9178,7.4081-.2318,10.5138,1.8157,6.3339,4.1755,23.74681,17.7602,14.5315,23.3744Z" style="fill:#FF4840;"></path><ellipse cx="279.80337" cy="261.7097" rx="13.72577" ry="4.4839" style="fill:#FF4840;"></ellipse><ellipse cx="161.87512" cy="261.8551" rx="13.72572" ry="4.4839" style="fill:#FF4840;"></ellipse><g><path d="M289.015,222.9347c1.10669,13.5739-4.98451,25.6363-13.60681,26.9458-8.61919,1.3105-16.5043-8.6285-17.6107-22.2006-1.1093-13.5697,4.9814-25.6358,13.6021-26.9465,8.6192-1.3108,16.5043,8.6285,17.61541,22.2013Z" style="fill:#263238;"></path><path d="M271.42139,215.4554c.012,4.6039-1.4326,8.3397-3.2259,8.3443-1.7936,.0047-3.2571-3.7238-3.269-8.3277-.0117-4.6036,1.4326-8.3396,3.2262-8.3443,1.79331-.0044,3.2568,3.7238,3.2687,8.3277Z" style="fill:#fff;"></path></g><g><path d="M185.1497,225.4128c1.1067,13.5739-4.9845,25.6363-13.6068,26.9458-8.6192,1.3105-16.5042-8.6285-17.6107-22.2006-1.1093-13.5698,4.9815-25.6358,13.6022-26.9466,8.6191-1.3107,16.5042,8.6285,17.6153,22.2014Z" style="fill:#263238;"></path><path d="M167.5562,217.9335c.0119,4.6039-1.4327,8.3396-3.226,8.3443-1.7936,.0047-3.2571-3.7238-3.269-8.3277-.0117-4.6036,1.4326-8.3396,3.2262-8.3443,1.7933-.0044,3.2568,3.7238,3.2688,8.3277Z" style="fill:#fff;"></path></g><path d="M198.44039,267.1654s4.38361,8.5019,15.8474,8.5019,20.4346-11.5446,20.4346-11.5446l-36.282,3.0427Z" style="fill:#FF4840;"></path><path d="M189.34009,264.82541c9.95774,5.87362,27.01705,5.31223,38.04253,2.72624,1.57138-.39088,3.82525-1.09345,5.34037-1.6359-11.30959,5.69593-32.89718,6.66851-43.3829-1.09034h0Z" style="fill:#263238;"></path><path d="M213.84599,245.5625c1.39237-.0145,2.58042,1.027,2.73545,2.41344-1.29051-.55864-2.01679-1.2064-2.73545-2.41344h0Z" style="fill:#263238;"></path></g><g><path d="M285.24479,387.3276c1.0256,6.1798,4.8227,11.6868,9.7428,15.6377s10.9041,6.4571,17.03541,8.1442c2.86149,.7874,5.82729,1.4112,8.79679,1.1586s5.97321-1.4873,7.7855-3.8253c1.8124-2.3379,2.1348-5.8654,.2966-8.152,3.4312,1.3702,7.0152,2.7657,10.7227,2.4974,3.7075-.2682,7.553-2.7464,8.03841-6.3695,.39509-2.9495-1.54711-5.8085-4.09681-7.3848,3.1331,1.0311,6.4717,1.8778,9.7307,1.2637s6.387-3.0774,6.7219-6.3187c.4117-3.9847-3.2449-7.1279-6.7291-9.1703-8.9742-5.2606-19.32269-8.2591-29.803-8.6353" style="opacity:.3;"></path><g><path d="M347.84839,373.4419c-8.9743-5.2607-19.3228-8.2592-29.8031-8.6354l-38.2419,21.1543c1.02561,6.1798,4.8227,11.6868,9.7428,15.6377s10.9041,6.4571,17.0354,8.1442c2.86141,.7874,5.8273,1.4112,8.7968,1.1586,2.9695-.2527,5.9732-1.4873,7.7855-3.8252,1.8123-2.338,2.1348-5.8655,.2966-8.152,3.4312,1.3702,7.0152,2.7656,10.7226,2.4974,3.7076-.2683,7.5531-2.7465,8.0384-6.3696,.3952-2.9495-1.547-5.8085-4.0968-7.3847,3.1332,1.031,6.4718,1.8777,9.7307,1.2636,3.2591-.6141,6.3871-3.0774,6.722-6.3186,.4118-3.9848-3.245-7.128-6.729-9.1703Z" style="fill:#FF4840;"></path><path d="M347.84839,373.4419c-8.9743-5.2607-19.3228-8.2592-29.8031-8.6354l-38.2419,21.1543c1.02561,6.1798,4.8227,11.6868,9.7428,15.6377s10.9041,6.4571,17.0354,8.1442c2.86141,.7874,5.8273,1.4112,8.7968,1.1586,2.9695-.2527,5.9732-1.4873,7.7855-3.8252,1.8123-2.338,2.1348-5.8655,.2966-8.152,3.4312,1.3702,7.0152,2.7656,10.7226,2.4974,3.7076-.2683,7.5531-2.7465,8.0384-6.3696,.3952-2.9495-1.547-5.8085-4.0968-7.3847,3.1332,1.031,6.4718,1.8777,9.7307,1.2636,3.2591-.6141,6.3871-3.0774,6.722-6.3186,.4118-3.9848-3.245-7.128-6.729-9.1703Z" style="fill:#fff; opacity:.6;"></path></g><path d="M279.80341,385.96078c1.99899,10.85956,11.63111,18.26383,21.54451,21.75081,4.92574,1.65452,10.28206,3.51473,15.49878,2.54456,5.12501-.79376,9.6222-6.26372,6.25103-11.04056-.30413-.35832,.1129-.90754,.53555-.72385,3.54105,1.39363,7.20052,2.84097,11.02328,2.38312,3.48363-.43216,7.35047-3.08762,7.12234-6.93571-.16055-2.40674-1.82919-4.58213-3.8977-5.87784-.21786-.13425-.28568-.41968-.15143-.63754,.11426-.18539,.34155-.26083,.53998-.19681,2.4707,.81723,5.00562,1.5029,7.55954,1.46039,4.9705,.21878,10.48415-4.59453,7.58555-9.64117-1.21854-2.21716-3.35673-3.85974-5.54856-5.20966-8.99709-5.37651-19.33574-8.52181-29.82098-9.03004,10.5408,.24798,21.03483,3.13529,30.15767,8.46607,2.29182,1.37221,4.53003,3.02507,5.88409,5.40554,3.29558,5.63364-2.66062,11.09-8.23931,10.89954-2.72919,.05583-5.35889-.65535-7.86774-1.47032l.38855-.83432c2.27075,1.41888,4.15128,3.77017,4.37088,6.60571,.29167,4.37592-3.96985,7.51742-7.95732,7.97221-3.99913,.47942-7.90267-1.05321-11.49419-2.49455l.53543-.72394c.91928,1.14948,1.33981,2.62463,1.31821,4.04965,.04157,4.45726-4.06948,7.72254-8.1237,8.41414-5.47648,.99263-10.82404-.99648-15.90171-2.76297-5.03013-1.92085-9.88682-4.5764-13.74698-8.38979-3.84833-3.76883-6.73676-8.64764-7.56577-13.98267h0Z" style="fill:#263238;"></path></g><g style="opacity:.3;"><path d="M293.47229,361.719c10.0639-.2424,18.4583-.2472,27.0889-4.9085,2.7927-1.5084,7.3595-4.7187,9.2285-6.5371-10.8452,4.963-24.5996,9.223-36.3174,11.4456Z"></path></g><path d="M391.10547,265.85938c-.27051,0-.49316-.21582-.5-.48828-.52441-21.8418-8.6416-43.00781-22.85742-59.59814-.17969-.20947-.15527-.52539,.05469-.70508,.20898-.17822,.52539-.15527,.70508,.05469,14.36523,16.76465,22.56738,38.15283,23.09766,60.2251,.00684,.27539-.21191,.50488-.48828,.51172h-.01172Z" style="fill:#FF4840;"></path><path d="M389.99414,280.55664c-.02246,0-.0459-.00098-.06836-.00488-.27441-.03711-.46582-.28906-.42773-.5625l.69043-5.05762c.03711-.27344,.2959-.47461,.5625-.42773,.27344,.03711,.46582,.28906,.42773,.5625l-.69043,5.05762c-.03418,.25098-.24805,.43262-.49414,.43262Z" style="fill:#FF4840;"></path><g style="opacity:.3;"><path d="M226.49509,398.5948c-3.9864,3.3843-10.2555,3.7261-14.5862,.7954s-6.3441-8.8775-4.6845-13.8363c-1.42,2.9573-5.8266,5.3097-9.0661,4.7922s-6.3438-2.8024-7.5797-5.8413c-1.236-3.0388,.145-7.4431,1.3751-10.4843,0,0-9.7893,10.2062,1.0221,17.0211,5.7098,3.5992,11.2323,1.0429,11.2323,1.0429,0,0,1.8451,12.0997,11.8911,12.0997,6.5366,0,10.3959-5.5894,10.3959-5.5894Z"></path></g></g></g></svg>
