<svg xmlns="http://www.w3.org/2000/svg" viewBox="0 0 500 500"><g id="freepik--background-complete--inject-1"><rect y="382.4" width="500" height="0.25" style="fill:#ebebeb"></rect><rect x="416.78" y="398.49" width="33.12" height="0.25" style="fill:#ebebeb"></rect><rect x="322.53" y="401.21" width="8.69" height="0.25" style="fill:#ebebeb"></rect><rect x="396.59" y="389.21" width="19.19" height="0.25" style="fill:#ebebeb"></rect><rect x="52.46" y="390.89" width="43.19" height="0.25" style="fill:#ebebeb"></rect><rect x="104.56" y="390.89" width="6.33" height="0.25" style="fill:#ebebeb"></rect><rect x="131.47" y="395.11" width="93.68" height="0.25" style="fill:#ebebeb"></rect><path d="M237,337.8H43.91a5.71,5.71,0,0,1-5.7-5.71V60.66A5.71,5.71,0,0,1,43.91,55H237a5.71,5.71,0,0,1,5.71,5.71V332.09A5.71,5.71,0,0,1,237,337.8ZM43.91,55.2a5.46,5.46,0,0,0-5.45,5.46V332.09a5.46,5.46,0,0,0,5.45,5.46H237a5.47,5.47,0,0,0,5.46-5.46V60.66A5.47,5.47,0,0,0,237,55.2Z" style="fill:#ebebeb"></path><path d="M453.31,337.8H260.21a5.72,5.72,0,0,1-5.71-5.71V60.66A5.72,5.72,0,0,1,260.21,55h193.1A5.71,5.71,0,0,1,459,60.66V332.09A5.71,5.71,0,0,1,453.31,337.8ZM260.21,55.2a5.47,5.47,0,0,0-5.46,5.46V332.09a5.47,5.47,0,0,0,5.46,5.46h193.1a5.47,5.47,0,0,0,5.46-5.46V60.66a5.47,5.47,0,0,0-5.46-5.46Z" style="fill:#ebebeb"></path><rect x="72.49" y="106.05" width="215.16" height="171.29" style="fill:#e0e0e0"></rect><path d="M284.47,109V274.12H75.08v-49.7a1.93,1.93,0,0,0,0-.34s0,0,0,0V109Z" style="fill:#f5f5f5"></path><path d="M142.94,230.59a3.39,3.39,0,0,1-.11-.77c-.1-1.61-1.64-1.35-2.94-1.57-1-.17,1.68-2.75-.38-3.58a1.83,1.83,0,0,1-1-.69,1.16,1.16,0,0,1,.45-1.43,2.69,2.69,0,0,1,1.56-.39c.34-.41.06-1-.26-1.44s-.73-.89-.6-1.41c.18-.77,1.27-.8,2.05-.65a5.58,5.58,0,0,0,.43-1.59c.14-.53.56-1.09,1.11-1s.83.64,1.33.76,1.1-.38,1.56-.77,1.26-.63,1.58-.12c.19.31.07.74.27,1,.34.52,1.15.2,1.66-.17s1.3-.71,1.66-.2a2,2,0,0,1,.19.54c.24.69,1,1,1.56,1.47s1,1.32.55,1.86c-.24.26-.67.37-.79.71s.28.8.63,1.09c.56.48.67,1.93-.08,2.33-.32.16-.78.21-.86.56s.25.55.46.79a1.5,1.5,0,0,1-.46,2.23c-.18.08-.4.16-.47.34a.67.67,0,0,0,0,.42,2.24,2.24,0,0,1,.08.81.37.37,0,0,1-.1.25.36.36,0,0,1-.24.07c-1.09.05-1.61-.34-2.27.61a.88.88,0,0,1-.23.24.73.73,0,0,1-.3.07c-.74.06-1.23-.4-1.91-.49-1-.12-1.15.37-2,.76C143.82,231.87,143.19,231.49,142.94,230.59Z" style="fill:#f0f0f0"></path><path d="M155.44,229.24a3.39,3.39,0,0,1-.11-.77c-.1-1.61-1.63-1.36-2.94-1.57-1-.17,1.68-2.75-.38-3.58a1.83,1.83,0,0,1-1-.7,1.15,1.15,0,0,1,.45-1.42,2.71,2.71,0,0,1,1.56-.39c.34-.41.06-1-.26-1.44s-.72-.89-.6-1.41c.19-.77,1.27-.8,2.05-.65a5.67,5.67,0,0,0,.43-1.59c.14-.53.56-1.09,1.11-1s.83.64,1.33.76,1.1-.38,1.56-.77,1.26-.63,1.58-.12c.19.31.08.74.27,1,.35.52,1.16.2,1.66-.17s1.3-.71,1.66-.2a2,2,0,0,1,.19.54c.24.69,1,1,1.56,1.47s1,1.32.55,1.86c-.24.26-.67.37-.79.71s.29.8.63,1.09c.57.48.67,1.93-.08,2.32-.32.17-.78.22-.86.57s.25.55.46.79a1.5,1.5,0,0,1-.46,2.23c-.18.08-.4.15-.47.34a.75.75,0,0,0,0,.42,2.22,2.22,0,0,1,.08.81.37.37,0,0,1-.1.25.42.42,0,0,1-.24.07c-1.09,0-1.61-.34-2.27.61a.88.88,0,0,1-.23.24.73.73,0,0,1-.3.07c-.74.06-1.23-.4-1.91-.49-1-.12-1.15.37-2,.76C156.33,230.52,155.69,230.14,155.44,229.24Z" style="fill:#f0f0f0"></path><path d="M156.65,221.28a4.29,4.29,0,0,1-.12-.77c-.09-1.61-1.63-1.36-2.94-1.57-1-.18,1.69-2.75-.37-3.59a1.73,1.73,0,0,1-1-.69,1.16,1.16,0,0,1,.44-1.42,2.75,2.75,0,0,1,1.57-.4c.33-.4.06-1-.27-1.43s-.72-.9-.6-1.41c.19-.77,1.27-.8,2.06-.65a5.65,5.65,0,0,0,.42-1.59c.14-.53.57-1.09,1.11-1s.83.64,1.34.76,1.09-.38,1.55-.77,1.27-.63,1.58-.12c.19.31.08.73.28,1,.34.52,1.15.2,1.65-.18s1.31-.7,1.66-.19a2.06,2.06,0,0,1,.2.54c.24.69,1,1,1.56,1.47s1,1.32.54,1.85c-.24.27-.66.38-.78.72s.28.8.62,1.09c.57.48.67,1.93-.08,2.32-.31.17-.78.22-.85.57s.24.55.45.79a1.5,1.5,0,0,1-.45,2.23c-.19.08-.41.15-.47.34a.68.68,0,0,0,0,.42,2.21,2.21,0,0,1,.07.81.37.37,0,0,1-.1.25.45.45,0,0,1-.23.07c-1.09.05-1.61-.34-2.28.61a.84.84,0,0,1-.22.24.78.78,0,0,1-.3.07c-.75.06-1.24-.4-1.92-.49-.94-.12-1.14.37-2,.76C157.53,222.56,156.9,222.18,156.65,221.28Z" style="fill:#f0f0f0"></path><path d="M164.88,225.25a3.57,3.57,0,0,1-.11-.78c-.1-1.61-1.63-1.35-2.94-1.57-1-.17,1.68-2.75-.38-3.58a1.81,1.81,0,0,1-1-.69,1.17,1.17,0,0,1,.45-1.43,2.79,2.79,0,0,1,1.56-.39c.34-.41.06-1-.26-1.44s-.72-.89-.6-1.4c.19-.78,1.27-.81,2-.66a5.51,5.51,0,0,0,.43-1.58c.14-.54.56-1.1,1.11-1s.83.65,1.33.76,1.1-.38,1.56-.77,1.26-.63,1.58-.11c.19.3.08.73.27,1,.35.53,1.16.2,1.66-.17s1.3-.71,1.66-.19a1.92,1.92,0,0,1,.19.54c.24.68,1,1,1.56,1.47s1,1.31.55,1.85c-.24.27-.67.37-.79.71s.29.8.63,1.09c.57.49.67,1.93-.08,2.33-.32.16-.78.22-.86.56s.25.56.46.8a1.49,1.49,0,0,1-.46,2.22c-.18.09-.4.16-.47.35a.77.77,0,0,0,0,.42,2.16,2.16,0,0,1,.08.8.38.38,0,0,1-.1.26.41.41,0,0,1-.24.06c-1.09,0-1.61-.33-2.27.61a.76.76,0,0,1-.23.24.74.74,0,0,1-.3.08c-.74.06-1.23-.41-1.91-.49-.95-.13-1.15.36-2,.75C165.77,226.52,165.13,226.14,164.88,225.25Z" style="fill:#f0f0f0"></path><path d="M173.21,223.42a3.55,3.55,0,0,1-.12-.78c-.1-1.61-1.63-1.35-2.94-1.57-1-.17,1.68-2.75-.37-3.58a1.86,1.86,0,0,1-1-.69,1.19,1.19,0,0,1,.45-1.43,2.81,2.81,0,0,1,1.56-.39c.34-.41.07-1-.26-1.44s-.72-.89-.6-1.4c.19-.78,1.27-.81,2.06-.66a5.56,5.56,0,0,0,.42-1.59c.14-.53.56-1.09,1.11-1s.83.64,1.34.76,1.09-.38,1.55-.77,1.27-.63,1.58-.12c.19.31.08.74.28,1,.34.52,1.15.2,1.65-.17s1.31-.71,1.66-.19a2.24,2.24,0,0,1,.2.53c.23.69,1,1,1.56,1.47s1,1.32.54,1.86c-.24.26-.66.37-.78.71s.28.8.62,1.09c.57.48.67,1.93-.08,2.33-.32.16-.78.21-.86.56s.25.56.46.8a1.49,1.49,0,0,1-.46,2.22c-.18.09-.4.16-.47.35a.78.78,0,0,0,.05.42,2.16,2.16,0,0,1,.07.8.37.37,0,0,1-.1.25.33.33,0,0,1-.24.07c-1.08.05-1.61-.33-2.27.61a.84.84,0,0,1-.22.24.63.63,0,0,1-.3.07c-.75.07-1.24-.4-1.92-.49-.95-.12-1.15.37-2,.76C174.09,224.69,173.45,224.31,173.21,223.42Z" style="fill:#f0f0f0"></path><path d="M173.32,232.32a3.53,3.53,0,0,1-.1-.61c-.07-1.27-1.28-1.07-2.31-1.24-.8-.13,1.32-2.16-.3-2.82a1.46,1.46,0,0,1-.78-.54.94.94,0,0,1,.36-1.13,2.17,2.17,0,0,1,1.23-.3c.26-.33,0-.81-.21-1.14s-.57-.7-.47-1.1c.14-.61,1-.64,1.61-.52a4.36,4.36,0,0,0,.34-1.25c.11-.42.44-.86.87-.81s.66.51,1.05.61.87-.3,1.23-.61,1-.5,1.24-.09c.15.24.06.57.22.81.27.41.91.16,1.3-.13s1-.56,1.31-.15a1.9,1.9,0,0,1,.15.42c.19.54.78.81,1.23,1.16s.82,1,.43,1.46c-.19.21-.52.29-.62.56s.22.63.49.86c.45.38.53,1.52-.06,1.83-.25.13-.61.17-.67.44s.19.44.36.63a1.18,1.18,0,0,1-.36,1.75c-.15.07-.32.12-.37.27a.54.54,0,0,0,0,.33,1.72,1.72,0,0,1,.06.64.3.3,0,0,1-.08.2.3.3,0,0,1-.19.05c-.85,0-1.26-.27-1.79.48a.77.77,0,0,1-.17.19.65.65,0,0,1-.24.06c-.59,0-1-.32-1.51-.39-.74-.1-.9.29-1.56.6C174,233.32,173.51,233,173.32,232.32Z" style="fill:#f0f0f0"></path><path d="M178,229.24a4,4,0,0,1-.12-.77c-.09-1.61-1.63-1.36-2.94-1.57-1-.17,1.69-2.75-.37-3.58a1.79,1.79,0,0,1-1-.7,1.16,1.16,0,0,1,.44-1.42,2.75,2.75,0,0,1,1.57-.39c.33-.41.06-1-.27-1.44s-.72-.89-.6-1.41c.19-.77,1.27-.8,2.06-.65a5.65,5.65,0,0,0,.42-1.59c.14-.53.57-1.09,1.11-1s.83.64,1.34.76,1.09-.38,1.55-.77,1.27-.63,1.59-.12c.19.31.07.74.27,1,.34.52,1.15.2,1.65-.17s1.31-.71,1.66-.2a2.06,2.06,0,0,1,.2.54c.24.69,1,1,1.56,1.47s1,1.32.55,1.86c-.25.26-.67.37-.79.71s.28.8.62,1.09c.57.48.67,1.93-.08,2.32-.31.17-.78.22-.85.57s.24.55.45.79a1.5,1.5,0,0,1-.45,2.23c-.18.08-.41.15-.47.34a.67.67,0,0,0,0,.42,2.21,2.21,0,0,1,.07.81.37.37,0,0,1-.1.25.37.37,0,0,1-.23.07c-1.09,0-1.61-.34-2.28.61a.84.84,0,0,1-.22.24.78.78,0,0,1-.3.07c-.75.06-1.24-.4-1.92-.49-.94-.12-1.14.37-2,.76C178.86,230.52,178.23,230.14,178,229.24Z" style="fill:#f0f0f0"></path><path d="M164.88,215.45a3.39,3.39,0,0,1-.11-.77c-.1-1.61-1.63-1.35-2.94-1.57-1-.17,1.68-2.75-.38-3.58a1.87,1.87,0,0,1-1-.69,1.16,1.16,0,0,1,.45-1.43,2.71,2.71,0,0,1,1.56-.39c.34-.41.06-1-.26-1.44s-.72-.89-.6-1.41c.19-.77,1.27-.8,2-.65a5.58,5.58,0,0,0,.43-1.59c.14-.53.56-1.09,1.11-1s.83.64,1.33.76,1.1-.38,1.56-.77,1.26-.63,1.58-.12c.19.31.08.74.27,1,.35.52,1.16.2,1.66-.17s1.3-.71,1.66-.2a2,2,0,0,1,.19.54c.24.69,1,1,1.56,1.47s1,1.32.55,1.86c-.24.26-.67.37-.79.71s.29.8.63,1.09c.57.48.67,1.93-.08,2.33-.32.16-.78.21-.86.56s.25.55.46.79a1.5,1.5,0,0,1-.46,2.23c-.18.08-.4.16-.47.34a.75.75,0,0,0,0,.42,2.24,2.24,0,0,1,.08.81.37.37,0,0,1-.1.25.36.36,0,0,1-.24.07c-1.09.05-1.61-.34-2.27.61a.88.88,0,0,1-.23.24.73.73,0,0,1-.3.07c-.74.06-1.23-.4-1.91-.49-.95-.12-1.15.37-2,.76C165.77,216.73,165.13,216.35,164.88,215.45Z" style="fill:#f0f0f0"></path><path d="M154.19,216a4.29,4.29,0,0,1-.12-.77c-.09-1.61-1.63-1.36-2.93-1.58-1-.17,1.68-2.74-.38-3.58a1.78,1.78,0,0,1-1-.69,1.15,1.15,0,0,1,.45-1.42,2.7,2.7,0,0,1,1.56-.4c.33-.4.06-1-.26-1.44s-.73-.89-.6-1.4c.18-.78,1.27-.8,2.05-.65a5.65,5.65,0,0,0,.42-1.59c.15-.53.57-1.09,1.12-1s.83.65,1.33.77,1.1-.38,1.56-.77,1.26-.63,1.58-.12c.19.31.07.73.27,1,.34.52,1.15.19,1.66-.18s1.3-.7,1.66-.19a2.47,2.47,0,0,1,.19.54c.24.69,1,1,1.56,1.47s1,1.32.55,1.85c-.24.27-.67.38-.79.71s.28.81.62,1.1c.57.48.68,1.93-.08,2.32-.31.17-.77.22-.85.57s.25.55.46.79a1.49,1.49,0,0,1-.46,2.22c-.18.09-.4.16-.47.35a.68.68,0,0,0,0,.42,2,2,0,0,1,.07.81.32.32,0,0,1-.09.25.51.51,0,0,1-.24.07c-1.09,0-1.61-.34-2.27.61a.88.88,0,0,1-.23.24.78.78,0,0,1-.3.07c-.75.06-1.23-.4-1.92-.49-.94-.12-1.14.37-2,.76C155.07,217.27,154.44,216.89,154.19,216Z" style="fill:#f0f0f0"></path><path d="M147.7,220.38a3.55,3.55,0,0,1-.12-.78c-.1-1.61-1.63-1.35-2.94-1.57-1-.17,1.68-2.75-.37-3.58a1.8,1.8,0,0,1-1-.69,1.19,1.19,0,0,1,.45-1.43,2.81,2.81,0,0,1,1.56-.39c.34-.41.07-1-.26-1.44s-.72-.89-.6-1.4c.19-.78,1.27-.81,2.06-.66a5.58,5.58,0,0,0,.42-1.58c.14-.54.56-1.1,1.11-1s.83.64,1.34.76,1.09-.38,1.55-.77,1.27-.63,1.58-.12c.19.31.08.74.28,1,.34.53,1.15.2,1.65-.17s1.31-.71,1.66-.19a2.24,2.24,0,0,1,.2.53c.23.69,1,1,1.56,1.47s1,1.32.54,1.86c-.24.26-.66.37-.78.71s.28.8.62,1.09c.57.48.67,1.93-.08,2.33-.32.16-.78.21-.86.56s.25.56.46.8a1.49,1.49,0,0,1-.46,2.22c-.18.09-.4.16-.47.35a.78.78,0,0,0,0,.42,2.16,2.16,0,0,1,.07.8.37.37,0,0,1-.1.25.33.33,0,0,1-.24.07c-1.08,0-1.61-.33-2.27.61a.73.73,0,0,1-.22.24.79.79,0,0,1-.3.08c-.75.06-1.24-.41-1.92-.5-1-.12-1.15.37-2,.76C148.58,221.65,147.94,221.27,147.7,220.38Z" style="fill:#f0f0f0"></path><path d="M149.67,225.91s2.71,3.84,3.65,5.05,5.62,8.81,6.26,13.83c.06.53.13,1,.2,1.4-1.05,6.88-1.46,16.71-1.62,25.17h6.59c.19-13.93.45-31.49.58-32.32.21-1.39,2.88-6.67,7-8.84s7.68-9.35,7.68-9.35H178.7a23.48,23.48,0,0,1-5.9,6.84,13.58,13.58,0,0,1-1.56.92,22.18,22.18,0,0,0-1.38-7.76l-.71.66a18.4,18.4,0,0,1,.55,7.87,14.23,14.23,0,0,0-3.59,2.4c-3.59-4.68-5.61-15.37-5.61-15.37l-.92.51a53.08,53.08,0,0,0,1.18,6.55c.68,2.77,2.66,8,3.58,10.34a24.6,24.6,0,0,0-2.71,5.1,2.37,2.37,0,0,0-.35-.42c-2.34-2.11-6.74-12.11-6.74-12.11-1.07-2.33.56-8.43.56-8.43h-1.23l-.55,5.33-3.09-3.37-.56.47,3.27,4.22,1.69,5.34-4.4-4.88Z" style="fill:#f0f0f0"></path><path d="M202.12,230.54a3.55,3.55,0,0,1-.12-.78c-.1-1.61-1.63-1.35-2.94-1.57-1-.17,1.68-2.75-.37-3.58a1.8,1.8,0,0,1-1-.69,1.18,1.18,0,0,1,.45-1.43,2.81,2.81,0,0,1,1.56-.39c.34-.41.07-1-.26-1.44s-.72-.89-.6-1.4c.19-.78,1.27-.81,2.06-.66a5.84,5.84,0,0,0,.42-1.58c.14-.54.56-1.1,1.11-1s.83.65,1.34.76,1.09-.38,1.55-.76,1.27-.64,1.58-.12c.19.3.08.73.28,1,.34.53,1.15.2,1.65-.17s1.31-.71,1.66-.19a2.31,2.31,0,0,1,.2.54c.23.68,1,1,1.56,1.47s1,1.31.54,1.85c-.24.27-.66.37-.78.71s.28.8.62,1.09c.57.49.67,1.93-.08,2.33-.32.16-.78.22-.86.56s.25.56.46.8a1.49,1.49,0,0,1-.46,2.22c-.18.09-.4.16-.47.35a.78.78,0,0,0,.05.42,2.39,2.39,0,0,1,.07.8.38.38,0,0,1-.1.26.38.38,0,0,1-.24.06c-1.08.05-1.61-.33-2.27.61a.73.73,0,0,1-.22.24.79.79,0,0,1-.3.08c-.75.06-1.24-.41-1.92-.49-.95-.13-1.15.36-2,.75C203,231.81,202.36,231.43,202.12,230.54Z" style="fill:#f0f0f0"></path><path d="M214.62,229.19a4.26,4.26,0,0,1-.12-.78c-.09-1.61-1.63-1.35-2.94-1.57-1-.17,1.69-2.75-.37-3.58a1.84,1.84,0,0,1-1-.69,1.19,1.19,0,0,1,.45-1.43,2.83,2.83,0,0,1,1.57-.39c.33-.41.06-1-.27-1.44s-.72-.89-.6-1.4c.19-.78,1.27-.81,2.06-.66a5.58,5.58,0,0,0,.42-1.58c.14-.54.57-1.1,1.11-1s.83.64,1.34.76,1.09-.38,1.55-.77,1.27-.63,1.58-.12c.19.31.08.74.28,1,.34.53,1.15.2,1.65-.17s1.31-.71,1.66-.19a2.24,2.24,0,0,1,.2.53c.24.69,1,1,1.56,1.47s1,1.32.54,1.86c-.24.26-.66.37-.78.71s.28.8.62,1.09c.57.49.67,1.93-.08,2.33-.31.16-.78.22-.85.56s.24.56.45.8a1.49,1.49,0,0,1-.46,2.22c-.18.09-.4.16-.46.35a.69.69,0,0,0,0,.42,2.16,2.16,0,0,1,.07.8.42.42,0,0,1-.1.26.38.38,0,0,1-.24.06c-1.08,0-1.6-.33-2.27.61a.73.73,0,0,1-.22.24.79.79,0,0,1-.3.08c-.75.06-1.24-.41-1.92-.5-.94-.12-1.15.37-2,.76C215.5,230.46,214.86,230.08,214.62,229.19Z" style="fill:#f0f0f0"></path><path d="M215.82,221.23a3.57,3.57,0,0,1-.11-.78c-.1-1.61-1.64-1.35-2.94-1.57-1-.17,1.68-2.75-.38-3.58a1.83,1.83,0,0,1-1-.69,1.16,1.16,0,0,1,.45-1.43,2.69,2.69,0,0,1,1.56-.39c.34-.41.06-1-.26-1.44s-.72-.89-.6-1.41c.18-.77,1.27-.8,2-.65a5.58,5.58,0,0,0,.43-1.59c.14-.53.56-1.09,1.11-1s.83.64,1.33.76,1.1-.38,1.56-.77,1.26-.63,1.58-.12c.19.31.08.74.27,1,.34.52,1.15.2,1.66-.17s1.3-.71,1.66-.19a1.86,1.86,0,0,1,.19.53c.24.69,1,1,1.56,1.47s1,1.32.55,1.86c-.24.26-.67.37-.79.71s.28.8.63,1.09c.56.48.67,1.93-.08,2.33-.32.16-.78.21-.86.56s.25.56.46.8a1.5,1.5,0,0,1-.46,2.22c-.18.09-.4.16-.47.35a.69.69,0,0,0,0,.42,2.16,2.16,0,0,1,.08.8.37.37,0,0,1-.1.25.36.36,0,0,1-.24.07c-1.09.05-1.61-.33-2.27.61a.88.88,0,0,1-.23.24.6.6,0,0,1-.3.07c-.74.07-1.23-.4-1.91-.49-.95-.12-1.15.37-2,.76C216.7,222.5,216.07,222.12,215.82,221.23Z" style="fill:#f0f0f0"></path><path d="M224.06,225.19a4.29,4.29,0,0,1-.12-.77c-.09-1.61-1.63-1.36-2.94-1.58-1-.17,1.69-2.74-.37-3.58a1.84,1.84,0,0,1-1-.69,1.18,1.18,0,0,1,.45-1.42,2.75,2.75,0,0,1,1.57-.4c.33-.4.06-1-.27-1.44s-.72-.89-.6-1.4c.19-.78,1.27-.8,2.06-.65a5.65,5.65,0,0,0,.42-1.59c.14-.53.57-1.09,1.11-1s.83.65,1.34.77,1.09-.38,1.55-.77,1.27-.63,1.58-.12c.19.31.08.73.28,1,.34.52,1.15.19,1.65-.18s1.31-.7,1.66-.19a2.49,2.49,0,0,1,.2.54c.24.69,1,1,1.56,1.47s1,1.32.54,1.85c-.24.27-.66.38-.78.71s.28.81.62,1.1c.57.48.67,1.93-.08,2.32-.31.17-.78.22-.85.57s.24.55.45.79a1.5,1.5,0,0,1-.46,2.23c-.18.08-.4.15-.46.34a.68.68,0,0,0,0,.42,2.21,2.21,0,0,1,.07.81.37.37,0,0,1-.1.25.45.45,0,0,1-.24.07c-1.08,0-1.6-.34-2.27.61a.84.84,0,0,1-.22.24.78.78,0,0,1-.3.07c-.75.06-1.24-.4-1.92-.49-.94-.12-1.15.37-2,.76C224.94,226.46,224.3,226.08,224.06,225.19Z" style="fill:#f0f0f0"></path><path d="M232.38,223.36a4.26,4.26,0,0,1-.12-.78c-.09-1.6-1.63-1.35-2.93-1.57-1-.17,1.68-2.75-.38-3.58a1.78,1.78,0,0,1-1-.69,1.17,1.17,0,0,1,.45-1.43,2.77,2.77,0,0,1,1.56-.39c.33-.41.06-1-.26-1.44s-.73-.89-.6-1.4c.18-.78,1.27-.81,2-.65a5.65,5.65,0,0,0,.42-1.59c.14-.53.57-1.09,1.12-1s.83.65,1.33.77,1.09-.38,1.56-.77,1.26-.64,1.58-.12c.19.3.07.73.27,1,.34.53,1.15.2,1.66-.17s1.3-.71,1.66-.19a2.47,2.47,0,0,1,.19.54c.24.68,1,1,1.56,1.47s1,1.31.55,1.85c-.24.27-.67.37-.79.71s.28.8.62,1.09c.57.49.68,1.93-.08,2.33-.31.17-.77.22-.85.57s.24.55.45.79a1.48,1.48,0,0,1-.45,2.22c-.18.09-.4.16-.47.35a.69.69,0,0,0,0,.42,2.16,2.16,0,0,1,.07.8.37.37,0,0,1-.09.26.41.41,0,0,1-.24.06c-1.09.05-1.61-.33-2.27.61a.76.76,0,0,1-.23.24.64.64,0,0,1-.3.08c-.75.06-1.23-.41-1.92-.49-.94-.12-1.14.36-2,.76C233.26,224.63,232.63,224.25,232.38,223.36Z" style="fill:#f0f0f0"></path><path d="M232.49,232.26a2.71,2.71,0,0,1-.09-.61c-.08-1.26-1.29-1.06-2.32-1.24-.8-.13,1.33-2.16-.29-2.81a1.44,1.44,0,0,1-.78-.55.91.91,0,0,1,.35-1.12,2.17,2.17,0,0,1,1.23-.31c.26-.32,0-.81-.21-1.13s-.57-.71-.47-1.11c.15-.61,1-.63,1.62-.51a4.35,4.35,0,0,0,.33-1.25c.11-.42.45-.86.88-.81s.65.51,1,.6.86-.3,1.22-.61,1-.49,1.25-.09c.15.24.06.58.21.82.27.41.91.15,1.31-.14s1-.56,1.3-.15a1.52,1.52,0,0,1,.16.42c.18.54.77.81,1.23,1.16s.81,1,.43,1.46c-.19.21-.53.29-.62.56s.22.63.49.86c.45.38.53,1.52-.07,1.83-.24.13-.61.17-.67.45s.19.43.36.62a1.18,1.18,0,0,1-.36,1.75c-.14.07-.32.13-.37.27a.57.57,0,0,0,0,.34,1.67,1.67,0,0,1,.06.63.3.3,0,0,1-.08.2.29.29,0,0,1-.18.05c-.86,0-1.27-.26-1.79.48a.55.55,0,0,1-.18.19.61.61,0,0,1-.24.06c-.58.05-1-.32-1.5-.39-.75-.09-.91.29-1.56.6C233.18,233.27,232.68,233,232.49,232.26Z" style="fill:#f0f0f0"></path><path d="M237.15,229.19a3.57,3.57,0,0,1-.11-.78c-.1-1.61-1.63-1.35-2.94-1.57-1-.17,1.68-2.75-.38-3.58a1.81,1.81,0,0,1-1-.69,1.17,1.17,0,0,1,.45-1.43,2.79,2.79,0,0,1,1.56-.39c.34-.41.06-1-.26-1.44s-.72-.89-.6-1.4c.18-.78,1.27-.81,2.05-.66a5.6,5.6,0,0,0,.43-1.58c.14-.54.56-1.1,1.11-1s.83.64,1.33.76,1.1-.38,1.56-.77,1.26-.63,1.58-.12c.19.31.08.74.27,1,.34.53,1.16.2,1.66-.17s1.3-.71,1.66-.19a1.86,1.86,0,0,1,.19.53c.24.69,1,1,1.56,1.47s1,1.32.55,1.86c-.24.26-.67.37-.79.71s.28.8.63,1.09c.56.49.67,1.93-.08,2.33-.32.16-.78.22-.86.56s.25.56.46.8a1.49,1.49,0,0,1-.46,2.22c-.18.09-.4.16-.47.35a.69.69,0,0,0,0,.42,2.16,2.16,0,0,1,.08.8.42.42,0,0,1-.1.26.41.41,0,0,1-.24.06c-1.09,0-1.61-.33-2.27.61a.76.76,0,0,1-.23.24.74.74,0,0,1-.3.08c-.74.06-1.23-.41-1.91-.5-1-.12-1.15.37-2,.76C238,230.46,237.4,230.08,237.15,229.19Z" style="fill:#f0f0f0"></path><path d="M224.06,215.4a4.26,4.26,0,0,1-.12-.78c-.09-1.61-1.63-1.35-2.94-1.57-1-.17,1.69-2.75-.37-3.58a1.84,1.84,0,0,1-1-.69,1.19,1.19,0,0,1,.45-1.43,2.83,2.83,0,0,1,1.57-.39c.33-.41.06-1-.27-1.44s-.72-.89-.6-1.4c.19-.78,1.27-.81,2.06-.66a5.5,5.5,0,0,0,.42-1.58c.14-.54.57-1.1,1.11-1s.83.65,1.34.76,1.09-.38,1.55-.76,1.27-.64,1.58-.12c.19.3.08.73.28,1,.34.53,1.15.2,1.65-.17s1.31-.71,1.66-.19a2.31,2.31,0,0,1,.2.54c.24.68,1,1,1.56,1.47s1,1.31.54,1.85c-.24.27-.66.37-.78.71s.28.8.62,1.09c.57.49.67,1.93-.08,2.33-.31.17-.78.22-.85.56s.24.56.45.8a1.49,1.49,0,0,1-.46,2.22c-.18.09-.4.16-.46.35a.69.69,0,0,0,0,.42,2.16,2.16,0,0,1,.07.8.38.38,0,0,1-.1.26.38.38,0,0,1-.24.06c-1.08,0-1.6-.33-2.27.61a.73.73,0,0,1-.22.24.79.79,0,0,1-.3.08c-.75.06-1.24-.41-1.92-.49-.94-.12-1.15.36-2,.75C224.94,216.67,224.3,216.29,224.06,215.4Z" style="fill:#f0f0f0"></path><path d="M213.37,215.94a3.36,3.36,0,0,1-.12-.77c-.1-1.61-1.63-1.35-2.94-1.57-1-.17,1.68-2.75-.37-3.58a1.86,1.86,0,0,1-1-.69,1.18,1.18,0,0,1,.45-1.43,2.73,2.73,0,0,1,1.56-.39c.34-.41.07-1-.26-1.44s-.72-.89-.6-1.41c.19-.77,1.27-.8,2-.65a5.58,5.58,0,0,0,.43-1.59c.14-.53.56-1.09,1.11-1s.83.64,1.33.76,1.1-.38,1.56-.77,1.27-.63,1.58-.12c.19.31.08.74.28,1,.34.52,1.15.2,1.65-.17s1.31-.71,1.66-.2a2.49,2.49,0,0,1,.2.54c.23.69,1,1,1.55,1.47s1,1.32.55,1.86c-.24.26-.66.37-.78.71s.28.8.62,1.09c.57.48.67,1.93-.08,2.33-.32.16-.78.21-.86.56s.25.55.46.79a1.5,1.5,0,0,1-.46,2.23c-.18.09-.4.16-.47.34a.75.75,0,0,0,.05.42,2.47,2.47,0,0,1,.07.81.37.37,0,0,1-.1.25.33.33,0,0,1-.24.07c-1.08.05-1.61-.34-2.27.61a.75.75,0,0,1-.23.24.73.73,0,0,1-.3.07c-.74.07-1.23-.4-1.91-.49-.95-.12-1.15.37-2,.76C214.25,217.22,213.61,216.84,213.37,215.94Z" style="fill:#f0f0f0"></path><path d="M206.87,220.32a4.29,4.29,0,0,1-.12-.77c-.09-1.61-1.63-1.36-2.93-1.58-1-.17,1.68-2.74-.38-3.58a1.78,1.78,0,0,1-1-.69,1.17,1.17,0,0,1,.45-1.43,2.77,2.77,0,0,1,1.56-.39c.33-.41.06-1-.26-1.44s-.73-.89-.6-1.4c.18-.78,1.27-.8,2.05-.65a5.65,5.65,0,0,0,.42-1.59c.14-.53.57-1.09,1.12-1s.83.65,1.33.77,1.1-.38,1.56-.77,1.26-.63,1.58-.12c.19.31.07.73.27,1,.34.52,1.15.19,1.66-.18s1.3-.71,1.66-.19a2.47,2.47,0,0,1,.19.54c.24.69,1,1,1.56,1.47s1,1.32.55,1.85c-.24.27-.67.38-.79.71s.28.8.62,1.1c.57.48.68,1.93-.08,2.32-.31.17-.77.22-.85.57s.24.55.45.79a1.48,1.48,0,0,1-.45,2.22c-.18.09-.4.16-.47.35a.68.68,0,0,0,0,.42,2.21,2.21,0,0,1,.07.81.32.32,0,0,1-.09.25.51.51,0,0,1-.24.07c-1.09,0-1.61-.34-2.27.6a.66.66,0,0,1-.23.24.64.64,0,0,1-.3.08c-.75.06-1.23-.4-1.92-.49-.94-.12-1.14.37-2,.76C207.75,221.59,207.12,221.21,206.87,220.32Z" style="fill:#f0f0f0"></path><path d="M208.84,225.85s2.72,3.84,3.65,5.06,5.62,8.8,6.26,13.82c.07.54.13,1,.2,1.4-1,6.88-1.46,16.71-1.61,25.18h6.58c.19-13.94.46-31.5.59-32.33.21-1.39,2.87-6.67,7-8.84s7.68-9.35,7.68-9.35h-1.32a23.35,23.35,0,0,1-5.9,6.84,12.27,12.27,0,0,1-1.56.92,22.1,22.1,0,0,0-1.37-7.76l-.71.66a18.51,18.51,0,0,1,.54,7.87,14.46,14.46,0,0,0-3.58,2.4c-3.6-4.67-5.62-15.36-5.62-15.36l-.92.5a54.75,54.75,0,0,0,1.19,6.56,107,107,0,0,0,3.58,10.34,24.47,24.47,0,0,0-2.72,5.09,2,2,0,0,0-.35-.41c-2.34-2.12-6.74-12.12-6.74-12.12-1.06-2.33.56-8.43.56-8.43H213l-.55,5.34-3.09-3.37-.56.47,3.28,4.21,1.68,5.34L209.4,225Z" style="fill:#f0f0f0"></path><path d="M254.85,212.54a3.45,3.45,0,0,1-.12-.77c-.1-1.61-1.63-1.36-2.94-1.57-1-.18,1.68-2.75-.38-3.58a1.83,1.83,0,0,1-1-.7,1.16,1.16,0,0,1,.45-1.42,2.82,2.82,0,0,1,1.56-.4c.34-.4.07-1-.26-1.43s-.72-.89-.6-1.41c.19-.77,1.27-.8,2.05-.65a5.67,5.67,0,0,0,.43-1.59c.14-.53.56-1.09,1.11-1s.83.64,1.33.76,1.1-.38,1.56-.77,1.26-.63,1.58-.12c.19.31.08.73.27,1,.35.52,1.16.2,1.66-.18s1.31-.7,1.66-.19a2,2,0,0,1,.19.54c.24.69,1,1,1.56,1.47s1,1.32.55,1.85c-.24.27-.66.38-.78.72s.28.8.62,1.09c.57.48.67,1.93-.08,2.32-.32.17-.78.22-.86.57s.25.55.46.79a1.5,1.5,0,0,1-.46,2.23c-.18.08-.4.15-.47.34a.68.68,0,0,0,.05.42,2.45,2.45,0,0,1,.07.81.37.37,0,0,1-.1.25.38.38,0,0,1-.24.07c-1.08.05-1.61-.34-2.27.61a.75.75,0,0,1-.23.24.73.73,0,0,1-.3.07c-.74.06-1.23-.4-1.91-.49-.95-.12-1.15.37-2,.76C255.73,213.82,255.09,213.44,254.85,212.54Z" style="fill:#f0f0f0"></path><path d="M267.35,211.19a3.55,3.55,0,0,1-.12-.77c-.1-1.61-1.63-1.36-2.94-1.58-1-.17,1.68-2.74-.37-3.58a1.76,1.76,0,0,1-1-.69,1.18,1.18,0,0,1,.45-1.42,2.74,2.74,0,0,1,1.56-.4c.34-.4.07-1-.26-1.43s-.72-.9-.6-1.41c.19-.78,1.27-.8,2.06-.65a5.65,5.65,0,0,0,.42-1.59c.14-.53.56-1.09,1.11-1s.83.64,1.34.76,1.09-.38,1.55-.77,1.27-.63,1.58-.12c.19.31.08.73.28,1,.34.52,1.15.19,1.65-.18s1.31-.7,1.66-.19a2.49,2.49,0,0,1,.2.54c.23.69,1,1,1.56,1.47s1,1.32.54,1.85c-.24.27-.66.38-.78.71s.28.81.62,1.1c.57.48.67,1.93-.08,2.32-.32.17-.78.22-.86.57s.25.55.46.79a1.5,1.5,0,0,1-.46,2.23c-.18.08-.4.15-.47.34a.77.77,0,0,0,.05.42,2.21,2.21,0,0,1,.07.81.37.37,0,0,1-.1.25.45.45,0,0,1-.24.07c-1.08.05-1.61-.34-2.27.61a.84.84,0,0,1-.22.24.78.78,0,0,1-.3.07c-.75.06-1.24-.4-1.92-.49-.95-.12-1.15.37-2,.76C268.23,212.46,267.59,212.09,267.35,211.19Z" style="fill:#f0f0f0"></path><path d="M268.55,203.23a4.26,4.26,0,0,1-.12-.78c-.09-1.6-1.63-1.35-2.93-1.57-1-.17,1.68-2.75-.38-3.58a1.78,1.78,0,0,1-1-.69,1.17,1.17,0,0,1,.45-1.43,2.77,2.77,0,0,1,1.56-.39c.33-.41.06-1-.26-1.44s-.73-.89-.6-1.4c.18-.78,1.27-.8,2.05-.65a5.65,5.65,0,0,0,.42-1.59c.15-.53.57-1.09,1.12-1s.83.65,1.33.77,1.1-.38,1.56-.77,1.26-.63,1.58-.12c.19.3.07.73.27,1,.34.53,1.15.2,1.66-.17s1.3-.71,1.66-.19a2.47,2.47,0,0,1,.19.54c.24.68,1,1,1.56,1.47s1,1.31.55,1.85c-.24.27-.67.38-.79.71s.28.8.62,1.09c.57.49.68,1.94-.08,2.33-.31.17-.77.22-.85.57s.25.55.46.79a1.49,1.49,0,0,1-.46,2.22c-.18.09-.4.16-.47.35a.69.69,0,0,0,0,.42,2,2,0,0,1,.07.81.32.32,0,0,1-.09.25.51.51,0,0,1-.24.07c-1.09,0-1.61-.34-2.27.6a.76.76,0,0,1-.23.24.64.64,0,0,1-.3.08c-.75.06-1.23-.41-1.92-.49-.94-.12-1.14.36-2,.76C269.43,204.5,268.8,204.12,268.55,203.23Z" style="fill:#f0f0f0"></path><path d="M284.59,203.62c0,.21-.08.43-.12.65v2.35a1.22,1.22,0,0,0-1,.6l0,.05a.84.84,0,0,1-.22.24.55.55,0,0,1-.22.06l-.08,0a2.3,2.3,0,0,1-1.15-.26,2.76,2.76,0,0,0-.77-.23,1.53,1.53,0,0,0-.65,0,1.47,1.47,0,0,0-.49.23,7.76,7.76,0,0,1-.84.5,2,2,0,0,1-1.44.26,1,1,0,0,1-.6-.52,2,2,0,0,1-.15-.39,3,3,0,0,1-.12-.78c-.09-1.49-1.41-1.39-2.63-1.53l-.3,0c-.4-.06-.24-.49,0-1l.12-.31c.34-.81.63-1.79-.49-2.24l-.35-.16a1.32,1.32,0,0,1-.65-.53,1.13,1.13,0,0,1,.25-1.25,1.71,1.71,0,0,1,.2-.18,2.73,2.73,0,0,1,1.57-.39c.31-.39.08-1-.22-1.37l0,0,0,0c-.33-.42-.72-.89-.6-1.4s.87-.76,1.55-.72a3,3,0,0,1,.51.06,5.91,5.91,0,0,0,.42-1.59,1.86,1.86,0,0,1,.14-.37,1,1,0,0,1,1-.65c.52.06.83.64,1.34.76a.83.83,0,0,0,.35,0h0a2.78,2.78,0,0,0,1.19-.77c.46-.39,1.27-.63,1.58-.11a.81.81,0,0,1,.12.38,1.45,1.45,0,0,0,.16.65.46.46,0,0,0,.17.17c.4.26,1.05,0,1.48-.34h0a3.11,3.11,0,0,1,.53-.32,2.21,2.21,0,0,1,.42-.12v10.57A.4.4,0,0,1,284.59,203.62Z" style="fill:#f0f0f0"></path><path d="M284.47,191.45v12.06a6.37,6.37,0,0,0-2.41-.49h0c-.41-.08-.18-.58.08-1.18.35-.85.75-1.91-.44-2.39a4.52,4.52,0,0,1-.5-.23,1.12,1.12,0,0,1-.49-.47,1.15,1.15,0,0,1,.43-1.41s0,0,0,0a2.9,2.9,0,0,1,1.57-.38c.34-.41.06-1-.27-1.44a2.88,2.88,0,0,1-.6-1,.92.92,0,0,1,0-.37.91.91,0,0,1,.19-.35,1.82,1.82,0,0,1,1.5-.35,2.35,2.35,0,0,1,.37.05,1.22,1.22,0,0,0,.16-.37c.14-.38.15-.82.27-1.22A1.56,1.56,0,0,1,284.47,191.45Z" style="fill:#f0f0f0"></path><path d="M284.47,204.27v8.4a3.28,3.28,0,0,0-.87-.16c-.26,0-.52,0-.79-.09-.8-.13,1.32-2.16-.3-2.82a1.6,1.6,0,0,1-.7-.45.32.32,0,0,1-.08-.09.82.82,0,0,1,.07-.8,1,1,0,0,1,.29-.33,1.8,1.8,0,0,1,.88-.29h.35a.55.55,0,0,0,.11-.41,1.3,1.3,0,0,0-.32-.73c-.26-.33-.56-.7-.47-1.11.14-.61,1-.63,1.62-.51A1.79,1.79,0,0,0,284.47,204.27Z" style="fill:#f0f0f0"></path><path d="M284.47,183.16v13.67a1.25,1.25,0,0,0-1.07.65.84.84,0,0,1-.22.24.53.53,0,0,1-.18.05l-.12,0c-.7.05-1.16-.33-1.76-.46l-.16,0c-.94-.12-1.15.37-2,.76a3.2,3.2,0,0,1-.65.23,1.12,1.12,0,0,1-1.54-.89,3,3,0,0,1-.12-.77,1.28,1.28,0,0,0-.79-1.24,3.8,3.8,0,0,0-.82-.19c-.42,0-.89-.07-1.32-.15a.2.2,0,0,1-.14-.05c-.61-.4,1.7-2.74-.24-3.52a1.91,1.91,0,0,1-1-.7,1.18,1.18,0,0,1,.45-1.42,1.85,1.85,0,0,1,.66-.29,4,4,0,0,1,.91-.11c.33-.4.06-1-.27-1.44s-.72-.89-.6-1.4a.54.54,0,0,1,.08-.19,1.08,1.08,0,0,1,.88-.5,3.29,3.29,0,0,1,1,0h.06a6,6,0,0,0,.42-1.59c.14-.53.57-1.09,1.11-1s.83.64,1.34.76,1.09-.38,1.55-.77,1.27-.63,1.58-.12c.19.31.08.73.28,1,.34.53,1.15.21,1.65-.16A2.14,2.14,0,0,1,284.47,183.16Z" style="fill:#f0f0f0"></path><path d="M266.09,198a3.57,3.57,0,0,1-.11-.78c-.1-1.6-1.63-1.35-2.94-1.57-1-.17,1.68-2.75-.38-3.58a1.81,1.81,0,0,1-1-.69,1.17,1.17,0,0,1,.45-1.43,2.79,2.79,0,0,1,1.56-.39c.34-.41.06-1-.26-1.44s-.72-.89-.6-1.4c.19-.78,1.27-.81,2.05-.65a5.67,5.67,0,0,0,.43-1.59c.14-.53.56-1.09,1.11-1s.83.65,1.33.77,1.1-.38,1.56-.77,1.26-.64,1.58-.12c.19.3.08.73.27,1,.35.53,1.16.2,1.66-.17s1.3-.71,1.66-.19a2,2,0,0,1,.19.54c.24.68,1,1,1.56,1.47s1,1.31.55,1.85c-.24.27-.67.37-.79.71s.29.8.63,1.09c.57.49.67,1.93-.08,2.33-.32.17-.78.22-.86.57s.25.55.46.79a1.49,1.49,0,0,1-.46,2.22c-.18.09-.4.16-.47.35a.77.77,0,0,0,0,.42,2.16,2.16,0,0,1,.08.8.38.38,0,0,1-.1.26.38.38,0,0,1-.24.06c-1.08.05-1.61-.33-2.27.61a.66.66,0,0,1-.23.24.61.61,0,0,1-.3.08c-.74.06-1.23-.41-1.91-.49-.95-.12-1.15.36-2,.76C267,199.22,266.34,198.84,266.09,198Z" style="fill:#f0f0f0"></path><path d="M259.6,202.33a4.26,4.26,0,0,1-.12-.78c-.09-1.61-1.63-1.35-2.93-1.57-1-.17,1.68-2.75-.38-3.58a1.83,1.83,0,0,1-1-.69,1.17,1.17,0,0,1,.44-1.43,2.75,2.75,0,0,1,1.57-.39c.33-.41.06-1-.27-1.44s-.72-.89-.59-1.41c.18-.77,1.27-.8,2.05-.65a5.56,5.56,0,0,0,.42-1.59c.14-.53.57-1.09,1.11-1s.83.64,1.34.76,1.09-.38,1.55-.77,1.27-.63,1.59-.12c.19.31.07.74.27,1,.34.52,1.15.2,1.66-.17s1.3-.71,1.65-.2a2.06,2.06,0,0,1,.2.54c.24.69,1,1,1.56,1.47s1,1.32.55,1.86c-.25.26-.67.37-.79.71s.28.8.62,1.09c.57.48.67,1.93-.08,2.33-.31.16-.78.21-.85.56s.24.55.45.79a1.5,1.5,0,0,1-.45,2.23c-.18.09-.41.16-.47.34a.67.67,0,0,0,0,.42,2.23,2.23,0,0,1,.07.81.33.33,0,0,1-.1.25.32.32,0,0,1-.23.07c-1.09.05-1.61-.34-2.28.61a.84.84,0,0,1-.22.24.63.63,0,0,1-.3.07c-.75.07-1.23-.4-1.92-.49-.94-.12-1.14.37-2,.76C260.48,203.6,259.85,203.22,259.6,202.33Z" style="fill:#f0f0f0"></path><path d="M284.47,209.79V212a1.42,1.42,0,0,1-.23.14c-.22.11-.43.23-.64.36a16.51,16.51,0,0,0-6.36,8.48c0,.22-.08,1.59-.13,3.75-.13,6-.32,18.3-.46,28.57h-6.58c.09-5.19.28-10.9.66-16.13.12-1.66.26-3.27.42-4.82.09-.84.18-1.67.29-2.46.08-.61.15-1.19.24-1.76-.07-.41-.13-.87-.2-1.41-.57-4.46-4.33-11-5.82-13.19l-.44-.63c-.27-.35-.69-.92-1.15-1.55-1.12-1.55-2.5-3.51-2.5-3.51l.56-.84,2.61,2.89,1.79,2-.91-2.89-.73-2.3,0-.15-.14-.17-.89-1.15-.35-.44-.46-.58-.17-.23-.85-1.09-.42-.55.56-.47.54.59.67.73.26.28,1.62,1.77.11-1.06.15-1.46,0-.3.1-1,.06-.47,0-.4.06-.61H267s-.11.43-.26,1.12c-.07.3-.14.65-.22,1-.37,2-.73,4.84-.08,6.27l.6,1.34c.31.66.71,1.51,1.17,2.47l.12.23c1.48,3,3.51,6.86,4.85,8.08a1.78,1.78,0,0,1,.35.42,24.58,24.58,0,0,1,2.72-5.1c-.46-1.17-1.18-3-1.86-4.94-.29-.82-.58-1.65-.84-2.44-.38-1.11-.68-2.15-.88-3s-.36-1.58-.51-2.29c-.21-1-.37-2-.47-2.69-.16-1-.21-1.58-.21-1.58l.15-.08.77-.41s.07.35.21,1,.22,1.07.4,1.78.37,1.47.6,2.3l.12.41c.09.34.2.71.31,1.07.39,1.28.85,2.63,1.36,3.92.26.63.52,1.26.81,1.85a17.51,17.51,0,0,0,1.81,3.07,14.19,14.19,0,0,1,3.58-2.4,11.88,11.88,0,0,0,.21-2.18c0-.28,0-.58,0-.89s0-.6-.07-.93a27.23,27.23,0,0,0-.5-3.15c-.05-.24-.11-.48-.17-.73l.7-.65s.07.17.18.47a23.7,23.7,0,0,1,1,4.3.17.17,0,0,1,0,.07,17.36,17.36,0,0,1,.18,2.92C283.6,210.32,284,210.08,284.47,209.79Z" style="fill:#f0f0f0"></path><path d="M76.29,219.26a2.54,2.54,0,0,1-.38.16.91.91,0,0,0-.26.13.43.43,0,0,0-.21.28.32.32,0,0,0,0,.27,2,2,0,0,0,.42.52,1.37,1.37,0,0,1,.3,1,1.52,1.52,0,0,1-.45,1,1.13,1.13,0,0,1-.31.21,1.58,1.58,0,0,0-.36.2v-4.77l-.24-.31.09,0,.15.07V216.7l-.72-.8s0,0,0,0a1.86,1.86,0,0,1,.69-.3V213a1,1,0,0,1,0-.3v-.07h0c.28.23.62.42.9.63a2,2,0,0,1,.64.84.9.9,0,0,1-.09,1h0a1.52,1.52,0,0,1-.35.26,1.07,1.07,0,0,0-.43.44c-.15.42.26.79.6,1.07l0,0C76.94,217.42,77,218.87,76.29,219.26Z" style="fill:#f0f0f0"></path><path d="M88.79,217.91c-.32.17-.77.22-.85.56s.24.56.46.8a1.46,1.46,0,0,1,.16,1.57,1.27,1.27,0,0,1-.62.65c-.18.09-.41.16-.47.35a.69.69,0,0,0,0,.42,2.18,2.18,0,0,1,.07.8.39.39,0,0,1-.09.26.51.51,0,0,1-.24.07h0c-.82,0-1.31-.18-1.8.15A1.63,1.63,0,0,0,85,224a.69.69,0,0,1-.22.23.61.61,0,0,1-.3.08c-.75.06-1.24-.41-1.92-.49-1-.12-1.14.37-2,.75a2.35,2.35,0,0,1-1.34.29,1.15,1.15,0,0,1-.86-.94,4.26,4.26,0,0,1-.12-.78c-.06-1.06-.76-1.31-1.6-1.41l-.44-.06c-.3,0-.6,0-.9-.1a.25.25,0,0,1-.22-.17v-.2a5.62,5.62,0,0,1,.4-1.1,3.86,3.86,0,0,0,.17-.55,1.51,1.51,0,0,0,.07-.46,1.05,1.05,0,0,0-.64-1V216.7l-.72-.8s0,0,0,0a1.86,1.86,0,0,1,.69-.3,5.14,5.14,0,0,1,.87-.09l.08-.12c.21-.39,0-.94-.35-1.32a2.63,2.63,0,0,1-.6-1,1,1,0,0,1,0-.3.17.17,0,0,1,0-.07h0c.16-.66,1-.78,1.67-.71.13,0,.26,0,.38.06a2.54,2.54,0,0,0,.26-.73,8.65,8.65,0,0,1,.16-.86c.15-.53.57-1.09,1.12-1s.83.65,1.33.77a.9.9,0,0,0,.4,0,3.14,3.14,0,0,0,1.16-.77c.46-.38,1.26-.63,1.58-.11.19.3.07.73.27,1a.56.56,0,0,0,.47.26,1.93,1.93,0,0,0,1.19-.44l.06,0a1.85,1.85,0,0,1,1.2-.4.6.6,0,0,1,.4.25,1.86,1.86,0,0,1,.19.53c.24.69,1,1,1.56,1.47a1.61,1.61,0,0,1,.71,1.58,1,1,0,0,1-.16.28,1.82,1.82,0,0,1-.38.29.88.88,0,0,0-.41.42c-.12.33.12.63.39.89l.24.2C89.45,216.06,89.55,217.52,88.79,217.91Z" style="fill:#f0f0f0"></path><path d="M90,210c-.32.16-.78.22-.85.57a.56.56,0,0,0,.19.5c.08.1.18.19.26.29a1.5,1.5,0,0,1-.4,2.19l-.06,0c-.18.07-.4.15-.47.34a.4.4,0,0,0,0,.19c0,.07,0,.15.06.23a2.39,2.39,0,0,1,.07.8.36.36,0,0,1-.1.25s0,0,0,0a.38.38,0,0,1-.19,0c-1.08.05-1.6-.34-2.27.61a.75.75,0,0,1-.23.24.7.7,0,0,1-.3.08,2,2,0,0,1-.78-.11l-.25-.1a3.23,3.23,0,0,0-.88-.28,2.16,2.16,0,0,0-.57,0c-.5.1-.78.46-1.41.76-1.31.61-1.94.23-2.2-.66a5.42,5.42,0,0,1-.11-.78,1.56,1.56,0,0,0-.16-.66c-.27-.55-.87-.69-1.55-.77-.34,0-.71-.06-1-.11l-.18,0c-.54-.09,0-.85.25-1.68s.34-1.51-.63-1.9a1.72,1.72,0,0,1-1-.69.61.61,0,0,1-.07-.17,1,1,0,0,1,0-.54.87.87,0,0,1,.07-.17,1.26,1.26,0,0,1,.44-.55,2.73,2.73,0,0,1,1.56-.39c.34-.41.07-1-.26-1.44s-.73-.89-.6-1.4c.19-.78,1.27-.81,2.06-.66a5.48,5.48,0,0,0,.42-1.59,1.66,1.66,0,0,1,.44-.77.82.82,0,0,1,.67-.24c.51.06.83.64,1.33.75s1.1-.38,1.56-.76,1.26-.63,1.58-.12a1.16,1.16,0,0,1,.13.5,1.17,1.17,0,0,0,.15.53c.34.53,1.15.2,1.65-.17a2.45,2.45,0,0,1,.79-.4.72.72,0,0,1,.87.21,2,2,0,0,1,.19.54c.24.69,1,1,1.56,1.47s1,1.32.55,1.85a1.72,1.72,0,0,1-.43.32h0a.83.83,0,0,0-.35.39c-.15.41.29.79.63,1.09C90.65,208.11,90.75,209.55,90,210Z" style="fill:#f0f0f0"></path><path d="M87.8,219.92a4,4,0,0,1-.12-.77c-.09-1.61-1.63-1.35-2.93-1.57-1-.17,1.68-2.75-.38-3.58a1.79,1.79,0,0,1-1-.7,1.15,1.15,0,0,1,.45-1.42,2.69,2.69,0,0,1,1.56-.39c.33-.41.06-1-.26-1.44s-.73-.89-.6-1.41c.18-.77,1.27-.8,2-.65A5.56,5.56,0,0,0,87,206.4c.14-.53.57-1.09,1.12-1s.83.64,1.33.76,1.09-.38,1.56-.77,1.26-.63,1.58-.12c.19.31.07.74.27,1,.34.52,1.15.2,1.66-.17s1.3-.71,1.66-.2a2.47,2.47,0,0,1,.19.54c.24.69,1,1,1.56,1.47s1,1.32.55,1.86c-.24.26-.67.37-.79.71s.28.8.62,1.09c.57.48.68,1.93-.08,2.32-.31.17-.77.22-.85.57s.24.55.45.79a1.5,1.5,0,0,1-.45,2.23c-.18.08-.4.16-.47.34a.67.67,0,0,0,0,.42,2.21,2.21,0,0,1,.07.81.37.37,0,0,1-.09.25.36.36,0,0,1-.24.07c-1.09.05-1.61-.34-2.27.61a.88.88,0,0,1-.23.24.78.78,0,0,1-.3.07c-.75.06-1.23-.4-1.92-.49-.94-.12-1.14.37-2,.76C88.68,221.2,88.05,220.82,87.8,219.92Z" style="fill:#f0f0f0"></path><path d="M96.12,218.09a3.57,3.57,0,0,1-.11-.77c-.1-1.61-1.63-1.36-2.94-1.57-1-.18,1.68-2.75-.38-3.58a1.83,1.83,0,0,1-1-.7,1.15,1.15,0,0,1,.45-1.42,2.72,2.72,0,0,1,1.56-.4c.34-.4.06-1-.26-1.43s-.72-.89-.6-1.41c.19-.77,1.27-.8,2.05-.65a5.67,5.67,0,0,0,.43-1.59c.14-.53.56-1.09,1.11-1s.83.64,1.33.76,1.1-.38,1.56-.77,1.26-.63,1.58-.12c.19.31.08.73.27,1,.35.52,1.16.2,1.66-.18s1.3-.7,1.66-.19a2,2,0,0,1,.19.54c.24.69,1,1,1.56,1.47s1,1.32.55,1.85c-.24.27-.67.38-.79.72s.29.8.63,1.09c.57.48.67,1.93-.08,2.32-.32.17-.78.22-.86.57s.25.55.46.79a1.5,1.5,0,0,1-.46,2.23c-.18.08-.4.15-.47.34a.76.76,0,0,0,0,.42,2.22,2.22,0,0,1,.08.81.37.37,0,0,1-.1.25.42.42,0,0,1-.24.07c-1.09.05-1.61-.34-2.27.61a.75.75,0,0,1-.23.24.73.73,0,0,1-.3.07c-.74.06-1.23-.4-1.91-.49-1-.12-1.15.37-2,.76C97,219.37,96.37,219,96.12,218.09Z" style="fill:#f0f0f0"></path><path d="M96.23,227a2.79,2.79,0,0,1-.09-.61c-.07-1.27-1.28-1.07-2.31-1.24-.81-.14,1.32-2.17-.3-2.82a1.39,1.39,0,0,1-.78-.55.92.92,0,0,1,.35-1.12,2.17,2.17,0,0,1,1.23-.31c.27-.32,0-.8-.2-1.13s-.57-.7-.48-1.11c.15-.61,1-.63,1.62-.51a4.71,4.71,0,0,0,.34-1.25c.11-.42.44-.86.87-.81s.65.51,1,.6.86-.3,1.23-.6,1-.5,1.24-.1c.15.24.06.58.22.82.27.41.9.16,1.3-.14s1-.55,1.31-.15a2,2,0,0,1,.15.43c.19.54.77.81,1.23,1.15s.81,1,.43,1.46c-.19.21-.53.3-.62.56s.22.63.49.86c.45.38.53,1.52-.06,1.83-.25.13-.62.17-.68.45s.2.43.36.62a1.18,1.18,0,0,1-.36,1.76c-.14.06-.31.12-.37.27a.64.64,0,0,0,0,.33,1.67,1.67,0,0,1,0,.63.27.27,0,0,1-.07.2.3.3,0,0,1-.19,0c-.85,0-1.27-.26-1.79.48a.47.47,0,0,1-.18.19.6.6,0,0,1-.23.06c-.59,0-1-.32-1.51-.39-.75-.09-.9.29-1.56.6C96.93,228,96.43,227.7,96.23,227Z" style="fill:#f0f0f0"></path><path d="M100.9,223.92a3.55,3.55,0,0,1-.12-.78c-.1-1.6-1.63-1.35-2.94-1.57-1-.17,1.68-2.75-.37-3.58a1.8,1.8,0,0,1-1-.69,1.18,1.18,0,0,1,.45-1.43,2.81,2.81,0,0,1,1.56-.39c.34-.41.07-1-.26-1.44s-.72-.89-.6-1.4c.19-.78,1.27-.8,2.06-.65a6,6,0,0,0,.42-1.59c.14-.53.56-1.09,1.11-1s.83.65,1.34.77,1.09-.38,1.55-.77,1.27-.64,1.58-.12c.19.3.08.73.28,1,.34.53,1.15.2,1.65-.17s1.31-.71,1.66-.19a2.49,2.49,0,0,1,.2.54c.23.68,1,1,1.55,1.47s1,1.31.55,1.85c-.24.27-.66.37-.78.71s.28.8.62,1.09c.57.49.67,1.94-.08,2.33-.32.17-.78.22-.86.57s.25.55.46.79a1.49,1.49,0,0,1-.46,2.22c-.18.09-.4.16-.47.35a.78.78,0,0,0,0,.42,2.45,2.45,0,0,1,.07.81.37.37,0,0,1-.1.25.45.45,0,0,1-.24.07c-1.08,0-1.61-.34-2.27.6a.66.66,0,0,1-.23.24.57.57,0,0,1-.29.08c-.75.06-1.24-.41-1.92-.49-.95-.12-1.15.36-2,.76C101.78,225.19,101.14,224.81,100.9,223.92Z" style="fill:#f0f0f0"></path><path d="M87.8,210.13a4.29,4.29,0,0,1-.12-.77c-.09-1.61-1.63-1.36-2.93-1.58-1-.17,1.68-2.74-.38-3.58a1.78,1.78,0,0,1-1-.69,1.17,1.17,0,0,1,.45-1.43,2.77,2.77,0,0,1,1.56-.39c.33-.4.06-1-.26-1.44s-.73-.89-.6-1.4c.18-.78,1.27-.8,2-.65a5.65,5.65,0,0,0,.42-1.59c.14-.53.57-1.09,1.12-1s.83.65,1.33.77,1.09-.38,1.56-.77,1.26-.63,1.58-.12c.19.31.07.73.27,1,.34.52,1.15.19,1.66-.18s1.3-.71,1.66-.19a2.47,2.47,0,0,1,.19.54c.24.69,1,1,1.56,1.47s1,1.32.55,1.85c-.24.27-.67.38-.79.71s.28.8.62,1.1c.57.48.68,1.93-.08,2.32-.31.17-.77.22-.85.57s.24.55.45.79a1.48,1.48,0,0,1-.45,2.22c-.18.09-.4.16-.47.35a.68.68,0,0,0,0,.42,2.21,2.21,0,0,1,.07.81.37.37,0,0,1-.09.25.51.51,0,0,1-.24.07c-1.09,0-1.61-.34-2.27.6a.66.66,0,0,1-.23.24.64.64,0,0,1-.3.08c-.75.06-1.23-.4-1.92-.49-.94-.12-1.14.37-2,.76C88.68,211.4,88.05,211,87.8,210.13Z" style="fill:#f0f0f0"></path><path d="M87.54,204.67c-.31.17-.78.21-.85.56s.24.55.45.8h0a1.52,1.52,0,0,1-.26,2.09,2.12,2.12,0,0,1-.2.12c-.18.09-.4.16-.48.35a.78.78,0,0,0,.05.42,2,2,0,0,1,.08.65.71.71,0,0,1,0,.15.32.32,0,0,1-.1.25.38.38,0,0,1-.24.08,6.88,6.88,0,0,1-.82,0h-.09a1.24,1.24,0,0,0-1.19.44,1.56,1.56,0,0,0-.16.2.88.88,0,0,1-.23.24.63.63,0,0,1-.3.07c-.75.07-1.24-.4-1.92-.49a2.16,2.16,0,0,0-.51,0h0c-.54.09-.8.45-1.46.76-1,.46-1.56.37-1.9-.07a1.58,1.58,0,0,1-.29-.58,4.26,4.26,0,0,1-.12-.78c-.07-1.16-.9-1.35-1.84-1.44h-.07v-9.78a5.2,5.2,0,0,1,.81.07,5.5,5.5,0,0,0,.42-1.58c.14-.53.57-1.09,1.11-1s.83.65,1.34.77,1.09-.38,1.55-.78,1.27-.63,1.58-.12c.19.31.08.74.28,1.05.34.52,1.15.19,1.65-.18s1.31-.71,1.66-.2a2.7,2.7,0,0,1,.2.54,2.15,2.15,0,0,0,.84,1l.71.49c.59.44,1,1.32.56,1.86-.25.27-.67.37-.79.71a.53.53,0,0,0,.07.5,2.36,2.36,0,0,0,.55.59C88.19,202.83,88.29,204.28,87.54,204.67Z" style="fill:#f0f0f0"></path><path d="M81.05,209.05c-.32.16-.78.21-.86.56a.59.59,0,0,0,.22.52c.07.1.16.18.23.27a.66.66,0,0,1,.12.17h0a1.53,1.53,0,0,1-.58,2.06c-.18.08-.4.16-.47.34a.68.68,0,0,0,0,.42,2.45,2.45,0,0,1,.07.81.37.37,0,0,1-.1.25.34.34,0,0,1-.24.07h-.21c-.79,0-1.26-.19-1.75.26a1.49,1.49,0,0,0-.31.34.69.69,0,0,1-.23.25.73.73,0,0,1-.3.07h-.2a1.65,1.65,0,0,1-.32,0l-.15,0c-.32-.09-.62-.26-1-.35v-2a1,1,0,0,1,0-.3v-3.54a1,1,0,0,1,0-.54v-8.49a.5.5,0,0,1,.32.24c.19.31.08.73.27,1,.34.52,1.16.19,1.66-.18s1.31-.7,1.66-.19a2,2,0,0,1,.19.54l0,.07c.27.64,1,1,1.53,1.4s1,1.32.55,1.86c-.24.26-.67.37-.79.71s.29.79.63,1.09C81.7,207.2,81.8,208.64,81.05,209.05Z" style="fill:#f0f0f0"></path><path d="M102.93,215.53l-.18.36c-.26.47-.75,1.38-1.42,2.44a30.82,30.82,0,0,1-2.43,3.36,13,13,0,0,1-3.65,3.18c-.22.11-.43.24-.64.37a16.53,16.53,0,0,0-6.36,8.48c-.11.68-.3,12.84-.48,24.9,0,2.51-.07,5-.1,7.42H81.08c.08-4.4.23-9.17.5-13.7.26-4.19.61-8.17,1.11-11.47-.06-.41-.13-.87-.2-1.41-.64-5-5.31-12.6-6.25-13.82l-1.16-1.56s0,0,0,0a2.34,2.34,0,0,0-.07-.45.75.75,0,0,1-.05-.42.36.36,0,0,1,.12-.15v-1.15l.67.74,1.8,2-.91-2.88-.73-2.31,0-.15-.14-.18-.64-.82-.24-.31.09,0,.15.07V216.7L76.24,218l.11-1.05.15-1.47,0-.3.1-1,.06-.47.1-1H78s-.12.44-.27,1.13c-.06.3-.13.65-.2,1-.38,2-.74,4.84-.09,6.27,0,0,.74,1.68,1.77,3.81,1.5,3.06,3.6,7.06,5,8.31a2,2,0,0,1,.34.42,24.58,24.58,0,0,1,2.72-5.1c-.45-1.17-1.17-3-1.85-5s-1.38-4-1.73-5.39c-.2-.81-.36-1.58-.51-2.29-.49-2.51-.68-4.27-.68-4.27l.92-.5s.07.36.21,1c.09.46.23,1.06.4,1.77s.37,1.47.6,2.3c0,.13.08.26.12.41.09.35.2.71.31,1.07a44.54,44.54,0,0,0,2.16,5.77A17.06,17.06,0,0,0,89,226.45a14.75,14.75,0,0,1,3.58-2.4,11.14,11.14,0,0,0,.21-2.18c0-.27,0-.57,0-.88s0-.61-.06-.94a27.2,27.2,0,0,0-.67-3.87l.71-.65A23.12,23.12,0,0,1,94,220.3a.19.19,0,0,0,0,.07,19.67,19.67,0,0,1,.16,2.81v.11a13.94,13.94,0,0,0,1.56-.93,14.91,14.91,0,0,0,2.12-1.83A21.61,21.61,0,0,0,100,218c.46-.63.84-1.19,1.11-1.61s.49-.83.49-.83Z" style="fill:#f0f0f0"></path><path d="M284.47,220.05v54.07H75.08V250c1.53-.52,2.33-.3,2.85.26a8.39,8.39,0,0,1,1.12,0,.79.79,0,0,1,.3.08c.15.11.17.33.2.51a1.88,1.88,0,0,0,2,1.42h.06c0,.63.19,1.25.22,1.87h0a1.88,1.88,0,0,1,.8-.16.69.69,0,0,1,.64.46,1.19,1.19,0,0,0,.07.27c.08.17.31.2.43.34s-.06.74.16,1a.81.81,0,0,1,.46-.78,2.34,2.34,0,0,1,.94-.21l.92-.08c.29,0,.63,0,.79.21s.07.43.1.64a2.85,2.85,0,0,0,.19.63,2.65,2.65,0,0,1,.07,2l.32.08c.85.14,2.24.13,2.5.5a.74.74,0,0,1,.15-.93,1.17,1.17,0,0,1,1-.21,2.29,2.29,0,0,0,1,.14c.47-.12.65-.66.81-1.11s.58-.95,1-.79a1,1,0,0,1,.34-1.24,3.23,3.23,0,0,0,.43-.29,2.18,2.18,0,0,0,.31-.56,3,3,0,0,1,2.37-1.2,1.14,1.14,0,0,1,.66,0,1.32,1.32,0,0,1,.47.63,3,3,0,0,0,1.48,1.42c.87.31.73-.22,1.48-.44a.77.77,0,0,1,.45,0c1.41.36,3,.94,3.4,2.34a16.37,16.37,0,0,1,.13,1.73,5.6,5.6,0,0,0,1.61,2.77l.78-.66a.63.63,0,0,1-.07-.81,1.92,1.92,0,0,1,.68-.55,3,3,0,0,1,2.47-.53,4.3,4.3,0,0,1,.93.67,1.53,1.53,0,0,0,1,.41.66.66,0,0,0,.62-.79l.14-.08a6.43,6.43,0,0,1,2.76-.87,1.54,1.54,0,0,1,1.46.47c.28.41.16,1,.38,1.44a1.12,1.12,0,0,0,2-.08c.11-.27.27-.68.53-.55a1.76,1.76,0,0,0,1.9,1.22.68.68,0,0,1,.52-.67.67.67,0,0,1,.72.44,2.63,2.63,0,0,1,.06.48,1,1,0,0,0,.1.29,1.68,1.68,0,0,0,1.22.75c.15,0,2,0,1.84-.27a4.67,4.67,0,0,1-.86-2.82,2.24,2.24,0,0,0-.07-.93c-.14-.32-.47-.56-.55-.9a1,1,0,0,1,.55-1,3.5,3.5,0,0,1,1.2-.27,13.74,13.74,0,0,0,1.92-.32,2.1,2.1,0,0,0,.93-.4,2.16,2.16,0,0,0,.53-1.58,3.25,3.25,0,0,1,.31-1.66c.31-.48,1.09-.71,1.45-.26a3.27,3.27,0,0,1,2.33.32,1.24,1.24,0,0,1,.45.4,1.71,1.71,0,0,1,.17.74,7.48,7.48,0,0,0,.94,3.06l2.21-.68a1.35,1.35,0,0,1,.4-1.39,2,2,0,0,1,1.42-.49,1.88,1.88,0,0,1,1.37.53,1.2,1.2,0,0,1,.21,1.39c.51,0,1-.38,1.47-.42s1.09.56.74.93a4.47,4.47,0,0,0,1.44-1.27,1.68,1.68,0,0,1,1.73-.62,2,2,0,0,1,.87,1.07,3.56,3.56,0,0,1,.43,1.48,1.2,1.2,0,0,1-.83,1.18c-.39.76.62,1.32,1.25,1.09.33-.12.4-.53.75-.66s.66.11,1,.05.61-.36.92-.54a1.41,1.41,0,0,1,2.11,1.43c.42.16.87-.14,1.33-.23a1.63,1.63,0,0,1,1.86,1.19c.09.38.24.95.62.82a1.8,1.8,0,0,1-.45,2.43c-.34.21-.8.43-.75.81s.52.48.83.69c.69.44.48,1.31.67,2v0a1.24,1.24,0,0,0,.41.64c.91.77,3.09.22,4.09-.14a3.61,3.61,0,0,1,1.37-.32,1.51,1.51,0,0,1,.66.21c.74.42,1.21,1.41,1.8,2.11a4,4,0,0,0,2.59,1.39,1,1,0,0,0,.73-.13,4.42,4.42,0,0,0,.39-.47c.42-.45,1.18-.24,1.69.11a3.37,3.37,0,0,0,1.62.86c.48,0,1-.26,1.43-.07.73.28.38,1.09.79,1.51.57.6.63.48,1.47.74.41.12,3.28.23,3.4.57a1.21,1.21,0,0,1,.68-1.38,3.61,3.61,0,0,1,1.64-.25,2.79,2.79,0,0,0,0-1.46c-.06-.49.09-1.12.58-1.22s1,.23,1.22-.14a1.17,1.17,0,0,0,.07-.46c.08-1.09,1-.75,1.57-1.19.83-.66.31.1.68-.94.13-.37.15-1.39.29-1.92s.49-.79.38-1.33a3,3,0,0,0-.69-1.09,1.12,1.12,0,0,1-.23-1.2c.34-.53,1.18-.29,1.77-.56a2.61,2.61,0,0,0,1-1.16c.27-.45.71-.91,1.22-.82.19,0,.37.14.57.17,2.08.23,2.52-1.85,2.39-3.28a1.49,1.49,0,0,1,.07-.73c.25-.55,1.05-.6,1.42-1.08s.16-1.23.4-1.79a2.35,2.35,0,0,1,1.05-1,4.89,4.89,0,0,1,3.33-1,.78.78,0,0,1,.58.35,3.16,3.16,0,0,1,.09.55.92.92,0,0,0,.85.58c.37,0,.73-.06,1.1-.05,1,0,3.19,3.73,4,2.94a.59.59,0,0,0,.11-.32,2.64,2.64,0,0,1,2-2.26c1.24-.3,1.31.2,2.31.69.34.17.84.11,1-.24s0-.51,0-.75c.1-.41.62-.57,1-.55,1.24.07,3-.16,3,1.69a2.25,2.25,0,0,0,0,.86c.09.27.46.47.67.26.2.3-.27.63-.29,1s.56.62.94.84a.88.88,0,0,1,.37.34c.39.58.19,1.49.66,2.07.68.83,1.87.64,2.38,1.9a5.05,5.05,0,0,0,.84,1.69c.32-.31,1.08-1.24,1-1.84-.09-.42-.57-.91-.23-1.15.11-.07.24-.07.35-.13.36-.2.1-.72,0-1.11a1.38,1.38,0,0,1,.81-1.64,1,1,0,0,1,.46-.06,2,2,0,0,1,1.35.82,6.45,6.45,0,0,0-.06-1c1.28.32,1.49-2.15,2.77-2.48.57-.15,1.45,0,1.54-.55-.53-.18-.51-1-.1-1.39a2.46,2.46,0,0,1,1.6-.42,1.26,1.26,0,0,1,0-1.72,2.75,2.75,0,0,1,1.73-.73,7,7,0,0,1,2.54.16,6.35,6.35,0,0,1,1.18.41c-.22.38.33.83.75.69a1.36,1.36,0,0,0,.75-1c.62.83,1.86-.13,2.88-.28a2.39,2.39,0,0,1,2.27,1.17c.63.94.72,2,1.35,3a2.64,2.64,0,0,0,.44.48c.46.4.81.53.56,1.67a1.62,1.62,0,0,1-.26.65c-.11.11-.22.19-.33.29l0,0a1.31,1.31,0,0,0,0,1.66,1.37,1.37,0,0,0,.19.22,5.87,5.87,0,0,0,1.86,1,1.08,1.08,0,0,1,.57.45,1.14,1.14,0,0,1,0,.75,11.35,11.35,0,0,0-.38,4,.39.39,0,0,1,.08-.1,1,1,0,0,1,.51-.08l3.25.19a2.1,2.1,0,0,1,0-2.5,3.12,3.12,0,0,0,.54-.88.65.65,0,0,0-.35-.84,2.29,2.29,0,0,1-.28-.07c-.25-.15-.06-.54.15-.75.36-.37.7-.92.41-1.33a1.67,1.67,0,0,0-.5-.37c-1-.64-1.06-3.16.2-3.5a2.59,2.59,0,0,1,1.45.15c1.51.44,3.33.9,4.52-.13.25-1-.23-2.32.64-2.81.71-.4,1.94.08,2.18-.68.1-.28,0-.57,0-.86a1.08,1.08,0,0,1,1.58-.88c-.12-1-1.6-1.36-1.89-2.35a1.87,1.87,0,0,1,.8-1.83c.94-.79,2.53-1.08,3.31-.13.37.47.67,1.25,1.25,1.12,0-.56,0-1.12.05-1.68.4.42,1.15,0,1.35-.57.39-1.09.28-2.92,2-2.17-.08-.29-.51-.7-.52-1a2.49,2.49,0,0,1,1.12-2.07,2.18,2.18,0,0,1,1.6-.27,3.85,3.85,0,0,0,1.82.06c-.81-1.26-.17-2.56-.66-3.86a3.51,3.51,0,0,0-.74-1,1.37,1.37,0,0,1-.2-1.85,2.68,2.68,0,0,1,.49-.61,4.69,4.69,0,0,1,3.28-1,2.14,2.14,0,0,1,.19-3,5,5,0,0,1,2.2-1.16c.26-.08.53-.15.79-.21-.76-.86.07-2.33,1.18-2.59a4.87,4.87,0,0,1,3.25.82c.48-1,1-2.07,1.46-3.09A1.48,1.48,0,0,0,284.47,220.05Z" style="fill:#ebebeb"></path><path d="M89.94,188.89a6.11,6.11,0,0,1-.19-1.23c-.15-2.54-2.58-2.14-4.64-2.49-1.62-.26,2.66-4.34-.6-5.66a2.84,2.84,0,0,1-1.57-1.1,1.84,1.84,0,0,1,.71-2.25,4.3,4.3,0,0,1,2.47-.62c.53-.65.1-1.62-.41-2.28s-1.15-1.41-.95-2.22c.29-1.23,2-1.27,3.25-1a9.19,9.19,0,0,0,.67-2.52c.22-.84.89-1.72,1.76-1.62s1.31,1,2.11,1.21,1.73-.6,2.46-1.22,2-1,2.5-.19c.3.49.12,1.16.43,1.64.55.83,1.83.32,2.62-.27s2.07-1.12,2.63-.3a3.45,3.45,0,0,1,.31.85c.38,1.08,1.55,1.63,2.47,2.32s1.64,2.09.86,2.94c-.38.42-1,.59-1.24,1.12s.44,1.27,1,1.73c.9.76,1.07,3.05-.12,3.68-.5.26-1.23.34-1.36.89s.39.88.73,1.26a2.37,2.37,0,0,1-.73,3.52c-.28.14-.63.25-.74.55a1.09,1.09,0,0,0,.07.66,3.67,3.67,0,0,1,.11,1.28.59.59,0,0,1-.15.4.62.62,0,0,1-.38.1c-1.72.08-2.55-.53-3.59,1a1.45,1.45,0,0,1-.36.38,1.09,1.09,0,0,1-.48.11c-1.18.1-1.95-.64-3-.77-1.49-.19-1.81.58-3.13,1.2C91.33,190.9,90.33,190.3,89.94,188.89Z" style="fill:#ebebeb"></path><path d="M109.72,186.75a5.5,5.5,0,0,1-.18-1.23c-.16-2.54-2.59-2.14-4.65-2.48-1.62-.27,2.66-4.35-.6-5.67a2.87,2.87,0,0,1-1.57-1.09,1.86,1.86,0,0,1,.71-2.26,4.38,4.38,0,0,1,2.47-.62c.53-.65.1-1.62-.41-2.28s-1.15-1.41-.95-2.22c.29-1.23,2-1.27,3.25-1a8.78,8.78,0,0,0,.67-2.51c.22-.85.89-1.73,1.76-1.63s1.31,1,2.11,1.21,1.73-.6,2.46-1.22,2-1,2.5-.19c.3.49.12,1.17.44,1.65.54.82,1.82.31,2.62-.28s2.06-1.12,2.62-.3a3.45,3.45,0,0,1,.31.85c.38,1.09,1.55,1.63,2.47,2.33s1.64,2.08.86,2.93c-.38.42-1,.59-1.24,1.12s.45,1.27,1,1.73c.9.77,1.06,3.06-.13,3.68-.5.27-1.23.35-1.36.9s.4.87.73,1.25a2.37,2.37,0,0,1-.73,3.52c-.28.14-.63.25-.74.55a1.16,1.16,0,0,0,.07.66,3.46,3.46,0,0,1,.11,1.28.57.57,0,0,1-.15.4.63.63,0,0,1-.38.11c-1.72.07-2.54-.54-3.59,1a1.31,1.31,0,0,1-.36.38,1.26,1.26,0,0,1-.47.12c-1.19.09-2-.64-3-.78-1.49-.19-1.81.58-3.13,1.2C111.12,188.77,110.11,188.16,109.72,186.75Z" style="fill:#ebebeb"></path><path d="M111.63,174.15a6.12,6.12,0,0,1-.19-1.22c-.15-2.55-2.58-2.15-4.65-2.49-1.61-.27,2.66-4.35-.59-5.67a2.84,2.84,0,0,1-1.57-1.09,1.85,1.85,0,0,1,.71-2.26,4.38,4.38,0,0,1,2.47-.62c.53-.64.1-1.61-.42-2.27s-1.14-1.41-.94-2.23c.29-1.22,2-1.27,3.24-1a9.13,9.13,0,0,0,.68-2.51c.22-.85.89-1.73,1.75-1.62s1.32,1,2.12,1.2,1.73-.6,2.46-1.21,2-1,2.5-.19c.3.48.12,1.16.43,1.64.54.83,1.83.31,2.62-.28s2.07-1.12,2.63-.3a3.45,3.45,0,0,1,.31.85c.37,1.09,1.55,1.63,2.46,2.33s1.64,2.08.87,2.93c-.38.42-1.05.59-1.24,1.13s.44,1.26,1,1.72c.9.77,1.06,3.06-.12,3.69-.5.26-1.24.34-1.36.89s.39.88.72,1.26a2.35,2.35,0,0,1-.72,3.51c-.29.14-.64.25-.74.55a1,1,0,0,0,.07.67,3.61,3.61,0,0,1,.11,1.27.55.55,0,0,1-.15.4.65.65,0,0,1-.38.11c-1.72.07-2.55-.53-3.6,1a1.27,1.27,0,0,1-.35.38,1.14,1.14,0,0,1-.48.12c-1.18.1-2-.64-3-.78-1.5-.19-1.81.58-3.13,1.2C113,176.17,112,175.57,111.63,174.15Z" style="fill:#ebebeb"></path><path d="M124.66,180.43a6.11,6.11,0,0,1-.19-1.23c-.15-2.54-2.58-2.14-4.65-2.49-1.61-.27,2.67-4.34-.59-5.66a2.8,2.8,0,0,1-1.57-1.1,1.83,1.83,0,0,1,.71-2.25,4.3,4.3,0,0,1,2.47-.62c.53-.65.1-1.62-.42-2.28s-1.14-1.41-.94-2.22c.29-1.23,2-1.27,3.25-1a9.38,9.38,0,0,0,.67-2.51c.22-.84.89-1.72,1.75-1.62s1.32,1,2.12,1.21,1.73-.6,2.46-1.22,2-1,2.5-.19c.3.49.12,1.16.43,1.64.54.83,1.83.32,2.62-.27s2.07-1.12,2.63-.31a3.52,3.52,0,0,1,.31.86c.37,1.08,1.55,1.62,2.46,2.32s1.65,2.09.87,2.94c-.38.42-1.05.59-1.24,1.12s.44,1.27,1,1.73c.9.76,1.07,3-.12,3.68-.5.26-1.24.34-1.36.89s.39.88.72,1.26a2.36,2.36,0,0,1-.72,3.52c-.28.14-.64.25-.74.55a1.09,1.09,0,0,0,.07.66,3.67,3.67,0,0,1,.11,1.28.59.59,0,0,1-.15.4.62.62,0,0,1-.38.1c-1.72.08-2.55-.53-3.6,1a1.27,1.27,0,0,1-.35.38,1.13,1.13,0,0,1-.48.11c-1.18.1-1.95-.64-3-.77-1.5-.19-1.81.58-3.13,1.2C126.05,182.44,125.05,181.84,124.66,180.43Z" style="fill:#ebebeb"></path><path d="M137.83,177.53a6.11,6.11,0,0,1-.19-1.23c-.15-2.54-2.58-2.14-4.65-2.48-1.61-.27,2.67-4.35-.59-5.67a2.84,2.84,0,0,1-1.57-1.09,1.85,1.85,0,0,1,.71-2.26,4.3,4.3,0,0,1,2.47-.62c.53-.65.1-1.62-.42-2.28s-1.14-1.41-.94-2.22c.29-1.23,2-1.27,3.25-1a9.55,9.55,0,0,0,.67-2.52c.22-.84.89-1.72,1.75-1.62s1.32,1,2.12,1.21,1.73-.6,2.46-1.22,2-1,2.5-.19c.3.49.12,1.17.43,1.64.54.83,1.83.32,2.62-.27s2.07-1.12,2.63-.3a3.45,3.45,0,0,1,.31.85c.37,1.09,1.55,1.63,2.46,2.32s1.65,2.09.87,2.94c-.38.42-1.05.59-1.24,1.12s.44,1.27,1,1.73c.9.77,1.07,3.06-.12,3.68-.5.26-1.24.35-1.36.9s.39.87.72,1.25a2.36,2.36,0,0,1-.72,3.52c-.29.14-.64.25-.74.55a1.08,1.08,0,0,0,.07.66,3.69,3.69,0,0,1,.11,1.28.59.59,0,0,1-.15.4.64.64,0,0,1-.38.1c-1.72.08-2.55-.53-3.6,1a1.27,1.27,0,0,1-.35.38,1.31,1.31,0,0,1-.48.12c-1.18.09-2-.64-3-.78-1.5-.19-1.81.58-3.13,1.2C139.22,179.54,138.22,178.94,137.83,177.53Z" style="fill:#ebebeb"></path><path d="M138,191.62a4.59,4.59,0,0,1-.15-1c-.12-2-2-1.68-3.66-2-1.27-.21,2.1-3.42-.46-4.46a2.23,2.23,0,0,1-1.24-.86,1.46,1.46,0,0,1,.56-1.78,3.4,3.4,0,0,1,1.94-.48c.42-.51.08-1.28-.32-1.8s-.9-1.11-.75-1.75c.23-1,1.58-1,2.56-.81a7.23,7.23,0,0,0,.53-2c.17-.66.7-1.36,1.38-1.28s1,.81,1.66.95,1.37-.47,1.94-.95,1.58-.79,2-.15c.24.38.1.91.34,1.29.43.65,1.44.25,2.07-.22s1.62-.88,2.06-.24a2.71,2.71,0,0,1,.25.67c.29.86,1.22,1.29,1.94,1.84s1.29,1.64.68,2.31c-.3.33-.83.46-1,.88s.35,1,.78,1.36c.71.61.83,2.41-.1,2.9-.4.21-1,.27-1.07.71s.31.68.57,1a1.86,1.86,0,0,1-.57,2.77c-.22.11-.5.2-.58.44a.86.86,0,0,0,.05.52,2.81,2.81,0,0,1,.09,1,.45.45,0,0,1-.12.32.44.44,0,0,1-.3.08c-1.35.06-2-.42-2.83.76a1,1,0,0,1-.28.3.92.92,0,0,1-.37.09c-.93.08-1.54-.5-2.39-.61-1.18-.15-1.43.46-2.47.95C139.1,193.2,138.31,192.73,138,191.62Z" style="fill:#ebebeb"></path><path d="M145.38,186.75a6.11,6.11,0,0,1-.19-1.23c-.15-2.54-2.58-2.14-4.64-2.48-1.62-.27,2.66-4.35-.6-5.67a2.87,2.87,0,0,1-1.57-1.09,1.85,1.85,0,0,1,.71-2.26,4.38,4.38,0,0,1,2.47-.62c.53-.65.1-1.62-.41-2.28s-1.15-1.41-1-2.22c.29-1.23,2-1.27,3.25-1a9.12,9.12,0,0,0,.67-2.51c.22-.85.89-1.73,1.76-1.63s1.31,1,2.11,1.21,1.73-.6,2.46-1.22,2-1,2.5-.19c.3.49.12,1.17.43,1.65.55.82,1.83.31,2.62-.28s2.07-1.12,2.63-.3a3.45,3.45,0,0,1,.31.85c.38,1.09,1.55,1.63,2.47,2.33s1.64,2.08.86,2.93c-.38.42-1.05.59-1.24,1.12s.44,1.27,1,1.73c.9.77,1.07,3.06-.12,3.68-.5.27-1.23.35-1.36.9s.39.87.73,1.25a2.37,2.37,0,0,1-.73,3.52c-.28.14-.63.25-.74.55a1.08,1.08,0,0,0,.07.66,3.69,3.69,0,0,1,.11,1.28.57.57,0,0,1-.15.4.63.63,0,0,1-.38.11c-1.72.07-2.55-.54-3.59,1a1.45,1.45,0,0,1-.36.38,1.26,1.26,0,0,1-.48.12c-1.18.09-1.95-.64-3-.78-1.49-.19-1.81.58-3.13,1.2C146.77,188.77,145.77,188.16,145.38,186.75Z" style="fill:#ebebeb"></path><path d="M124.66,164.93a6.12,6.12,0,0,1-.19-1.22c-.15-2.55-2.58-2.15-4.65-2.49-1.61-.27,2.67-4.35-.59-5.67a2.84,2.84,0,0,1-1.57-1.09,1.85,1.85,0,0,1,.71-2.26,4.38,4.38,0,0,1,2.47-.62c.53-.64.1-1.62-.42-2.28s-1.14-1.4-.94-2.22c.29-1.23,2-1.27,3.25-1a9.48,9.48,0,0,0,.67-2.51c.22-.85.89-1.73,1.75-1.63s1.32,1,2.12,1.21,1.73-.6,2.46-1.22,2-1,2.5-.18c.3.48.12,1.16.43,1.64.54.83,1.83.31,2.62-.28s2.07-1.12,2.63-.3a3.45,3.45,0,0,1,.31.85c.37,1.09,1.55,1.63,2.46,2.33s1.65,2.08.87,2.93c-.38.42-1.05.59-1.24,1.13s.44,1.26,1,1.72c.9.77,1.07,3.06-.12,3.68-.5.27-1.24.35-1.36.9s.39.87.72,1.25a2.36,2.36,0,0,1-.72,3.52c-.28.14-.64.25-.74.55a1.12,1.12,0,0,0,.07.67,3.61,3.61,0,0,1,.11,1.27.57.57,0,0,1-.15.4.63.63,0,0,1-.38.11c-1.72.07-2.55-.54-3.6,1a1.27,1.27,0,0,1-.35.38,1.31,1.31,0,0,1-.48.12c-1.18.09-1.95-.64-3-.78-1.5-.19-1.81.58-3.13,1.2C126.05,167,125.05,166.35,124.66,164.93Z" style="fill:#ebebeb"></path><path d="M107.74,165.8a6.23,6.23,0,0,1-.19-1.23c-.15-2.54-2.58-2.14-4.64-2.49-1.62-.27,2.66-4.35-.6-5.66a2.89,2.89,0,0,1-1.57-1.1,1.83,1.83,0,0,1,.71-2.25,4.3,4.3,0,0,1,2.47-.62c.53-.65.1-1.62-.41-2.28s-1.15-1.41-1-2.22c.29-1.23,2-1.27,3.25-1a9.12,9.12,0,0,0,.67-2.51c.22-.84.89-1.73,1.76-1.62s1.31,1,2.11,1.21,1.73-.6,2.46-1.22,2-1,2.5-.19c.3.49.12,1.16.44,1.64.54.83,1.82.32,2.61-.27s2.07-1.12,2.63-.31a3.52,3.52,0,0,1,.31.86c.38,1.08,1.55,1.62,2.47,2.32s1.64,2.09.86,2.94c-.38.42-1,.59-1.24,1.12s.44,1.27,1,1.73c.9.76,1.07,3-.12,3.68-.5.26-1.23.34-1.36.89s.39.88.73,1.26a2.37,2.37,0,0,1-.73,3.52c-.28.14-.63.25-.74.55a1.09,1.09,0,0,0,.07.66,3.67,3.67,0,0,1,.11,1.28.59.59,0,0,1-.15.4.62.62,0,0,1-.38.1c-1.72.08-2.55-.53-3.59,1a1.1,1.1,0,0,1-.36.38,1,1,0,0,1-.48.12c-1.18.1-2-.64-3-.77-1.49-.2-1.81.58-3.13,1.2C109.13,167.81,108.13,167.21,107.74,165.8Z" style="fill:#ebebeb"></path><path d="M97.46,172.72a5.5,5.5,0,0,1-.18-1.23c-.15-2.54-2.58-2.14-4.65-2.48-1.62-.27,2.66-4.35-.6-5.67a2.87,2.87,0,0,1-1.57-1.09,1.86,1.86,0,0,1,.71-2.26,4.4,4.4,0,0,1,2.47-.62c.54-.65.1-1.62-.41-2.28s-1.14-1.41-1-2.22c.3-1.23,2-1.27,3.25-1a8.78,8.78,0,0,0,.67-2.51c.22-.85.89-1.73,1.76-1.63s1.31,1,2.11,1.21,1.73-.6,2.46-1.22,2-1,2.51-.19c.3.49.12,1.17.43,1.65.54.82,1.82.31,2.62-.28s2.06-1.12,2.62-.3a3.09,3.09,0,0,1,.31.85c.38,1.09,1.55,1.63,2.47,2.33s1.64,2.08.87,2.93c-.39.42-1.06.59-1.25,1.12s.45,1.27,1,1.73c.9.77,1.06,3.06-.13,3.68-.5.27-1.23.35-1.35.9s.39.87.72,1.25a2.37,2.37,0,0,1-.72,3.52c-.29.14-.64.25-.75.55a1.16,1.16,0,0,0,.07.66,3.47,3.47,0,0,1,.12,1.28.62.62,0,0,1-.16.4.61.61,0,0,1-.38.11c-1.71.07-2.54-.54-3.59,1a1.31,1.31,0,0,1-.36.38,1.26,1.26,0,0,1-.47.12c-1.18.09-1.95-.64-3-.78-1.5-.19-1.82.58-3.14,1.2C98.86,174.74,97.85,174.13,97.46,172.72Z" style="fill:#ebebeb"></path><path d="M148.6,173.47l-.3.55h0c-.39.74-1.17,2.17-2.24,3.87a47.73,47.73,0,0,1-3.84,5.32,20.57,20.57,0,0,1-5.78,5.05q-.51.27-1,.57c-5.95,3.71-9.77,11.33-10.08,13.41-.23,1.48-.73,36.4-1,59-.07,5.07-.13,9.52-.18,12.84H113.93c0-3.82,0-9.07,0-15,.15-14.46.74-33.07,2.63-45.55-.11-.64-.21-1.37-.32-2.21-1-7.94-8.42-19.95-9.9-21.87-.43-.56-1.1-1.47-1.82-2.48-1.79-2.46-4-5.53-4-5.53l.88-1.33,4.13,4.56,2.84,3.15L107,183.27l-1.16-3.64-.07-.24-.21-.27-1.41-1.81-1.55-2-1.33-1.72-.68-.86.88-.74.86.93,1.05,1.15,3,3.25.17-1.66.24-2.33,0-.48.17-1.64h0l.08-.72.16-1.6h2s-.19.69-.43,1.78c-.1.46-.21,1-.32,1.6h0c-.61,3.14-1.18,7.68-.15,9.95,0,0,1.17,2.65,2.82,6h0c2.34,4.86,5.67,11.18,7.86,13.15a3.53,3.53,0,0,1,.54.66,38.84,38.84,0,0,1,4.3-8.07c-.73-1.85-1.85-4.78-2.94-7.81h0c-1.11-3.12-2.19-6.32-2.72-8.54-.31-1.28-.58-2.5-.8-3.62-.8-4-1.08-6.76-1.08-6.76l1.46-.79s.11.57.31,1.54c.16.74.38,1.7.65,2.82s.58,2.31.95,3.62c.05.22.12.43.18.65h0l.5,1.69a67.43,67.43,0,0,0,3.42,9.13,27.11,27.11,0,0,0,2.87,4.85,22.67,22.67,0,0,1,5.67-3.8,17.61,17.61,0,0,0,.33-3.42c0-.45,0-.93,0-1.44s-.06-.95-.1-1.47a43.42,43.42,0,0,0-1.07-6.13l1.12-1a36.22,36.22,0,0,1,1.9,7.56.45.45,0,0,1,0,.11,26.7,26.7,0,0,1,.27,4.43v.18a20.65,20.65,0,0,0,2.48-1.46,25.51,25.51,0,0,0,3.34-2.87h0a38.23,38.23,0,0,0,3.44-4.07c.73-1,1.32-1.88,1.75-2.55s.79-1.32.79-1.32Z" style="fill:#e6e6e6"></path><path d="M210.34,210.33a5.5,5.5,0,0,1-.18-1.23c-.16-2.54-2.59-2.14-4.65-2.48-1.62-.27,2.66-4.35-.6-5.67a2.87,2.87,0,0,1-1.57-1.09,1.86,1.86,0,0,1,.71-2.26,4.4,4.4,0,0,1,2.47-.62c.53-.65.1-1.62-.41-2.28s-1.15-1.41-1-2.22c.29-1.23,2-1.27,3.25-1a8.78,8.78,0,0,0,.67-2.51c.22-.85.89-1.73,1.76-1.63s1.31,1,2.11,1.21,1.73-.6,2.46-1.22,2-1,2.5-.19c.3.49.12,1.17.44,1.65.54.82,1.82.31,2.62-.28s2.06-1.12,2.62-.3a3.45,3.45,0,0,1,.31.85c.38,1.09,1.55,1.63,2.47,2.33s1.64,2.08.86,2.93c-.38.42-1,.59-1.24,1.13s.45,1.26,1,1.72c.9.77,1.06,3.06-.13,3.68-.5.27-1.23.35-1.35.9s.39.87.72,1.25a2.37,2.37,0,0,1-.73,3.52c-.28.14-.63.25-.74.55a1.16,1.16,0,0,0,.07.66,3.26,3.26,0,0,1,.11,1.28.57.57,0,0,1-.15.4.61.61,0,0,1-.38.11c-1.72.07-2.54-.54-3.59,1a1.31,1.31,0,0,1-.36.38,1.26,1.26,0,0,1-.47.12c-1.18.09-2-.64-3-.78-1.49-.19-1.81.58-3.13,1.2C211.74,212.35,210.73,211.75,210.34,210.33Z" style="fill:#ebebeb"></path><path d="M230.12,208.19a5.5,5.5,0,0,1-.18-1.22c-.15-2.55-2.58-2.14-4.65-2.49-1.62-.27,2.66-4.35-.6-5.66a2.94,2.94,0,0,1-1.57-1.1,1.86,1.86,0,0,1,.71-2.26,4.4,4.4,0,0,1,2.47-.62c.54-.64.1-1.61-.41-2.27s-1.14-1.41-.95-2.23c.3-1.22,2-1.27,3.25-1a8.78,8.78,0,0,0,.67-2.51c.22-.84.89-1.73,1.76-1.62s1.31,1,2.11,1.2,1.73-.6,2.46-1.21,2-1,2.51-.19c.3.48.12,1.16.43,1.64.54.83,1.82.31,2.62-.27s2.06-1.12,2.62-.31a3.21,3.21,0,0,1,.31.85c.38,1.09,1.55,1.63,2.47,2.33s1.64,2.08.87,2.93c-.39.42-1.06.59-1.25,1.13s.45,1.27,1,1.72c.9.77,1.06,3.06-.13,3.69-.5.26-1.23.34-1.35.89s.39.88.72,1.26a2.37,2.37,0,0,1-.72,3.52c-.29.13-.64.24-.75.54a1.19,1.19,0,0,0,.07.67,3.4,3.4,0,0,1,.12,1.27.47.47,0,0,1-.54.51c-1.71.07-2.54-.53-3.59,1a1.31,1.31,0,0,1-.36.38,1.09,1.09,0,0,1-.47.12c-1.18.1-1.95-.64-3-.78-1.5-.19-1.82.58-3.14,1.2C231.52,210.21,230.51,209.61,230.12,208.19Z" style="fill:#ebebeb"></path><path d="M232,195.6a6.23,6.23,0,0,1-.19-1.23c-.15-2.55-2.58-2.14-4.64-2.49-1.62-.27,2.66-4.35-.6-5.66a2.89,2.89,0,0,1-1.57-1.1,1.83,1.83,0,0,1,.71-2.25,4.3,4.3,0,0,1,2.47-.62c.53-.65.1-1.62-.41-2.28s-1.15-1.41-1-2.22c.29-1.23,2-1.28,3.25-1a9.12,9.12,0,0,0,.67-2.51c.22-.84.89-1.73,1.76-1.62s1.31,1,2.11,1.21,1.73-.61,2.46-1.22,2-1,2.5-.19c.3.49.12,1.16.44,1.64.54.83,1.82.32,2.61-.27s2.07-1.12,2.63-.31a3.6,3.6,0,0,1,.31.85c.38,1.09,1.55,1.63,2.47,2.33s1.64,2.08.86,2.94c-.38.41-1,.58-1.24,1.12s.44,1.27,1,1.73c.9.76,1.07,3.05-.12,3.68-.5.26-1.23.34-1.36.89s.39.88.73,1.26a2.37,2.37,0,0,1-.73,3.52c-.28.13-.63.25-.74.54a1.11,1.11,0,0,0,.07.67,3.63,3.63,0,0,1,.11,1.27.55.55,0,0,1-.15.4.63.63,0,0,1-.38.11c-1.72.08-2.55-.53-3.59,1a1.1,1.1,0,0,1-.36.38,1,1,0,0,1-.48.12c-1.18.1-1.95-.64-3-.78-1.49-.19-1.81.59-3.13,1.21C233.42,197.61,232.42,197,232,195.6Z" style="fill:#ebebeb"></path><path d="M245.06,201.87a6.11,6.11,0,0,1-.19-1.23c-.15-2.54-2.58-2.14-4.64-2.48-1.62-.27,2.66-4.35-.6-5.67a2.87,2.87,0,0,1-1.57-1.09,1.86,1.86,0,0,1,.71-2.26,4.38,4.38,0,0,1,2.47-.62c.53-.65.1-1.62-.41-2.28s-1.15-1.41-1-2.22c.29-1.23,2-1.27,3.25-1a8.78,8.78,0,0,0,.67-2.51c.22-.85.89-1.73,1.76-1.63s1.31,1,2.11,1.21,1.73-.6,2.46-1.22,2-1,2.5-.19c.3.49.12,1.17.44,1.65.54.82,1.82.31,2.62-.28s2.06-1.12,2.62-.3a3.45,3.45,0,0,1,.31.85c.38,1.09,1.55,1.63,2.47,2.33s1.64,2.08.86,2.93c-.38.42-1.05.59-1.24,1.12s.44,1.27,1,1.73c.9.77,1.07,3.06-.12,3.68-.5.27-1.23.35-1.36.9s.39.87.73,1.25a2.37,2.37,0,0,1-.73,3.52c-.28.14-.63.25-.74.55a1.16,1.16,0,0,0,.07.66,3.69,3.69,0,0,1,.11,1.28.59.59,0,0,1-.15.4.63.63,0,0,1-.38.11c-1.72.07-2.54-.54-3.59,1a1.31,1.31,0,0,1-.36.38,1.26,1.26,0,0,1-.48.12c-1.18.09-1.95-.64-3-.78-1.49-.19-1.81.58-3.13,1.2C246.46,203.89,245.45,203.28,245.06,201.87Z" style="fill:#ebebeb"></path><path d="M258.23,199a6.12,6.12,0,0,1-.19-1.22c-.15-2.55-2.58-2.15-4.64-2.49-1.62-.27,2.66-4.35-.6-5.67a2.87,2.87,0,0,1-1.57-1.09,1.86,1.86,0,0,1,.71-2.26,4.38,4.38,0,0,1,2.47-.62c.53-.64.1-1.62-.41-2.27s-1.15-1.41-.95-2.23c.29-1.22,2-1.27,3.25-1a8.78,8.78,0,0,0,.67-2.51c.22-.85.89-1.73,1.76-1.62s1.31,1,2.11,1.2,1.73-.6,2.46-1.21,2-1,2.5-.19c.3.48.12,1.16.44,1.64.54.83,1.82.31,2.62-.28s2.06-1.12,2.62-.3a3.45,3.45,0,0,1,.31.85c.38,1.09,1.55,1.63,2.47,2.33s1.64,2.08.86,2.93c-.38.42-1.05.59-1.24,1.13s.44,1.26,1,1.72c.9.77,1.07,3.06-.12,3.68-.5.27-1.23.35-1.36.9s.39.87.73,1.25a2.36,2.36,0,0,1-.73,3.52c-.28.14-.63.25-.74.55a1.11,1.11,0,0,0,.07.67,3.61,3.61,0,0,1,.11,1.27.55.55,0,0,1-.15.4.63.63,0,0,1-.38.11c-1.72.07-2.55-.53-3.59,1a1.31,1.31,0,0,1-.36.38,1.26,1.26,0,0,1-.48.12c-1.18.1-1.95-.64-3-.78-1.49-.19-1.81.58-3.13,1.2C259.63,201,258.62,200.39,258.23,199Z" style="fill:#ebebeb"></path><path d="M258.4,213.06a4.52,4.52,0,0,1-.14-1c-.12-2-2-1.68-3.66-2-1.28-.22,2.09-3.43-.47-4.46a2.25,2.25,0,0,1-1.24-.87,1.45,1.45,0,0,1,.56-1.77,3.36,3.36,0,0,1,2-.49c.41-.51.07-1.28-.33-1.79s-.9-1.11-.75-1.75c.23-1,1.58-1,2.56-.82a7.14,7.14,0,0,0,.53-2c.17-.66.7-1.36,1.38-1.27s1,.8,1.67.95,1.36-.48,1.93-1,1.58-.79,2-.15c.24.38.1.92.35,1.29.42.65,1.43.25,2.06-.21s1.62-.89,2.07-.24a2.8,2.8,0,0,1,.24.67c.3.85,1.22,1.28,1.94,1.83s1.29,1.64.68,2.31c-.3.33-.83.46-1,.89s.35,1,.78,1.36c.71.6.84,2.4-.1,2.89-.39.21-1,.27-1.07.71s.31.69.57,1a1.85,1.85,0,0,1-.57,2.77c-.22.11-.5.19-.58.43a.85.85,0,0,0,.05.52,2.87,2.87,0,0,1,.09,1,.43.43,0,0,1-.12.31.44.44,0,0,1-.3.08c-1.35.06-2-.41-2.83.76a.9.9,0,0,1-.28.3.93.93,0,0,1-.37.1c-.93.07-1.54-.51-2.39-.62-1.18-.15-1.43.46-2.47.95C259.5,214.65,258.71,214.17,258.4,213.06Z" style="fill:#ebebeb"></path><path d="M265.78,208.19a5.5,5.5,0,0,1-.18-1.22c-.16-2.55-2.59-2.14-4.65-2.49-1.62-.27,2.66-4.35-.6-5.66a2.94,2.94,0,0,1-1.57-1.1,1.86,1.86,0,0,1,.71-2.26,4.4,4.4,0,0,1,2.47-.62c.53-.64.1-1.61-.41-2.27s-1.15-1.41-.95-2.23c.29-1.22,2-1.27,3.25-1a8.78,8.78,0,0,0,.67-2.51c.22-.84.89-1.73,1.76-1.62s1.31,1,2.11,1.2,1.73-.6,2.46-1.21,2-1,2.5-.19c.3.48.12,1.16.44,1.64.54.83,1.82.31,2.62-.27s2.06-1.12,2.62-.31a3.6,3.6,0,0,1,.31.85c.38,1.09,1.55,1.63,2.47,2.33s1.64,2.08.86,2.93c-.38.42-1.05.59-1.24,1.13s.45,1.27,1,1.72c.9.77,1.06,3.06-.13,3.69-.5.26-1.23.34-1.35.89s.39.88.72,1.26a2.37,2.37,0,0,1-.73,3.52c-.28.13-.63.24-.74.54a1.19,1.19,0,0,0,.07.67,3.39,3.39,0,0,1,.11,1.27.55.55,0,0,1-.15.4.61.61,0,0,1-.38.11c-1.72.07-2.54-.53-3.59,1a1.31,1.31,0,0,1-.36.38,1.09,1.09,0,0,1-.47.12c-1.18.1-2-.64-3-.78-1.49-.19-1.81.58-3.13,1.2C267.18,210.21,266.17,209.61,265.78,208.19Z" style="fill:#ebebeb"></path><path d="M245.06,186.38a6.23,6.23,0,0,1-.19-1.23c-.15-2.55-2.58-2.14-4.64-2.49-1.62-.27,2.66-4.35-.6-5.66a2.89,2.89,0,0,1-1.57-1.1,1.86,1.86,0,0,1,.71-2.26,4.46,4.46,0,0,1,2.47-.62c.53-.64.1-1.61-.41-2.27s-1.15-1.41-1-2.23c.29-1.22,2-1.27,3.25-1a8.78,8.78,0,0,0,.67-2.51c.22-.84.89-1.73,1.76-1.62s1.31,1,2.11,1.21,1.73-.61,2.46-1.22,2-1,2.5-.19c.3.48.12,1.16.44,1.64.54.83,1.82.31,2.62-.27s2.06-1.12,2.62-.31a3.6,3.6,0,0,1,.31.85c.38,1.09,1.55,1.63,2.47,2.33s1.64,2.08.86,2.93c-.38.42-1.05.59-1.24,1.13s.44,1.27,1,1.73c.9.76,1.07,3.05-.12,3.68-.5.26-1.23.34-1.36.89s.39.88.73,1.26a2.37,2.37,0,0,1-.73,3.52c-.28.13-.63.25-.74.54a1.19,1.19,0,0,0,.07.67,3.63,3.63,0,0,1,.11,1.27.55.55,0,0,1-.15.4.63.63,0,0,1-.38.11c-1.72.08-2.54-.53-3.59,1a1.19,1.19,0,0,1-.36.38,1.1,1.1,0,0,1-.48.12c-1.18.1-1.95-.64-3-.78-1.49-.19-1.81.58-3.13,1.2C246.46,188.39,245.45,187.79,245.06,186.38Z" style="fill:#ebebeb"></path><path d="M228.14,187.24A5.5,5.5,0,0,1,228,186c-.16-2.54-2.58-2.14-4.65-2.48-1.62-.27,2.66-4.35-.6-5.67a2.87,2.87,0,0,1-1.57-1.09,1.86,1.86,0,0,1,.71-2.26,4.4,4.4,0,0,1,2.47-.62c.53-.65.1-1.62-.41-2.28s-1.15-1.41-.95-2.22c.29-1.23,2-1.27,3.25-1a8.78,8.78,0,0,0,.67-2.51c.22-.85.89-1.73,1.76-1.63s1.31,1,2.11,1.21,1.73-.6,2.46-1.22,2-1,2.5-.19c.3.49.13,1.17.44,1.64.54.83,1.82.32,2.62-.27s2.06-1.12,2.62-.3a3.45,3.45,0,0,1,.31.85c.38,1.09,1.55,1.63,2.47,2.32s1.64,2.09.86,2.94c-.38.42-1.05.59-1.24,1.12s.45,1.27,1,1.73c.9.77,1.06,3.06-.13,3.68-.5.26-1.23.35-1.35.9s.39.87.72,1.25a2.37,2.37,0,0,1-.73,3.52c-.28.14-.63.25-.74.55a1.16,1.16,0,0,0,.07.66,3.26,3.26,0,0,1,.11,1.28.59.59,0,0,1-.15.4.6.6,0,0,1-.38.1c-1.72.08-2.54-.53-3.59,1a1.31,1.31,0,0,1-.36.38,1.26,1.26,0,0,1-.47.12c-1.18.09-2-.64-3-.78-1.49-.19-1.81.58-3.13,1.2C229.54,189.26,228.53,188.65,228.14,187.24Z" style="fill:#ebebeb"></path><path d="M217.86,194.16a7,7,0,0,1-.18-1.22c-.15-2.55-2.58-2.14-4.65-2.49-1.61-.27,2.66-4.35-.59-5.66a2.86,2.86,0,0,1-1.57-1.1,1.85,1.85,0,0,1,.7-2.26,4.41,4.41,0,0,1,2.48-.62c.53-.64.1-1.61-.42-2.27s-1.14-1.41-.95-2.23c.3-1.22,2-1.27,3.25-1a8.78,8.78,0,0,0,.67-2.51c.23-.84.9-1.73,1.76-1.62s1.31,1,2.11,1.2,1.74-.6,2.46-1.21,2-1,2.51-.19c.3.48.12,1.16.43,1.64.54.83,1.82.31,2.62-.27s2.07-1.12,2.63-.31a3.19,3.19,0,0,1,.3.85c.38,1.09,1.56,1.63,2.47,2.33s1.64,2.08.87,2.93c-.38.42-1.06.59-1.25,1.13s.45,1.27,1,1.72c.9.77,1.06,3.06-.13,3.69-.5.26-1.23.34-1.35.89s.39.88.72,1.26a2.37,2.37,0,0,1-.72,3.52c-.29.13-.64.24-.74.54a1.11,1.11,0,0,0,.06.67,3.4,3.4,0,0,1,.12,1.27.47.47,0,0,1-.53.51c-1.72.07-2.55-.53-3.6,1a1.19,1.19,0,0,1-.36.38,1.09,1.09,0,0,1-.47.12c-1.18.1-1.95-.64-3-.78-1.5-.19-1.82.58-3.13,1.2C219.26,196.18,218.25,195.58,217.86,194.16Z" style="fill:#ebebeb"></path><path d="M269,194.91s-.1.21-.29.56-.4.76-.7,1.3-.75,1.3-1.23,2.06l-.31.52-.35.55-.41.61c-.08.12-.16.25-.25.37l-.07.11c-.16.23-.31.46-.48.69s-.33.48-.51.72l-.34.45c-.15.2-.3.41-.46.61s-.39.49-.59.74l-.15.19c-.08.09-.15.19-.23.27a20.7,20.7,0,0,1-5.79,5c-.34.19-.68.37-1,.58s-.85.56-1.26.86a27.52,27.52,0,0,0-6.57,7.53h0l-.26.45,0,0c-.22.38-.42.76-.61,1.12a13,13,0,0,0-1.35,3.42c-.05.31-.12,2.11-.18,5-.12,5.33-.28,14.34-.43,24.25q0,1.29,0,2.61l0,1.69c-.09,5.64-.16,11.45-.24,16.92H234.44c.15-8.31.48-17.4,1.1-25.65.36-4.89.83-9.49,1.44-13.47-.1-.64-.21-1.36-.32-2.21,0-.11,0-.22,0-.33a29,29,0,0,0-1.47-5.48v0c-.19-.53-.4-1.07-.61-1.6-.05-.11-.09-.23-.14-.34l-.33-.8c-.15-.33-.29-.67-.44-1-.05-.12-.11-.23-.16-.36h0l-.63-1.33-.33-.67h0c-.89-1.83-1.83-3.56-2.68-5.05-.17-.28-.32-.55-.47-.81-1.12-1.91-2-3.33-2.52-4,0,0,0-.07-.07-.09a.94.94,0,0,0-.09-.12c-.41-.54-1-1.33-1.63-2.21l-.09-.13-.59-.81c-.16-.21-.32-.44-.47-.65s-.34-.47-.49-.7c-.83-1.13-1.57-2.17-2-2.8l-.41-.58.69-1,.2-.29,1.19,1.31h0l2.94,3.25,2.83,3.14-1.44-4.57-1-3.21-.14-.43-.07-.24-.22-.29-1.4-1.79h0l-1.55-2L221.66,195l-.68-.87.89-.74.86.93,1.05,1.15,3,3.26.18-1.66.23-2.33.05-.48.17-1.63h0l.08-.73.16-1.61h2s-.19.69-.43,1.78c-.1.47-.21,1-.33,1.61h0a35,35,0,0,0-.7,6.73,8.67,8.67,0,0,0,.56,3.21s1.17,2.65,2.82,6h0c0,.06.05.11.07.16h0c.19.37.37.73.55,1.1.36.73.73,1.48,1.13,2.23s.74,1.44,1.13,2.14.69,1.26,1,1.86a42,42,0,0,0,2.37,3.77l.2.3c.2.26.39.49.57.71a8.86,8.86,0,0,0,.81.87l.11.11a2.84,2.84,0,0,1,.43.54c.1-.24.2-.47.29-.7a.5.5,0,0,0,.05-.13c.67-1.55,1.34-2.92,2-4.13.27-.48.53-.93.8-1.36h0l.12-.18a.38.38,0,0,0,.06-.13c.33-.51.64-1,1-1.43a1,1,0,0,0-.09-.21l-.88-2.31h0c-.17-.43-.33-.87-.51-1.34h0c-.47-1.23-1-2.58-1.46-3.94h0c-1.1-3.11-2.18-6.32-2.72-8.54-.3-1.28-.57-2.5-.8-3.62-.79-4-1.08-6.75-1.08-6.75l1.46-.79s.11.57.31,1.54c.16.73.38,1.7.66,2.82s.58,2.3.93,3.61h0c.06.22.13.43.19.65h0c.15.56.31,1.12.5,1.69a67.43,67.43,0,0,0,3.42,9.13A26.88,26.88,0,0,0,247,212.2a20.78,20.78,0,0,1,4.93-3.41c.24-.14.49-.26.73-.38A17.92,17.92,0,0,0,253,205h0c0-.44,0-.92,0-1.42s-.06-1-.1-1.47-.1-1-.18-1.53a41.53,41.53,0,0,0-.88-4.6l1.12-1a33.1,33.1,0,0,1,1.18,3.89,36.21,36.21,0,0,1,.72,3.67s0,.08,0,.11a26.69,26.69,0,0,1,.27,4.44v.17a20,20,0,0,0,2.47-1.46,23.93,23.93,0,0,0,2.93-2.47l.41-.4a35.12,35.12,0,0,0,2.82-3.25c.23-.28.44-.57.63-.83.36-.49.69-.94,1-1.36s.36-.53.52-.77h0l.26-.41c.52-.81.79-1.32.79-1.32Z" style="fill:#e6e6e6"></path><rect x="126.2" y="106.46" width="2.79" height="170.88" style="fill:#e0e0e0"></rect><rect x="178.67" y="106.46" width="2.79" height="170.88" style="fill:#e0e0e0"></rect><rect x="231.14" y="106.46" width="2.79" height="170.88" style="fill:#e0e0e0"></rect><circle cx="369.54" cy="129.6" r="23.55" transform="translate(158.5 459.48) rotate(-76.72)" style="fill:#e0e0e0"></circle><circle cx="369.54" cy="129.6" r="20.03" transform="translate(182.42 473.61) rotate(-80.78)" style="fill:#f0f0f0"></circle><polyline points="368.59 115.86 368.59 129.86 359.31 124.61" style="fill:#f0f0f0"></polyline><path d="M368.59,130.86a1,1,0,0,1-.49-.13l-9.28-5.25a1,1,0,0,1-.37-1.36,1,1,0,0,1,1.36-.38l7.78,4.41V115.86a1,1,0,0,1,2,0v14a1,1,0,0,1-1,1Z" style="fill:#e0e0e0"></path></g><g id="freepik--Shadow--inject-1"><ellipse id="freepik--path--inject-1" cx="250" cy="416.24" rx="193.89" ry="11.32" style="fill:#f5f5f5"></ellipse></g><g id="freepik--Furniture--inject-1"><path d="M326.84,257.26h-11a1.18,1.18,0,0,1-1.19-1.27l1.47-21.64a1.39,1.39,0,0,1,1.36-1.27h11a1.18,1.18,0,0,1,1.2,1.27L328.21,256A1.39,1.39,0,0,1,326.84,257.26Z" style="fill:#263238"></path><path d="M325.75,257.26h-11a1.18,1.18,0,0,1-1.19-1.27L315,234.35a1.39,1.39,0,0,1,1.37-1.27h11a1.18,1.18,0,0,1,1.2,1.27L327.12,256A1.39,1.39,0,0,1,325.75,257.26Z" style="fill:#263238"></path><path d="M325.75,257.26h-11a1.18,1.18,0,0,1-1.19-1.27L315,234.35a1.39,1.39,0,0,1,1.37-1.27h11a1.18,1.18,0,0,1,1.2,1.27L327.12,256A1.39,1.39,0,0,1,325.75,257.26Z" style="fill:#fff;opacity:0.2;isolation:isolate"></path><path d="M327.13,233.93h-2a.62.62,0,0,0-.49.23l-.38.46a.67.67,0,0,1-.5.24h-4a.55.55,0,0,1-.46-.24l-.32-.46a.57.57,0,0,0-.47-.23h-1.95a.69.69,0,0,0-.68.63l-1.44,21.23a.58.58,0,0,0,.59.62H325.6a.69.69,0,0,0,.68-.62l1.44-21.24A.58.58,0,0,0,327.13,233.93Z" style="fill:#FF4840"></path><g style="opacity:0.5"><path d="M322.88,245.54a.36.36,0,0,0-.34-.35.18.18,0,0,1-.17-.21l.08-1a1.6,1.6,0,0,0-1.37-1.87,1.85,1.85,0,0,0-1.69,1.81l-.07,1.06a.22.22,0,0,1-.2.21h0a.41.41,0,0,0-.39.35.38.38,0,0,0,.31.51h3.45A.45.45,0,0,0,322.88,245.54Z" style="fill:#fff"></path><path d="M320.31,246.31a.44.44,0,0,0,.4.51.52.52,0,0,0,.47-.51Z" style="fill:#fff"></path></g><path d="M323.61,241.51a3.17,3.17,0,0,0-5,0,4.77,4.77,0,0,0-.44,5.92,3.17,3.17,0,0,0,5,0A4.76,4.76,0,0,0,323.61,241.51ZM318.53,247a4.12,4.12,0,0,1,.37-5.12,2.75,2.75,0,0,1,4.34,0,4.13,4.13,0,0,1-.38,5.12A2.74,2.74,0,0,1,318.53,247Z" style="fill:#fff"></path><polygon points="318.43 247.45 318.16 247.1 323.34 241.48 323.61 241.83 318.43 247.45" style="fill:#fff"></polygon><path d="M332.63,256.74v7.57H306.12v-7.57a1.47,1.47,0,0,1,1.47-1.47h23.57A1.47,1.47,0,0,1,332.63,256.74Z" style="fill:#263238"></path><path d="M323.63,256.74v7.57H306.12v-7.57a1.47,1.47,0,0,1,1.47-1.47h14.57A1.47,1.47,0,0,1,323.63,256.74Z" style="fill:#fff;opacity:0.2;isolation:isolate"></path><polygon points="351.42 236.72 348.98 264.69 384.44 264.69 386.35 264.69 388.8 236.72 386.89 236.72 351.42 236.72" style="fill:#FF4840"></polygon><polygon points="427.62 219.42 391.99 219.42 390.29 219.42 394.25 264.6 395.95 264.6 431.57 264.6 427.62 219.42" style="fill:#FF4840"></polygon><polygon points="384.44 264.69 386.89 236.72 351.42 236.72 348.98 264.69 384.44 264.69" style="fill:#fff;opacity:0.2;isolation:isolate"></polygon><polygon points="381.08 261.83 383.02 239.57 354.79 239.57 352.84 261.83 381.08 261.83" style="opacity:0.2;isolation:isolate"></polygon><polygon points="378.91 260 380.54 241.41 356.95 241.41 355.33 260 378.91 260" style="fill:#fafafa"></polygon><polygon points="395.95 264.6 431.57 264.6 427.62 219.42 391.99 219.42 395.95 264.6" style="fill:#fff;opacity:0.2;isolation:isolate"></polygon><polygon points="399.18 259.99 427.54 259.99 424.39 224.03 396.03 224.03 399.18 259.99" style="opacity:0.2;isolation:isolate"></polygon><polygon points="401.25 257.03 424.94 257.03 422.31 226.99 398.62 226.99 401.25 257.03" style="fill:#fafafa"></polygon><path d="M413.22,240.5h0a4.12,4.12,0,0,1-5.83,0h0a4.12,4.12,0,0,1,0-5.83h0a4.14,4.14,0,0,1,5.83,0h0A4.12,4.12,0,0,1,413.22,240.5Z" style="fill:#e0e0e0"></path><path d="M411.47,245.55h0a3,3,0,0,1,4.27,0h0a3,3,0,0,1-2.13,5.15h0A3,3,0,0,1,411.47,245.55Z" style="fill:#e0e0e0"></path><path d="M377.2,250.47a5.81,5.81,0,1,1-5.81-5.8A5.81,5.81,0,0,1,377.2,250.47Z" style="fill:#e0e0e0"></path><rect x="324.78" y="264.31" width="119.74" height="155.2" rx="3.98" style="fill:#FF4840"></rect><rect x="294.78" y="264.31" width="119.74" height="155.2" rx="3.98" style="fill:#FF4840"></rect><rect x="294.78" y="264.31" width="119.74" height="155.2" rx="3.98" style="fill:#fff;opacity:0.4;isolation:isolate"></rect><rect x="299.66" y="298.15" width="109.98" height="56.03" style="fill:#fff;opacity:0.5;isolation:isolate"></rect><rect x="299.66" y="357.91" width="109.98" height="56.03" style="fill:#fff;opacity:0.5;isolation:isolate"></rect><rect x="299.66" y="269.88" width="109.98" height="24.53" style="fill:#fff;opacity:0.5;isolation:isolate"></rect><path d="M363.64,274h-18a2.9,2.9,0,0,1-2.59-1.61l-1.2-2.47h25.58l-1.21,2.47A2.89,2.89,0,0,1,363.64,274Z" style="opacity:0.5;isolation:isolate"></path><path d="M363.64,302.23h-18a2.89,2.89,0,0,1-2.59-1.62l-1.2-2.46h25.58l-1.21,2.46A2.88,2.88,0,0,1,363.64,302.23Z" style="opacity:0.5;isolation:isolate"></path><path d="M363.64,362h-18a2.89,2.89,0,0,1-2.59-1.62l-1.2-2.46h25.58l-1.21,2.46A2.88,2.88,0,0,1,363.64,362Z" style="opacity:0.5;isolation:isolate"></path></g><g id="freepik--speech-bubble--inject-1"><polygon points="301.21 205.32 321.41 228.45 309.6 205.32 301.21 205.32" style="fill:#FF4840"></polygon><polygon points="301.21 205.32 321.41 228.45 309.6 205.32 301.21 205.32" style="fill:#fff;opacity:0.7000000000000001;isolation:isolate"></polygon><rect x="247.43" y="163.26" width="116.63" height="45.7" rx="9.82" style="fill:#FF4840"></rect><rect x="247.43" y="163.26" width="116.63" height="45.7" rx="7.7" style="fill:#fff;opacity:0.7000000000000001;isolation:isolate"></rect><path d="M273.94,186.71,288.12,189v-1.62a1.31,1.31,0,0,0-.88-1.24l-5.48-1.88v-1.3h-.94v1l-2.7-.93v-1.39h-.95v1.07l-3.23-1.12c0-3.86-.12-7.35-.12-7.35s-.76-3.21-1.66-3.21-1.67,3.21-1.67,3.21-.09,3.49-.12,7.35l-3.23,1.12v-1.07h-.94V183l-2.7.93v-1h-.95v1.3l-5.48,1.88a1.33,1.33,0,0,0-.88,1.24V189l14.18-2.26c0,1.47.05,2.77.12,3.67.09,1.16.43,3.46.75,5.48l-4.1,3.5v1.89l4.72-1.64v0a.3.3,0,0,0,.59,0v0l4.71,1.64v-1.89l-4.09-3.5c.32-2,.66-4.32.74-5.48C273.89,189.48,273.93,188.18,273.94,186.71Z" style="fill:#FF4840"></path><rect x="303.74" y="171.93" width="51.12" height="28.36" rx="3.75" style="fill:#FF4840"></rect><rect x="327.67" y="173.02" width="26.18" height="26.18" rx="3.46" style="fill:#fff;opacity:0.7000000000000001;isolation:isolate"></rect><g style="opacity:0.4;isolation:isolate"><path d="M308,185.57a3.58,3.58,0,1,1,3.57,3.41A3.39,3.39,0,0,1,308,185.57Zm5.91,0a2.34,2.34,0,1,0-2.34,2.33A2.27,2.27,0,0,0,313.9,185.57Z" style="fill:#fff"></path><path d="M322.36,182.24v6.65h-1l-3.66-4.5v4.5h-1.22v-6.65h1l3.67,4.5v-4.5Z" style="fill:#fff"></path></g><rect x="329.2" y="174.44" width="23.56" height="12.76" rx="2.08" style="fill:#fff;opacity:0.7000000000000001;isolation:isolate"></rect></g><g id="freepik--Character--inject-1"><rect x="183" y="329.61" width="83.49" height="70.61" rx="11.63" transform="translate(449.48 729.83) rotate(180)" style="fill:#263238"></rect><rect x="183" y="329.61" width="83.49" height="70.61" rx="11.63" transform="translate(449.48 729.83) rotate(180)" style="fill:#fff;opacity:0.1;isolation:isolate"></rect><path d="M254.86,400.22h0a11.63,11.63,0,0,0,11.63-11.62V341.24a11.63,11.63,0,0,0-11.63-11.63h0a11.63,11.63,0,0,0-11.63,11.63V388.6A11.63,11.63,0,0,0,254.86,400.22Z" style="fill:#fff;opacity:0.2;isolation:isolate"></path><path d="M201.21,353.05h-123L59.48,256.27a17.15,17.15,0,0,1,16.83-20.41h88.06a17.14,17.14,0,0,1,16.83,13.89Z" style="fill:#263238"></path><g style="opacity:0.1;isolation:isolate"><path d="M201.21,353.05h-123L59.48,256.27a17.15,17.15,0,0,1,16.83-20.41h88.06a17.14,17.14,0,0,1,16.83,13.89Z" style="fill:#fff"></path></g><path d="M201.21,352.87H113.15l-20-103.21a17.07,17.07,0,0,0-16.84-13.79h88.06a17.06,17.06,0,0,1,16.83,13.79Z" style="fill:#fff;opacity:0.2;isolation:isolate"></path><g id="freepik--group--inject-1"><path d="M290.46,305.2a1.24,1.24,0,0,0,.43.33l.07,2.88,1.11-.09-.08-2.86.07,0a1.14,1.14,0,1,0-1.37-1.81A1.14,1.14,0,0,0,290.46,305.2Z" style="fill:#FF4840"></path><path d="M292.73,312.58c0,.38,2,8.91,2,8.91l2.63,1.89,2.05-.5,1.21-2.14-1.21-11.67Z" style="fill:#FF4840"></path><polygon points="289.96 312.96 288.71 321.49 287.37 323.38 284.69 322.75 283.69 320.74 284.44 310.2 289.96 312.96" style="fill:#FF4840"></polygon><path d="M292.73,312.58c0,.38,2,8.91,2,8.91l2.63,1.89,2.05-.5,1.21-2.14-1.21-11.67Z" style="fill:#fff;opacity:0.5;isolation:isolate"></path><polygon points="289.96 312.96 288.71 321.49 287.37 323.38 284.69 322.75 283.69 320.74 284.44 310.2 289.96 312.96" style="fill:#fff;opacity:0.5;isolation:isolate"></polygon><polygon points="296.68 324.88 296.68 349.36 308.42 349.36 300.63 324.88 296.68 324.88" style="fill:#FF4840"></polygon><polygon points="287.37 323.38 288.96 349.36 279.04 349.36 284 324.29 287.37 323.38" style="fill:#FF4840"></polygon><polygon points="296.68 324.88 296.68 349.36 308.42 349.36 300.63 324.88 296.68 324.88" style="opacity:0.2;isolation:isolate"></polygon><polygon points="287.37 323.38 288.96 349.36 279.04 349.36 284 324.29 287.37 323.38" style="opacity:0.2;isolation:isolate"></polygon><polygon points="283.69 306.98 299.42 306.98 299.42 310.39 293.73 312.58 293.4 315.34 288.71 315.34 287.37 312.58 283.69 311.16 283.69 306.98" style="fill:#263238"></polygon><polygon points="296.68 324.88 296.82 319.86 298.5 319.24 300.63 324.88 300.63 328.2 298.66 328.2 296.68 324.88" style="fill:#FF4840"></polygon><polygon points="284.82 320.49 286.32 320.49 287.37 323.38 284.82 326.77 283.69 326.77 283.69 323.38 284.82 320.49" style="fill:#FF4840"></polygon><path d="M176.63,317.61s70.13-10.07,73.83,5.32c3.91,16.27-52.39,27.24-86,28.39s-43.33-6.25-37.93-47.83l45.4-.11Z" style="fill:#FF4840"></path><path d="M176.63,317.61s70.13-10.07,73.83,5.32c3.91,16.27-52.39,27.24-86,28.39s-43.33-6.25-37.93-47.83l45.4-.11Z" style="opacity:0.2;isolation:isolate"></path><polygon points="139.98 309.38 125.8 309.56 126.07 304.96 139.98 304.65 139.98 309.38" style="fill:#263238"></polygon><polygon points="167.96 304.05 172.2 303.96 173.72 308.94 167.96 309.01 167.96 304.05" style="fill:#263238"></polygon><polygon points="166.15 304.09 166.15 309.04 142.16 309.35 142.16 304.61 166.15 304.09" style="fill:#263238"></polygon><path d="M152.33,308.17l-.07-1.92a1.9,1.9,0,0,1,1.75-2l4.34-.18a1.78,1.78,0,0,1,1.31.52,2,2,0,0,1,.59,1.35l.07,1.93a1.9,1.9,0,0,1-1.76,2l-4.34.18h-.07A1.88,1.88,0,0,1,152.33,308.17Zm6.2.88a1.12,1.12,0,0,0,1-1.18l-.07-1.93a1.22,1.22,0,0,0-.35-.79,1,1,0,0,0-.76-.3L154,305a1.11,1.11,0,0,0-1,1.18l.07,1.93a1.08,1.08,0,0,0,1.1,1.09Z" style="fill:#fff"></path><path d="M153.07,307.54h2.18a.5.5,0,0,0,0-1h-2.18a.5.5,0,0,0,0,1Z" style="fill:#fff"></path><path d="M171.83,353.14a.24.24,0,0,1,.23-.11.17.17,0,0,1,.14.16c.08.38.6,3.77-.24,4.59a.68.68,0,0,1-.68.14,1.13,1.13,0,0,1-.86-.77,3.06,3.06,0,0,1,.22-1.84A12,12,0,0,1,171.83,353.14Zm0,.68a4.83,4.83,0,0,0-1,3.16.75.75,0,0,0,.59.53.25.25,0,0,0,.27-.06.67.67,0,0,0,.16-.25A9.37,9.37,0,0,0,171.86,353.82Z" style="fill:#FF4840"></path><polygon points="194.21 336.58 180.27 341.22 173.57 343.44 175.12 350.75 181.59 349.52 197.38 346.5 194.21 336.58" style="fill:#e4897b"></polygon><path d="M176.92,351.14l-1-8.61a.85.85,0,0,0-1-.75l-4.25.61s-5.77.42-6.95,1.88c-3.44,4.24-1.75,23.34.46,24.06.82.26,1.7-.84,2.07-1.61,1.18-2.43,3.3-8.81,4.31-10.82,1.18-2.36,4.3-3.46,5.7-3.84A.85.85,0,0,0,176.92,351.14Z" style="fill:#263238"></path><path d="M171.86,353.07a.2.2,0,0,1,.22,0c.13,0,2.42,1,2.81,2.33a1.26,1.26,0,0,1-.1,1,.71.71,0,0,1-.75.49c-1-.12-2.12-2.49-2.23-3.56l0-.1A.16.16,0,0,1,171.86,353.07Zm2.57,3a.77.77,0,0,0,0-.54c-.24-.81-1.52-1.56-2.17-1.9.29,1.11,1.22,2.7,1.8,2.77.06,0,.18,0,.31-.24l0-.09Z" style="fill:#FF4840"></path><polygon points="194.21 336.58 180.27 341.22 181.59 349.52 197.38 346.5 194.21 336.58" style="opacity:0.2;isolation:isolate"></polygon><path d="M243.33,343.3a.23.23,0,0,1-.25,0,.17.17,0,0,1-.06-.21c.09-.38,1.1-3.65,2.21-4a.71.71,0,0,1,.68.18,1.16,1.16,0,0,1,.44,1.07,3.05,3.05,0,0,1-1,1.55A11.88,11.88,0,0,1,243.33,343.3Zm.27-.63a4.82,4.82,0,0,0,2.32-2.39.77.77,0,0,0-.31-.73.25.25,0,0,0-.27-.07.87.87,0,0,0-.26.16A9.49,9.49,0,0,0,243.6,342.67Z" style="fill:#FF4840"></path><polygon points="215.97 348.47 230.54 350.36 237.54 351.27 239.33 344.02 232.97 342.31 217.44 338.16 215.97 348.47" style="fill:#e4897b"></polygon><path d="M237.87,342.89,235,351.06a.85.85,0,0,0,.55,1.1l4.09,1.3s5.38,2.13,7.08,1.34c4.94-2.33,11.73-20.25,10-21.86-.62-.59-1.9,0-2.56.54-2.12,1.67-6.81,6.49-8.59,7.87-2.09,1.6-5.38,1.24-6.81,1A.84.84,0,0,0,237.87,342.89Z" style="fill:#263238"></path><path d="M243.27,343.35a.19.19,0,0,1-.21-.06c-.11-.09-1.73-2-1.52-3.32a1.24,1.24,0,0,1,.51-.83.73.73,0,0,1,.9-.12c.83.55.82,3.17.45,4.18l0,.1A.22.22,0,0,1,243.27,343.35Zm-1-3.82a.85.85,0,0,0-.26.48c-.13.85.69,2.07,1.14,2.66.21-1.13.07-3-.42-3.28-.05,0-.15-.1-.39.08l-.07.06Z" style="fill:#FF4840"></path><polygon points="215.97 348.47 230.54 350.36 232.97 342.31 217.44 338.16 215.97 348.47" style="opacity:0.2;isolation:isolate"></polygon><path d="M229,340.33S163.8,315,143.83,319.23s-20.08,14.69-10,24.43,25.26,6,25.26,6-11.89-7.13-11.06-11.53,8.39,5.66,8.39,5.66,39.42,9.64,72,7.1Z" style="fill:#FF4840"></path><path d="M187.84,273.42s5.32,9.65,11.77,9.65,10.54-13.29,10.54-13.29l-3.7-2.59s-4.19,7.44-6.84,7.57-5.55-5-5.55-5Z" style="fill:#b97964"></path><path d="M186.58,252.94c2.52,3.36,9.64,18.92,9.64,18.92l-7.17,4.74-9.89-12.52Z" style="fill:#FF4840"></path><path d="M173.72,306.72c2.55-14.64,4.91-35.44,12.86-53.78a95.23,95.23,0,0,0-12.88-4.37,174.75,174.75,0,0,0-19.49-4.09,88,88,0,0,0-13.68-.37s-9.84,18.37-14.83,61.42Z" style="fill:#FF4840"></path><path d="M183,262.49c-5.16,15.7-7.14,32.08-9.26,44.23l-48-1.19.24-2c.08-.66.16-1.32.24-2,.12-.91.23-1.8.35-2.68.06-.39.11-.77.16-1.15.35-2.49.71-4.9,1.08-7.21.13-.8.26-1.58.39-2.35.53-3.16,1.09-6.14,1.66-8.94.16-.81.33-1.6.5-2.38.78-3.71,1.59-7.09,2.39-10.13.16-.64.33-1.26.49-1.87,0-.1.05-.2.08-.29.18-.65.36-1.28.53-1.9s.26-.93.4-1.38c.07-.23.13-.46.2-.69,2.67,2.46,6.49,1.44,8.32-1.4s7.86-6,11.37-7.58c1.93,3.77,5.59,6.71,11.3,5.1,3.6-1,5.72-2.45,6.95-3.89a45.75,45.75,0,0,1,10.51,9.49Z" style="fill:#fff;opacity:0.7000000000000001;isolation:isolate"></path><path d="M165.08,228.05c-1.75,6.29-5.88,17.35-11.8,19.17,0,0,4.36,7.13,10.88,7.73,4.16.38,6.46-4.31,6.46-4.31-4.24-.79-2.62-3.89.72-7.79Z" style="fill:#b97964"></path><path d="M167.63,234.09l3.7,8.76a20.9,20.9,0,0,0-2.13,2.89c-4.16.31-7.15-6.29-6.13-9C163.44,235.66,166.88,235,167.63,234.09Z" style="opacity:0.2;isolation:isolate"></path><path d="M153.28,261.08s3.58,8.11,6.11,9.94,21.71-3.64,21.71-3.64l2.88,4.89s-21.27,9.16-26.91,6.75-11.37-12.6-11.37-12.6Z" style="fill:#b97964"></path><path d="M140.53,244.11c-10.66,5,3.51,25.67,3.51,25.67l12.1-5.83S149.12,240.09,140.53,244.11Z" style="fill:#FF4840"></path><path d="M193,265.64c-.81-1.07-5.7-5.05-6.85-4.51s-5.68,6.65-7,7.23a50,50,0,0,0,2,4.73,15.49,15.49,0,0,0,3.32.16C185.41,273.07,193.79,266.7,193,265.64Z" style="fill:#b97964"></path><path d="M206.52,265.87c.14-.34,2.72-6.67,3.47-6.54s3.65,3.17,3.39,4.09-2.89,7.64-4,7.6-3.4,0-3.4,0A12.59,12.59,0,0,1,206.52,265.87Z" style="fill:#b97964"></path><path d="M179.46,218c-4,1.64-3.22,6,3.36,13.86,4.06-3.49,6.25-11.43,4.13-14S182.91,216.6,179.46,218Z" style="fill:#263238"></path><path d="M163.14,221.41c-1.38,8.58-2.62,13.53.68,18.84,5,8,16.28,6.45,20.21-1.55,3.51-7.19,5.18-20-2.35-25.25a11.86,11.86,0,0,0-16.52,2.9A12.08,12.08,0,0,0,163.14,221.41Z" style="fill:#b97964"></path><path d="M175.27,226.57c-.16.69.09,1.33.54,1.43s.93-.37,1.08-1.06-.08-1.33-.52-1.44S175.47,225.9,175.27,226.57Z" style="fill:#263238"></path><path d="M183.1,228.34c-.15.69.09,1.33.54,1.43s.94-.37,1.1-1.07-.09-1.33-.54-1.43S183.25,227.65,183.1,228.34Z" style="fill:#263238"></path><path d="M180.47,228.09a25.19,25.19,0,0,0,2,6.63,4.07,4.07,0,0,1-3.43-.12Z" style="fill:#a24e3f"></path><path d="M173.68,223.62a.37.37,0,0,1-.24-.12.41.41,0,0,1,0-.58,4.07,4.07,0,0,1,3.67-.93.4.4,0,0,1,.29.48v0a.43.43,0,0,1-.52.28h0a3.28,3.28,0,0,0-2.89.76A.41.41,0,0,1,173.68,223.62Z" style="fill:#263238"></path><path d="M187.26,226.5a.44.44,0,0,1-.32-.31,3.3,3.3,0,0,0-1.86-2.35.41.41,0,0,1-.25-.53.42.42,0,0,1,.52-.25,4.14,4.14,0,0,1,2.4,2.94.4.4,0,0,1-.3.49h0A.37.37,0,0,1,187.26,226.5Z" style="fill:#263238"></path><path d="M168.2,214.66c3.66,2.25,2.21,6.4-5.54,13.14-3.45-4.09-4.35-12.3-1.84-14.46S165,212.7,168.2,214.66Z" style="fill:#263238"></path><path d="M157.59,227.27a8.29,8.29,0,0,0,2.75,5.69c2.18,1.91,4.51.25,4.95-2.45.4-2.44-.27-6.38-3-7.24S157.44,224.59,157.59,227.27Z" style="fill:#b97964"></path><path d="M161.46,212.87s-.77-3.37,5.28-6.56,15.83-.49,22.18,4.11-1.37,10.38-4.46,10.51l.86-1.07a23,23,0,0,1-9.7-1.65l2-.65S165.28,215.31,161.46,212.87Z" style="fill:#263238"></path><path d="M177.57,236.47a20.44,20.44,0,0,0-1.56,2.7l-.53-.16c-2.38-.75-3.24-1.88-3.47-2.91a3.31,3.31,0,0,1,.06-1.52,3.26,3.26,0,0,1,.33-.8,11.74,11.74,0,0,0,4.37,2.42C177.26,236.38,177.57,236.47,177.57,236.47Z" style="fill:#263238"></path><path d="M176.77,236.2l-.49.78c-2.24-.7-3.72-1.5-4.21-2.4a3.26,3.26,0,0,1,.33-.8A11.74,11.74,0,0,0,176.77,236.2Z" style="fill:#fff"></path><path d="M175.48,239c-2.38-.75-3.24-1.88-3.47-2.91a8.17,8.17,0,0,1,2.48,1.35A3,3,0,0,1,175.48,239Z" style="fill:#a24e3f"></path><path d="M194.06,262.3,192.6,262l-1.8-2.32-.71.72s-1.39-.27-1.43-.14-1.17,3.24-1.17,3.24l3.65,1.52,1-.56,2.16.32Z" style="fill:#263238"></path><path d="M202.4,263.34l-1.49-1.5-6.13-.76-1.43.51-.31,3.18a23.8,23.8,0,0,0,2.28,1.47c.2,0,5.59.59,5.59.59l2-1.2Z" style="fill:#FF4840"></path><polygon points="208.33 252.94 213.39 256.1 208.33 263.22 205.95 264.31 203.38 262.53 203.38 260.06 208.33 252.94" style="fill:#FF4840"></polygon><polygon points="208.33 252.94 213.39 256.1 208.33 263.22 205.95 264.31 203.38 262.53 203.38 260.06 208.33 252.94" style="fill:#fff;opacity:0.5;isolation:isolate"></polygon><path d="M215.55,256.6a1,1,0,0,0-.52.14l-2.35-1.68-.59.94,2.34,1.66s0,0,0,.07a1.14,1.14,0,1,0,1.14-1.13Z" style="fill:#263238"></path><path d="M206.7,252.94l2.17-3.37s6.68,4.2,6.68,4.35-3.86,5.74-3.86,5.74l-2-1.68Z" style="fill:#FF4840"></path><path d="M205.86,264.16a1.83,1.83,0,1,1-1.83-1.83A1.83,1.83,0,0,1,205.86,264.16Z" style="fill:#263238"></path><polygon points="163.92 307.54 185.47 304.85 225.64 309.01 222.08 317.02 194.29 320.38 169.37 315.64 163.92 307.54" style="fill:#263238"></polygon><polygon points="163.92 307.54 185.47 304.85 225.64 309.01 222.08 317.02 194.29 320.38 169.37 315.64 163.92 307.54" style="fill:#fff;opacity:0.1;isolation:isolate"></polygon><path d="M193.43,317.7a.44.44,0,0,1-.25-.08c-.8-.32-10.45-3.55-16.86-5.69a.5.5,0,0,1-.34-.47.5.5,0,0,1,.35-.48l28.06-8.84a3,3,0,0,1,2,.07l12.78,5a.83.83,0,0,1,.53.8.82.82,0,0,1-.56.77c-15,5.18-24.68,8.55-25.41,8.85A.59.59,0,0,1,193.43,317.7Zm0-1h0c1-.46,3.63-1.38,10.86-3.89l14-4.86L206,303.14a1.91,1.91,0,0,0-1.29,0l-26.59,8.37,7,2.35c5.36,1.8,7.49,2.52,8.31,2.9v0Z" style="fill:#FF4840"></path><path d="M205.29,305.47a.5.5,0,0,1-.48-.34.49.49,0,0,1,.31-.63l3.21-1.09a.5.5,0,1,1,.32.95l-3.2,1.08Z" style="fill:#FF4840"></path><path d="M199.66,306.12a.41.41,0,0,1-.16,0l-2.25-.76a.49.49,0,0,1-.32-.63.5.5,0,0,1,.63-.32l2.26.76a.5.5,0,0,1-.16,1Z" style="fill:#FF4840"></path><path d="M206.89,313a.71.71,0,0,1-.2,0l-14.4-6.06a.5.5,0,0,1,.38-.92L207.08,312a.49.49,0,0,1,.27.65A.51.51,0,0,1,206.89,313Z" style="fill:#FF4840"></path><path d="M213.11,310.82a.68.68,0,0,1-.23-.05L210,309.3a.5.5,0,0,1,.46-.89l2.84,1.47a.5.5,0,0,1,.22.67A.51.51,0,0,1,213.11,310.82Z" style="fill:#FF4840"></path><path d="M198.22,306.6l3.39-2,3.39-.71a18.1,18.1,0,0,1,2.57,1c-.13.09-1.25,1.55-1.25,1.55l-6.07,1.31Z" style="fill:#FF4840"></path><polygon points="188.71 309.82 192.21 308.39 196.1 310.32 199.39 311.89 198.22 312.48 195.17 311.16 192.48 311.23 188.71 309.82" style="fill:#FF4840"></polygon><path d="M194.05,310.09a.5.5,0,0,1-.12-1l3.77-.92a.5.5,0,1,1,.24,1l-3.77.92Z" style="fill:#FF4840"></path><path d="M202.61,314.46a.54.54,0,0,1-.21,0l-4.08-1.94a.5.5,0,1,1,.43-.9l4.08,1.94a.5.5,0,0,1,.24.66A.52.52,0,0,1,202.61,314.46Z" style="fill:#FF4840"></path><polygon points="201.21 328.3 163.92 321.77 163.92 307.54 201.21 314.07 201.21 328.3" style="fill:#263238"></polygon><polygon points="201.21 314.07 225.64 309.01 225.64 319.99 201.21 328.3 201.21 314.07" style="fill:#263238"></polygon><polygon points="201.21 328.3 163.92 321.77 163.92 307.54 201.21 314.07 201.21 328.3" style="fill:#fff;opacity:0.5;isolation:isolate"></polygon><polygon points="201.21 314.07 225.64 309.01 225.64 319.99 201.21 328.3 201.21 314.07" style="fill:#fff;opacity:0.7000000000000001;isolation:isolate"></polygon><polygon points="130.18 329.61 148.46 331.86 159.56 321.37 174.95 327.4 190.89 324.34 161.72 316.63 156.29 317.92 142.16 316.63 130.18 329.61" style="fill:#fff"></polygon><polygon points="142.16 316.63 159.56 321.37 174.95 327.4 156.29 317.92 142.16 316.63" style="opacity:0.2;isolation:isolate"></polygon><rect x="258.9" y="336.58" width="70.58" height="15.29" style="fill:#FF4840"></rect><rect x="258.9" y="336.58" width="17.93" height="15.29" style="opacity:0.2;isolation:isolate"></rect><rect x="279.87" y="339.37" width="8.82" height="8.82" rx="1.09" style="fill:#fff;opacity:0.2;isolation:isolate"></rect><rect x="290.65" y="339.37" width="8.82" height="8.82" rx="1.09" style="fill:#fff;opacity:0.2;isolation:isolate"></rect><rect x="306.66" y="343.29" width="19.61" height="1" style="fill:#fff"></rect><rect x="303.6" y="346.49" width="22.67" height="1" style="fill:#fff"></rect><rect x="264.04" y="342.33" width="6.23" height="1" style="fill:#fff"></rect><rect x="265.73" y="344.91" width="2.57" height="1" style="fill:#fff"></rect></g><polygon points="371.16 397.44 374.66 418.87 367.16 418.87 360.27 398.43 371.16 397.44" style="fill:#263238"></polygon><polygon points="268.77 397.44 265.27 418.87 272.77 418.87 279.66 398.43 268.77 397.44" style="fill:#263238"></polygon><polygon points="371.16 397.44 374.66 418.87 367.16 418.87 360.27 398.43 371.16 397.44" style="fill:#fff;opacity:0.1;isolation:isolate"></polygon><polygon points="268.77 397.44 265.27 418.87 272.77 418.87 279.66 398.43 268.77 397.44" style="fill:#fff;opacity:0.1;isolation:isolate"></polygon><polygon points="190.16 397.44 193.66 418.87 186.16 418.87 179.27 398.43 190.16 397.44" style="fill:#263238"></polygon><polygon points="87.77 397.44 84.27 418.87 91.77 418.87 98.66 398.43 87.77 397.44" style="fill:#263238"></polygon><rect x="73.16" y="351.87" width="313" height="51" rx="8.64" style="fill:#263238"></rect><rect x="73.16" y="351.87" width="313" height="51" rx="8.64" style="fill:#fff;opacity:0.1;isolation:isolate"></rect><rect x="257.16" y="351.87" width="129" height="51" rx="8.64" style="fill:#fff;opacity:0.2;isolation:isolate"></rect><rect x="52.92" y="329.61" width="83.49" height="70.61" rx="11.63" transform="translate(189.32 729.83) rotate(180)" style="fill:#263238"></rect><rect x="52.92" y="329.61" width="83.49" height="70.61" rx="11.63" transform="translate(189.32 729.83) rotate(180)" style="fill:#fff;opacity:0.1;isolation:isolate"></rect><path d="M124.78,400.22h0A11.62,11.62,0,0,0,136.4,388.6V341.24a11.63,11.63,0,0,0-11.62-11.63h0a11.63,11.63,0,0,0-11.63,11.63V388.6A11.63,11.63,0,0,0,124.78,400.22Z" style="fill:#fff;opacity:0.2;isolation:isolate"></path></g></svg>