<svg xmlns="http://www.w3.org/2000/svg" viewBox="0 0 500 500"><g id="freepik--Floor--inject-86"><ellipse id="freepik--floor--inject-86" cx="250" cy="334.87" rx="238.81" ry="131.05" style="fill:#f5f5f5"></ellipse></g><g id="freepik--Shadows--inject-86"><path id="freepik--Shadow--inject-86" d="M31.61,349.49c15.14,13.42,51.1,29,72.46,39.39a9.39,9.39,0,0,0,6,.44c29.9-9.48,54.08-23.46,73.81-40.9a2.46,2.46,0,0,0-.24-4C162.73,329.7,124,317.79,95.86,312.69a16.22,16.22,0,0,0-6.32.34q-37.86,11.12-58.13,32A3.09,3.09,0,0,0,31.61,349.49Z" style="fill:#e6e6e6"></path><path id="freepik--shadow--inject-86" d="M203.9,403.53c20.71-12.88,20.71-33.77,0-46.65s-54.29-12.88-75,0-20.71,33.77,0,46.65S183.19,416.41,203.9,403.53Z" style="fill:#e6e6e6"></path><path id="freepik--shadow--inject-86" d="M352.22,400.43l105-60.69c1.75-1,1.75-2.65,0-3.66l-195-113a7,7,0,0,0-6.33,0l-105,60.69c-1.75,1-1.75,2.65,0,3.66l195,113A7,7,0,0,0,352.22,400.43Z" style="fill:#e6e6e6"></path><path id="freepik--shadow--inject-86" d="M458.27,388.54c11.71-7.29,11.71-19.09,0-26.38s-30.69-7.28-42.4,0-11.71,19.09,0,26.38S446.56,395.82,458.27,388.54Z" style="fill:#e6e6e6"></path></g><g id="freepik--Desk--inject-86"><g id="freepik--desk--inject-86"><g id="freepik--Table--inject-86"><polygon points="259.14 154.86 259.14 151.1 259.14 151.1 259.14 122.41 255.83 120.56 255.83 153.02 165.07 205.5 165.07 209.33 255.83 156.78 255.83 229.69 259.14 231.54 259.14 154.86 259.14 154.86" fill="currentColor"></polygon><polygon points="259.14 154.86 259.14 151.1 259.14 151.1 259.14 122.41 255.83 120.56 255.83 153.02 165.07 205.5 165.07 209.33 255.83 156.78 255.83 229.69 259.14 231.54 259.14 154.86 259.14 154.86" style="opacity:0.4"></polygon><path d="M161.76,175v3.76h0V287.92l3.32-2V213l94.06-54.47v73l3.32-1.85V116.8Zm97.38-20.17-94.06,54.47V183.78l94.06-54.17Z" fill="currentColor"></path><path d="M161.76,175v3.76h0V287.92l3.32-2V213l94.06-54.47v73l3.32-1.85V116.8Zm97.38-20.17-94.06,54.47V183.78l94.06-54.17Z" style="opacity:0.2"></path><polygon points="444.92 262.35 444.92 258.59 444.92 258.59 444.92 229.89 441.6 228.05 441.6 260.51 350.85 312.99 350.85 316.82 441.6 264.27 441.6 337.18 444.92 339.02 444.92 262.35 444.92 262.35" fill="currentColor"></polygon><polygon points="444.92 262.35 444.92 258.59 444.92 258.59 444.92 229.89 441.6 228.05 441.6 260.51 350.85 312.99 350.85 316.82 441.6 264.27 441.6 337.18 444.92 339.02 444.92 262.35 444.92 262.35" style="opacity:0.4"></polygon><polygon points="161.76 175.3 161.76 175.03 161.52 175.16 158.45 173.38 158.45 176.87 158.45 184.79 158.45 286.01 161.76 287.92 161.76 186.69 344.22 291.72 344.22 393.5 347.53 395.41 347.53 293.63 347.53 282.52 347.53 282.5 161.76 175.3" fill="currentColor"></polygon><polygon points="161.76 175.3 161.76 175.03 161.52 175.16 158.45 173.38 158.45 176.87 158.45 184.79 158.45 286.01 161.76 287.92 161.76 186.69 344.22 291.72 344.22 393.5 347.53 395.41 347.53 293.63 347.53 282.52 347.53 282.5 161.76 175.3" style="opacity:0.30000000000000004"></polygon><path d="M347.53,282.52V395.41l3.32-2V320.51l94.07-54.46v73l3.31-1.84V224.29Zm3.32,34.29V291.27l94.07-54.18v25.26Z" fill="currentColor"></path><path d="M347.53,282.52V395.41l3.32-2V320.51l94.07-54.46v73l3.31-1.84V224.29Zm3.32,34.29V291.27l94.07-54.18v25.26Z" style="opacity:0.2"></path><polygon points="347.53 282.52 448.23 224.29 259.14 115.16 158.45 173.38 347.53 282.52" fill="currentColor"></polygon><polygon points="347.53 282.52 448.23 224.29 259.14 115.16 158.45 173.38 347.53 282.52" style="opacity:0.1"></polygon></g><g id="freepik--Phone--inject-86"><g id="freepik--shadow--inject-86"><path d="M206.15,164.44l39.22-22.37a3.34,3.34,0,0,1,3,0l39.5,22.8a.92.92,0,0,1,0,1.73L248.8,189.2a3.29,3.29,0,0,1-3,0l-39.68-23A.91.91,0,0,1,206.15,164.44Z" style="opacity:0.2"></path><path d="M185,179.15l28.54,16.48a7.05,7.05,0,0,0,6.39,0l7.45-4.32c1.76-1,1.76-2.67,0-3.69l-28.55-16.48a7,7,0,0,0-6.38,0L185,175.46C183.24,176.48,183.24,178.13,185,179.15Z" style="opacity:0.2"></path></g><g id="freepik--Cable--inject-86"><path d="M242.09,136.44c-.26-1.51-1.33-2.24-2.65-2.83-.12-.06-.27-.05-.36-.1s-.09-.12-.15-.18a6,6,0,0,0-3.41-1.57c-.29,0-.55,0-.84,0a7.6,7.6,0,0,0-4.45-1.21,4.38,4.38,0,0,0-1.76.55,1.88,1.88,0,0,0-.24-.14,4.33,4.33,0,0,0-4.38.4,3,3,0,0,0-.71-.26,4.07,4.07,0,0,0-2,.28,6.31,6.31,0,0,0-1.74,1,5.59,5.59,0,0,0-.83,1,2.26,2.26,0,0,0-.45,0,4.71,4.71,0,0,0-3.08,2c-.08.1-.12.21-.2.31a4.35,4.35,0,0,0-2.83,1,4.65,4.65,0,0,0-1.39,2.4l0,0a4.57,4.57,0,0,0-2.38,3.13,5,5,0,0,0,.13,2,4.48,4.48,0,0,0-2,2.7,2.61,2.61,0,0,0,.21,1.56,6.51,6.51,0,0,0-1.15.79,3.61,3.61,0,0,0-.7,1,5.64,5.64,0,0,0-1.41.25,4,4,0,0,0-.59.28,5.06,5.06,0,0,0-3.84,0c-.19.06-.33.16-.5.23a5.19,5.19,0,0,0-3.68-.08,5.59,5.59,0,0,0-3.29-.74,5.17,5.17,0,0,0-1.85.68,4.62,4.62,0,0,0-2.27-.2,4.81,4.81,0,0,0-2.83,2.19,4.12,4.12,0,0,0-.23.58,3.21,3.21,0,0,0-1.13.72,3.92,3.92,0,0,0-.9,2.19,4.15,4.15,0,0,0,0,.7,3.5,3.5,0,0,0,.43,1.51,0,0,0,0,0,0,0,3.39,3.39,0,0,0,.74,3.77,3.77,3.77,0,0,0,.82.57,1.79,1.79,0,0,0,0,.24,2.4,2.4,0,0,0,.92,1.76,2.88,2.88,0,0,0,2.6.42c.31-.09,0-.44-.2-.47a9.23,9.23,0,0,1-.94-.14,2.4,2.4,0,0,1-.76-.4,1.67,1.67,0,0,1-.59-1h0a6.79,6.79,0,0,0,1.3.19,2.87,2.87,0,0,0,2.31-.67.91.91,0,0,0,0-1.22,1.91,1.91,0,0,0-1.47-.62,3.42,3.42,0,0,0-2.92,1.21,1.86,1.86,0,0,1-.19-.11,2.63,2.63,0,0,1-1-2.64.15.15,0,0,1,0-.07,3.87,3.87,0,0,0,3.07,1,1.17,1.17,0,0,0,1.09-1.22,1.75,1.75,0,0,0-1.12-1.46,3.37,3.37,0,0,0-2.32-.13,4.37,4.37,0,0,0-.78.39,2.15,2.15,0,0,1-.17-.79,5.15,5.15,0,0,1,.09-1.11,1.09,1.09,0,0,1,.07-.3,3,3,0,0,1,1-1.4,2.84,2.84,0,0,0,1.08,1.85A2,2,0,0,0,188,156a1.38,1.38,0,0,0-.15-1.61,3,3,0,0,0-1.58-1,4.47,4.47,0,0,0-1.09-.15,4.16,4.16,0,0,1,1.6-1.65,3.41,3.41,0,0,1,2.11-.25,4.25,4.25,0,0,0-.88,1.36,1.75,1.75,0,0,0,.21,1.68,1.55,1.55,0,0,0,1.69.53,1.94,1.94,0,0,0,1.22-1.3,2,2,0,0,0-.25-1.76,2.72,2.72,0,0,0-.61-.61,3.78,3.78,0,0,1,.88-.36,4.37,4.37,0,0,1,2.8.38c-.89.7-1.88,1.52-1.69,2.75s1.54,1.38,2.53.79a2.24,2.24,0,0,0,1-1.58,2.32,2.32,0,0,0-.51-1.78l0,0a4.37,4.37,0,0,1,2.43,0,5,5,0,0,0-.71.67,2.39,2.39,0,0,0-.66,1.83,1.53,1.53,0,0,0,1.33,1.25,1.63,1.63,0,0,0,1.63-.69,2.37,2.37,0,0,0-.27-3,5.59,5.59,0,0,1,.61-.26,4,4,0,0,1,2.49,0,3,3,0,0,0-.79,1.74,2.16,2.16,0,0,0,.59,1.69,1.13,1.13,0,0,0,1.47.23c1.3-1,.83-2.26.07-3.45a.81.81,0,0,0-.12-.14,3.74,3.74,0,0,1,.91-.3l.3,0a2.59,2.59,0,0,0,.4,1.39,2.83,2.83,0,0,0,1.54,1.15,1.27,1.27,0,0,0,1.6-.53c.58-1.11-.48-1.79-1.34-2.26a5.36,5.36,0,0,0-1.14-.4,3.69,3.69,0,0,1,1.11-1.08l.28-.15a5.54,5.54,0,0,0,1.49,1,3.49,3.49,0,0,0,2.4.18c.56-.17,1.05-.58.82-1.2-.46-1.24-1.68-1.32-2.86-1.26a7.55,7.55,0,0,0-1.49.29,2.49,2.49,0,0,1,.25-2.2,4.07,4.07,0,0,1,1-1,5.26,5.26,0,0,0,.6.88,3.22,3.22,0,0,0,3.31,1.06,1.25,1.25,0,0,0,1-1.23,1.57,1.57,0,0,0-.91-1.4,5.17,5.17,0,0,0-3.49-.36,4.36,4.36,0,0,1,.2-2.5,4,4,0,0,1,1.06-1.37.78.78,0,0,1,.15-.1c0,.12,0,.23,0,.36.42,1.44,1.1,2.43,2.73,2.41a1.53,1.53,0,0,0,1.34-1,1.59,1.59,0,0,0-.29-1.78,3.9,3.9,0,0,0-2.82-1,1.16,1.16,0,0,1,0-.18,3.84,3.84,0,0,1,1.86-2.06,3,3,0,0,1,1.1-.22,2.78,2.78,0,0,0,.34,2.56c.67.81,2.19,1.54,2.71.12s-.72-2.56-1.93-3.18a4.1,4.1,0,0,1,1-1.17,2.82,2.82,0,0,1,1.52-.58,4.08,4.08,0,0,0-.23,2.07,2.43,2.43,0,0,0,1,1.61,2,2,0,0,0,2.92-1.41,2.16,2.16,0,0,0-.59-1.59,4.67,4.67,0,0,0-1.86-1.25,5.33,5.33,0,0,1,1.44-1.24,3.08,3.08,0,0,1,2.49-.45,4.76,4.76,0,0,0-.89,1.6,2,2,0,0,0,.49,2,1.31,1.31,0,0,0,1.63.31,1.88,1.88,0,0,0,.9-1.7,3.41,3.41,0,0,0-1-2.28,3.39,3.39,0,0,1,1.29-.6,3.67,3.67,0,0,1,2.16.33c-.15.16-.32.26-.47.44-.66.84-1.26,1.67-.75,2.75a1.74,1.74,0,0,0,1.64.92,1.79,1.79,0,0,0,1.6-1.06c.5-1.19,0-2-.75-3a.18.18,0,0,1,.07,0,4.39,4.39,0,0,1,2.18-.32,6.74,6.74,0,0,1,2.28.63,3.4,3.4,0,0,0-1.81,1.08,2.24,2.24,0,0,0-.5,1.87,1.33,1.33,0,0,0,1.31,1.08,2.59,2.59,0,0,0,2.79-2.32c.1-.43-.1-.7-.2-1.09a9.7,9.7,0,0,1,1.37.26,4.46,4.46,0,0,1,1.4.73,3,3,0,0,0-1.81.8,2,2,0,0,0,.16,2.88,1.67,1.67,0,0,0,2.49-.35,3,3,0,0,0,.53-2.42,3.46,3.46,0,0,1,.6.25,2.87,2.87,0,0,1,1.4,2.31,3.85,3.85,0,0,1-1.11,2.75c-.28.32.11.76.4.49A4,4,0,0,0,242.09,136.44Zm-56.6,25.79a2.72,2.72,0,0,1,1.29-.44,1.83,1.83,0,0,1,1.15.16.22.22,0,0,1,.09.26c0,.11,0,.12-.16.2a1.61,1.61,0,0,1-.63.18,6.25,6.25,0,0,1-.87,0h-.25a4.94,4.94,0,0,1-.67-.12s-.13,0-.12,0A.52.52,0,0,1,185.49,162.23Zm-.07-3.93a1.16,1.16,0,0,1,1,.66c.15.38-.16.54-.52.53a3.29,3.29,0,0,1-2.15-.87,1.85,1.85,0,0,1,.55-.26A3.08,3.08,0,0,1,185.42,158.3Zm1.86-3.31a.6.6,0,0,1-.22.83,1,1,0,0,1-.91,0A2,2,0,0,1,185,154l.1,0A2.3,2.3,0,0,1,187.28,155Zm3.16-2.34a1.57,1.57,0,0,1-.35,1.25.75.75,0,0,1-1.1.22,1,1,0,0,1-.23-1.11,3.34,3.34,0,0,1,.91-1.37A1.69,1.69,0,0,1,190.44,152.65Zm4.12,1.36a1.26,1.26,0,0,1-1.14.49.46.46,0,0,1-.42-.59,2.83,2.83,0,0,1,1.26-2,2.63,2.63,0,0,1,.33-.2,1.67,1.67,0,0,1,.46.94A2,2,0,0,1,194.56,154Zm4.2-.16a1,1,0,0,1-1.08.61.8.8,0,0,1-.56-1.05,3.17,3.17,0,0,1,1.26-1.61A1.68,1.68,0,0,1,198.76,153.85Zm4.68-.19a.75.75,0,0,1-.67.67c-.37,0-.52-.33-.58-.64a2.26,2.26,0,0,1,.09-1.36,2.08,2.08,0,0,1,.47-.67,2.54,2.54,0,0,1,.29.36A2.41,2.41,0,0,1,203.44,153.66Zm3.08-2.23c.44.26,1.39.9.56,1.37-.39.22-.89-.12-1.19-.42a1.93,1.93,0,0,1-.53-1.12,2.64,2.64,0,0,1,0-.28A4,4,0,0,1,206.52,151.43Zm2.92-2.9a2,2,0,0,1,1.22.34c.2.14.41.44.13.64a1.77,1.77,0,0,1-1.57.05,4.7,4.7,0,0,1-1.38-.83A6.74,6.74,0,0,1,209.44,148.53Zm.78-4.16a4.89,4.89,0,0,1,1.32.18c.41.12,1,.29,1.09.71.3.84-.65,1.11-1.28,1a3.3,3.3,0,0,1-1.92-1.69A2.69,2.69,0,0,1,210.22,144.37Zm1.67-4.85c.93.08,2,.4,2.05,1.46a1,1,0,0,1-1.55.76,2.43,2.43,0,0,1-.94-2.19A2.12,2.12,0,0,1,211.89,139.52Zm4.19-2.56a2.44,2.44,0,0,1,.9,1.39c.06.36,0,.84-.48.73a1.76,1.76,0,0,1-1.31-1.87,2.64,2.64,0,0,1,.14-.69A3.35,3.35,0,0,1,216.08,137Zm4.89-1.18a1,1,0,0,1-.21,1.15c-.3.32-.73.62-1.16.35-.95-.63-.93-1.67-.71-2.7a2.46,2.46,0,0,1,.14-.38A3,3,0,0,1,221,135.78Zm3.54-1.13c-.1.34-.4.72-.79.5a1.3,1.3,0,0,1-.58-1.42,3.71,3.71,0,0,1,.8-1.47A2.43,2.43,0,0,1,224.51,134.65Zm4.73-.7a1.38,1.38,0,0,1-1,1,.88.88,0,0,1-.92-.57,1.17,1.17,0,0,1,.11-1,4.53,4.53,0,0,1,1.16-1.42,2.89,2.89,0,0,1,.38.4A1.77,1.77,0,0,1,229.24,134Zm5.26,0a2.14,2.14,0,0,1-1.18,1.18c-.32.13-.85.18-1-.2a1.49,1.49,0,0,1,.24-1.4,2.26,2.26,0,0,1,1.07-.86,3.56,3.56,0,0,1,.81-.2A1.71,1.71,0,0,1,234.5,134Zm3.34,2.71c-.12.05-.26.17-.38.17a.66.66,0,0,1-.32,0c-.26-.15-.44-.26-.5-.56a1.61,1.61,0,0,1,.9-1.88,2.11,2.11,0,0,1,1-.16s0-.26,0,.21S238.58,136.33,237.84,136.67Z" fill="currentColor"></path><path d="M188.5,161.41h0Z" fill="currentColor"></path><path d="M188.5,161.42Z" fill="currentColor"></path><polygon points="188.5 161.42 188.5 161.42 188.5 161.42 188.5 161.42" fill="currentColor"></polygon><path d="M188.5,161.42Z" fill="currentColor"></path><g style="opacity:0.5"><path d="M242.09,136.44c-.26-1.51-1.33-2.24-2.65-2.83-.12-.06-.27-.05-.36-.1s-.09-.12-.15-.18a6,6,0,0,0-3.41-1.57c-.29,0-.55,0-.84,0a7.6,7.6,0,0,0-4.45-1.21,4.38,4.38,0,0,0-1.76.55,1.88,1.88,0,0,0-.24-.14,4.33,4.33,0,0,0-4.38.4,3,3,0,0,0-.71-.26,4.07,4.07,0,0,0-2,.28,6.31,6.31,0,0,0-1.74,1,5.59,5.59,0,0,0-.83,1,2.26,2.26,0,0,0-.45,0,4.71,4.71,0,0,0-3.08,2c-.08.1-.12.21-.2.31a4.35,4.35,0,0,0-2.83,1,4.65,4.65,0,0,0-1.39,2.4l0,0a4.57,4.57,0,0,0-2.38,3.13,5,5,0,0,0,.13,2,4.48,4.48,0,0,0-2,2.7,2.61,2.61,0,0,0,.21,1.56,6.51,6.51,0,0,0-1.15.79,3.61,3.61,0,0,0-.7,1,5.64,5.64,0,0,0-1.41.25,4,4,0,0,0-.59.28,5.06,5.06,0,0,0-3.84,0c-.19.06-.33.16-.5.23a5.19,5.19,0,0,0-3.68-.08,5.59,5.59,0,0,0-3.29-.74,5.17,5.17,0,0,0-1.85.68,4.62,4.62,0,0,0-2.27-.2,4.81,4.81,0,0,0-2.83,2.19,4.12,4.12,0,0,0-.23.58,3.21,3.21,0,0,0-1.13.72,3.92,3.92,0,0,0-.9,2.19,4.15,4.15,0,0,0,0,.7,3.5,3.5,0,0,0,.43,1.51,0,0,0,0,0,0,0,3.39,3.39,0,0,0,.74,3.77,3.77,3.77,0,0,0,.82.57,1.79,1.79,0,0,0,0,.24,2.4,2.4,0,0,0,.92,1.76,2.88,2.88,0,0,0,2.6.42c.31-.09,0-.44-.2-.47a9.23,9.23,0,0,1-.94-.14,2.4,2.4,0,0,1-.76-.4,1.67,1.67,0,0,1-.59-1h0a6.79,6.79,0,0,0,1.3.19,2.87,2.87,0,0,0,2.31-.67.91.91,0,0,0,0-1.22,1.91,1.91,0,0,0-1.47-.62,3.42,3.42,0,0,0-2.92,1.21,1.86,1.86,0,0,1-.19-.11,2.63,2.63,0,0,1-1-2.64.15.15,0,0,1,0-.07,3.87,3.87,0,0,0,3.07,1,1.17,1.17,0,0,0,1.09-1.22,1.75,1.75,0,0,0-1.12-1.46,3.37,3.37,0,0,0-2.32-.13,4.37,4.37,0,0,0-.78.39,2.15,2.15,0,0,1-.17-.79,5.15,5.15,0,0,1,.09-1.11,1.09,1.09,0,0,1,.07-.3,3,3,0,0,1,1-1.4,2.84,2.84,0,0,0,1.08,1.85A2,2,0,0,0,188,156a1.38,1.38,0,0,0-.15-1.61,3,3,0,0,0-1.58-1,4.47,4.47,0,0,0-1.09-.15,4.16,4.16,0,0,1,1.6-1.65,3.41,3.41,0,0,1,2.11-.25,4.25,4.25,0,0,0-.88,1.36,1.75,1.75,0,0,0,.21,1.68,1.55,1.55,0,0,0,1.69.53,1.94,1.94,0,0,0,1.22-1.3,2,2,0,0,0-.25-1.76,2.72,2.72,0,0,0-.61-.61,3.78,3.78,0,0,1,.88-.36,4.37,4.37,0,0,1,2.8.38c-.89.7-1.88,1.52-1.69,2.75s1.54,1.38,2.53.79a2.24,2.24,0,0,0,1-1.58,2.32,2.32,0,0,0-.51-1.78l0,0a4.37,4.37,0,0,1,2.43,0,5,5,0,0,0-.71.67,2.39,2.39,0,0,0-.66,1.83,1.53,1.53,0,0,0,1.33,1.25,1.63,1.63,0,0,0,1.63-.69,2.37,2.37,0,0,0-.27-3,5.59,5.59,0,0,1,.61-.26,4,4,0,0,1,2.49,0,3,3,0,0,0-.79,1.74,2.16,2.16,0,0,0,.59,1.69,1.13,1.13,0,0,0,1.47.23c1.3-1,.83-2.26.07-3.45a.81.81,0,0,0-.12-.14,3.74,3.74,0,0,1,.91-.3l.3,0a2.59,2.59,0,0,0,.4,1.39,2.83,2.83,0,0,0,1.54,1.15,1.27,1.27,0,0,0,1.6-.53c.58-1.11-.48-1.79-1.34-2.26a5.36,5.36,0,0,0-1.14-.4,3.69,3.69,0,0,1,1.11-1.08l.28-.15a5.54,5.54,0,0,0,1.49,1,3.49,3.49,0,0,0,2.4.18c.56-.17,1.05-.58.82-1.2-.46-1.24-1.68-1.32-2.86-1.26a7.55,7.55,0,0,0-1.49.29,2.49,2.49,0,0,1,.25-2.2,4.07,4.07,0,0,1,1-1,5.26,5.26,0,0,0,.6.88,3.22,3.22,0,0,0,3.31,1.06,1.25,1.25,0,0,0,1-1.23,1.57,1.57,0,0,0-.91-1.4,5.17,5.17,0,0,0-3.49-.36,4.36,4.36,0,0,1,.2-2.5,4,4,0,0,1,1.06-1.37.78.78,0,0,1,.15-.1c0,.12,0,.23,0,.36.42,1.44,1.1,2.43,2.73,2.41a1.53,1.53,0,0,0,1.34-1,1.59,1.59,0,0,0-.29-1.78,3.9,3.9,0,0,0-2.82-1,1.16,1.16,0,0,1,0-.18,3.84,3.84,0,0,1,1.86-2.06,3,3,0,0,1,1.1-.22,2.78,2.78,0,0,0,.34,2.56c.67.81,2.19,1.54,2.71.12s-.72-2.56-1.93-3.18a4.1,4.1,0,0,1,1-1.17,2.82,2.82,0,0,1,1.52-.58,4.08,4.08,0,0,0-.23,2.07,2.43,2.43,0,0,0,1,1.61,2,2,0,0,0,2.92-1.41,2.16,2.16,0,0,0-.59-1.59,4.67,4.67,0,0,0-1.86-1.25,5.33,5.33,0,0,1,1.44-1.24,3.08,3.08,0,0,1,2.49-.45,4.76,4.76,0,0,0-.89,1.6,2,2,0,0,0,.49,2,1.31,1.31,0,0,0,1.63.31,1.88,1.88,0,0,0,.9-1.7,3.41,3.41,0,0,0-1-2.28,3.39,3.39,0,0,1,1.29-.6,3.67,3.67,0,0,1,2.16.33c-.15.16-.32.26-.47.44-.66.84-1.26,1.67-.75,2.75a1.74,1.74,0,0,0,1.64.92,1.79,1.79,0,0,0,1.6-1.06c.5-1.19,0-2-.75-3a.18.18,0,0,1,.07,0,4.39,4.39,0,0,1,2.18-.32,6.74,6.74,0,0,1,2.28.63,3.4,3.4,0,0,0-1.81,1.08,2.24,2.24,0,0,0-.5,1.87,1.33,1.33,0,0,0,1.31,1.08,2.59,2.59,0,0,0,2.79-2.32c.1-.43-.1-.7-.2-1.09a9.7,9.7,0,0,1,1.37.26,4.46,4.46,0,0,1,1.4.73,3,3,0,0,0-1.81.8,2,2,0,0,0,.16,2.88,1.67,1.67,0,0,0,2.49-.35,3,3,0,0,0,.53-2.42,3.46,3.46,0,0,1,.6.25,2.87,2.87,0,0,1,1.4,2.31,3.85,3.85,0,0,1-1.11,2.75c-.28.32.11.76.4.49A4,4,0,0,0,242.09,136.44Zm-56.6,25.79a2.72,2.72,0,0,1,1.29-.44,1.83,1.83,0,0,1,1.15.16.22.22,0,0,1,.09.26c0,.11,0,.12-.16.2a1.61,1.61,0,0,1-.63.18,6.25,6.25,0,0,1-.87,0h-.25a4.94,4.94,0,0,1-.67-.12s-.13,0-.12,0A.52.52,0,0,1,185.49,162.23Zm-.07-3.93a1.16,1.16,0,0,1,1,.66c.15.38-.16.54-.52.53a3.29,3.29,0,0,1-2.15-.87,1.85,1.85,0,0,1,.55-.26A3.08,3.08,0,0,1,185.42,158.3Zm1.86-3.31a.6.6,0,0,1-.22.83,1,1,0,0,1-.91,0A2,2,0,0,1,185,154l.1,0A2.3,2.3,0,0,1,187.28,155Zm3.16-2.34a1.57,1.57,0,0,1-.35,1.25.75.75,0,0,1-1.1.22,1,1,0,0,1-.23-1.11,3.34,3.34,0,0,1,.91-1.37A1.69,1.69,0,0,1,190.44,152.65Zm4.12,1.36a1.26,1.26,0,0,1-1.14.49.46.46,0,0,1-.42-.59,2.83,2.83,0,0,1,1.26-2,2.63,2.63,0,0,1,.33-.2,1.67,1.67,0,0,1,.46.94A2,2,0,0,1,194.56,154Zm4.2-.16a1,1,0,0,1-1.08.61.8.8,0,0,1-.56-1.05,3.17,3.17,0,0,1,1.26-1.61A1.68,1.68,0,0,1,198.76,153.85Zm4.68-.19a.75.75,0,0,1-.67.67c-.37,0-.52-.33-.58-.64a2.26,2.26,0,0,1,.09-1.36,2.08,2.08,0,0,1,.47-.67,2.54,2.54,0,0,1,.29.36A2.41,2.41,0,0,1,203.44,153.66Zm3.08-2.23c.44.26,1.39.9.56,1.37-.39.22-.89-.12-1.19-.42a1.93,1.93,0,0,1-.53-1.12,2.64,2.64,0,0,1,0-.28A4,4,0,0,1,206.52,151.43Zm2.92-2.9a2,2,0,0,1,1.22.34c.2.14.41.44.13.64a1.77,1.77,0,0,1-1.57.05,4.7,4.7,0,0,1-1.38-.83A6.74,6.74,0,0,1,209.44,148.53Zm.78-4.16a4.89,4.89,0,0,1,1.32.18c.41.12,1,.29,1.09.71.3.84-.65,1.11-1.28,1a3.3,3.3,0,0,1-1.92-1.69A2.69,2.69,0,0,1,210.22,144.37Zm1.67-4.85c.93.08,2,.4,2.05,1.46a1,1,0,0,1-1.55.76,2.43,2.43,0,0,1-.94-2.19A2.12,2.12,0,0,1,211.89,139.52Zm4.19-2.56a2.44,2.44,0,0,1,.9,1.39c.06.36,0,.84-.48.73a1.76,1.76,0,0,1-1.31-1.87,2.64,2.64,0,0,1,.14-.69A3.35,3.35,0,0,1,216.08,137Zm4.89-1.18a1,1,0,0,1-.21,1.15c-.3.32-.73.62-1.16.35-.95-.63-.93-1.67-.71-2.7a2.46,2.46,0,0,1,.14-.38A3,3,0,0,1,221,135.78Zm3.54-1.13c-.1.34-.4.72-.79.5a1.3,1.3,0,0,1-.58-1.42,3.71,3.71,0,0,1,.8-1.47A2.43,2.43,0,0,1,224.51,134.65Zm4.73-.7a1.38,1.38,0,0,1-1,1,.88.88,0,0,1-.92-.57,1.17,1.17,0,0,1,.11-1,4.53,4.53,0,0,1,1.16-1.42,2.89,2.89,0,0,1,.38.4A1.77,1.77,0,0,1,229.24,134Zm5.26,0a2.14,2.14,0,0,1-1.18,1.18c-.32.13-.85.18-1-.2a1.49,1.49,0,0,1,.24-1.4,2.26,2.26,0,0,1,1.07-.86,3.56,3.56,0,0,1,.81-.2A1.71,1.71,0,0,1,234.5,134Zm3.34,2.71c-.12.05-.26.17-.38.17a.66.66,0,0,1-.32,0c-.26-.15-.44-.26-.5-.56a1.61,1.61,0,0,1,.9-1.88,2.11,2.11,0,0,1,1-.16s0-.26,0,.21S238.58,136.33,237.84,136.67Z"></path><path d="M188.5,161.41h0Z"></path><path d="M188.5,161.42Z"></path><polygon points="188.5 161.42 188.5 161.42 188.5 161.42 188.5 161.42"></polygon><path d="M188.5,161.42Z"></path></g></g><g id="freepik--phone--inject-86"><polygon points="206.96 156.87 245.6 134.57 259.51 142.6 220.86 164.91 206.96 156.87" style="fill:#455a64"></polygon><path d="M218.65,161.91l-7.41-4.28a.61.61,0,0,1,0-1.16l7.46-4.3a2.2,2.2,0,0,1,2,0l7.37,4.3a.61.61,0,0,1,0,1.16l-7.41,4.28A2.2,2.2,0,0,1,218.65,161.91Z" style="fill:#263238"></path><path d="M218.7,153.62l-7.21,4.16,7.16,4.13a2.2,2.2,0,0,0,2,0l7.17-4.13-7.12-4.16A2.2,2.2,0,0,0,218.7,153.62Z" style="fill:#37474f"></path><path d="M245,146.69l-7.41-4.28a.61.61,0,0,1,0-1.16l7.46-4.31a2.22,2.22,0,0,1,2,0l7.36,4.3a.61.61,0,0,1,0,1.16L247,146.69A2.22,2.22,0,0,1,245,146.69Z" style="fill:#263238"></path><path d="M247,146.69l7.16-4.14-7.11-4.15a2.22,2.22,0,0,0-2,0l-7.2,4.16,7.15,4.13A2.22,2.22,0,0,0,247,146.69Z" style="fill:#37474f"></path><path d="M208.5,161.34v2.56a1.77,1.77,0,0,0,.87,1.52l36.87,21.3a1.78,1.78,0,0,0,1.76,0l35.34-20.41a1.74,1.74,0,0,0,.88-1.52v-2.55L248,183.15a1.76,1.76,0,0,1-1.75,0Z" style="fill:#263238"></path><polygon points="285.76 150.63 285.76 157.77 247.12 180.08 220.84 164.91 220.84 164.91 245.57 150.63 259.49 135.46 285.76 150.63" style="fill:#455a64"></polygon><path d="M271.86,165.8l-24.74,14.28L207,156.87v2.56a1.77,1.77,0,0,0,.88,1.52l38.41,22.2a1.76,1.76,0,0,0,1.75,0l36.89-21.3a1.76,1.76,0,0,0,.88-1.52v-9.7Z" style="fill:#37474f"></path><path d="M247,180l-40-23.12v2.56a1.77,1.77,0,0,0,.88,1.52l38.41,22.2a1.78,1.78,0,0,0,.71.22Z" style="fill:#263238"></path><path d="M246.25,183.15,208.5,161.34v2.56a1.77,1.77,0,0,0,.87,1.52l36.87,21.3a1.72,1.72,0,0,0,.72.22v-3.57A1.78,1.78,0,0,1,246.25,183.15Z"></path><polygon points="285.76 150.63 259.51 136.54 245.57 150.63 259.49 135.46 285.76 150.63" style="fill:#fff;opacity:0.1"></polygon><polygon points="271.86 165.8 251.36 153.97 272.38 165.23 271.86 165.8" style="fill:#fff;opacity:0.1"></polygon><polygon points="245.57 150.63 220.86 164.91 220.37 164.62 245.57 150.63" style="fill:#263238"></polygon><polygon points="275.21 155.42 256.38 144.55 260.93 139.57 260.93 139.57 279.71 150.41 275.21 155.42" fill="currentColor"></polygon><polygon points="279.29 150.88 279.71 150.41 260.93 139.57 256.38 144.55 256.94 144.88 261.07 140.36 279.29 150.88" style="opacity:0.15"></polygon><polygon points="261.07 140.36 260.93 139.57 256.38 144.55 256.94 144.88 261.07 140.36" style="opacity:0.15"></polygon><path d="M258.52,155l-6.47-3.76,1.1-1.2,6.45,3.75a.37.37,0,0,1,.09.58l-.46.51A.59.59,0,0,1,258.52,155Z" style="fill:#fff"></path><path d="M253.6,149.85a.2.2,0,0,0-.12-.15l-1.11-.64a.38.38,0,0,0-.45.08l-1,1.05a.23.23,0,0,0-.07.2c0,.06.09.36.1.43a.26.26,0,0,0,.12.15l1.11.64a.4.4,0,0,0,.45-.08l1-1.05a.21.21,0,0,0,.06-.21C253.69,150.21,253.62,149.92,253.6,149.85Z" fill="currentColor"></path><path d="M252.49,151.63a.29.29,0,0,0,.18-.1l1-1.05a.21.21,0,0,0,.06-.21c0-.06-.08-.35-.1-.42a.2.2,0,0,0-.12-.15l-1.11-.64a.35.35,0,0,0-.25,0Z" style="opacity:0.15"></path><path d="M252.12,149a.33.33,0,0,0-.2.11l-1,1.05a.23.23,0,0,0-.07.2c0,.06.09.36.1.43a.26.26,0,0,0,.12.15l1.11.64a.36.36,0,0,0,.27,0Z" style="opacity:0.30000000000000004"></path><path d="M252.58,151.11l1-1.05a.22.22,0,0,0-.06-.36l-1.11-.64a.38.38,0,0,0-.45.08l-1,1.05a.22.22,0,0,0,0,.36l1.11.63A.39.39,0,0,0,252.58,151.11Z" fill="currentColor"></path><path d="M261.08,152.23l-6.47-3.75,1.1-1.2,6.45,3.75a.36.36,0,0,1,.09.58l-.46.51A.59.59,0,0,1,261.08,152.23Z" style="fill:#fff"></path><path d="M256.17,147.05a.31.31,0,0,0-.12-.16l-1.11-.63a.38.38,0,0,0-.45.07l-1,1.06a.2.2,0,0,0-.06.2c0,.06.08.36.1.43a.22.22,0,0,0,.12.15l1.11.63a.38.38,0,0,0,.45-.07l1-1a.25.25,0,0,0,.07-.21C256.25,147.41,256.18,147.12,256.17,147.05Z" fill="currentColor"></path><path d="M255.06,148.83a.4.4,0,0,0,.18-.1l1-1a.25.25,0,0,0,.07-.21c0-.06-.09-.35-.1-.42a.31.31,0,0,0-.12-.16l-1.11-.63a.37.37,0,0,0-.25,0Z" style="opacity:0.15"></path><path d="M254.69,146.23a.35.35,0,0,0-.2.1l-1,1.06a.2.2,0,0,0-.06.2c0,.06.08.36.1.43a.22.22,0,0,0,.12.15l1.11.63a.36.36,0,0,0,.27,0Z" style="opacity:0.30000000000000004"></path><path d="M255.14,148.31l1-1.06a.23.23,0,0,0-.06-.36l-1.11-.63a.38.38,0,0,0-.45.07l-1,1.06a.21.21,0,0,0,.06.35l1.11.64A.4.4,0,0,0,255.14,148.31Z" fill="currentColor"></path><path d="M269.29,161.25l-6.47-3.76,1.1-1.19,6.45,3.74a.37.37,0,0,1,.09.58l-.46.52A.59.59,0,0,1,269.29,161.25Z" style="fill:#fff"></path><path d="M264.38,156.06a.29.29,0,0,0-.12-.15l-1.11-.63a.39.39,0,0,0-.46.07l-1,1.05a.21.21,0,0,0-.06.21c0,.06.08.36.09.42a.31.31,0,0,0,.12.16l1.11.63a.39.39,0,0,0,.46-.07l1-1.05a.22.22,0,0,0,.06-.21C264.46,156.43,264.39,156.13,264.38,156.06Z" fill="currentColor"></path><path d="M263.27,157.85a.4.4,0,0,0,.18-.1l1-1.05a.22.22,0,0,0,.06-.21c0-.06-.08-.36-.09-.43a.29.29,0,0,0-.12-.15l-1.11-.63a.44.44,0,0,0-.25,0Z" style="opacity:0.15"></path><path d="M262.9,155.24a.43.43,0,0,0-.21.11l-1,1.05a.21.21,0,0,0-.06.21c0,.06.08.36.09.42a.31.31,0,0,0,.12.16l1.11.63a.45.45,0,0,0,.28,0Z" style="opacity:0.30000000000000004"></path><path d="M263.35,157.32l1-1a.22.22,0,0,0-.05-.36l-1.11-.63a.39.39,0,0,0-.46.07l-1,1.05a.22.22,0,0,0,.06.36l1.11.63A.38.38,0,0,0,263.35,157.32Z" fill="currentColor"></path><path d="M271.86,158.45l-6.47-3.76,1.1-1.2,6.45,3.75a.37.37,0,0,1,.09.58l-.46.52A.59.59,0,0,1,271.86,158.45Z" style="fill:#fff"></path><path d="M266.94,153.26a.22.22,0,0,0-.12-.15l-1.11-.63a.38.38,0,0,0-.45.07l-1,1a.26.26,0,0,0-.06.2c0,.06.08.36.1.43a.2.2,0,0,0,.12.15l1.11.64A.4.4,0,0,0,266,155l1-1.06a.26.26,0,0,0,.06-.2C267,153.63,267,153.33,266.94,153.26Z" fill="currentColor"></path><path d="M265.83,155A.31.31,0,0,0,266,155l1-1.06a.26.26,0,0,0,.06-.2c0-.06-.08-.36-.1-.43a.22.22,0,0,0-.12-.15l-1.11-.63a.31.31,0,0,0-.25,0Z" style="opacity:0.15"></path><path d="M265.46,152.44a.31.31,0,0,0-.2.11l-1,1a.26.26,0,0,0-.06.2c0,.06.08.36.1.43a.2.2,0,0,0,.12.15l1.11.64a.36.36,0,0,0,.27,0Z" style="opacity:0.30000000000000004"></path><path d="M265.91,154.52l1-1.05a.22.22,0,0,0-.06-.36l-1.11-.63a.38.38,0,0,0-.45.07l-1,1a.23.23,0,0,0,.06.36l1.11.63A.38.38,0,0,0,265.91,154.52Z" fill="currentColor"></path><path d="M246,153.58l-2.29,1.33a.59.59,0,0,0,0,1.11l1,.58a2.12,2.12,0,0,0,1.93,0l2.3-1.32a.59.59,0,0,0,0-1.11l-1-.59A2.12,2.12,0,0,0,246,153.58Z" fill="currentColor"></path><path d="M249.2,155.11a1.28,1.28,0,0,1-.22.17l-2.3,1.32a2.1,2.1,0,0,1-1.92,0l-1-.59a1.4,1.4,0,0,1-.22-.16.59.59,0,0,1-.18-.36v.74a.67.67,0,0,0,.4.56l1,.58a2.1,2.1,0,0,0,1.92,0l2.3-1.32a.69.69,0,0,0,.39-.56v-.76A.57.57,0,0,1,249.2,155.11Z" fill="currentColor"></path><path d="M252.58,157.35l-2.3,1.32a.59.59,0,0,0,0,1.11l1,.59a2.18,2.18,0,0,0,1.93,0l2.3-1.33a.58.58,0,0,0,0-1.1l-1-.59A2.1,2.1,0,0,0,252.58,157.35Z" fill="currentColor"></path><path d="M255.74,158.87a1,1,0,0,1-.22.17l-2.3,1.33a2.16,2.16,0,0,1-1.92,0l-1-.59a1,1,0,0,1-.22-.17.59.59,0,0,1-.18-.36V160a.69.69,0,0,0,.4.56l1,.58a2.13,2.13,0,0,0,1.92,0l2.3-1.33a.68.68,0,0,0,.4-.55v-.77A.52.52,0,0,1,255.74,158.87Z" fill="currentColor"></path><path d="M257.67,160.3l-2.29,1.32c-.54.31-.54.8,0,1.11l1,.59a2.18,2.18,0,0,0,1.93,0l2.3-1.33a.58.58,0,0,0,0-1.1l-1-.59A2.12,2.12,0,0,0,257.67,160.3Z" fill="currentColor"></path><path d="M260.84,161.82a1.08,1.08,0,0,1-.23.18l-2.29,1.32a2.18,2.18,0,0,1-1.93,0l-1-.59a1,1,0,0,1-.22-.17.59.59,0,0,1-.18-.36v.74a.67.67,0,0,0,.4.56l1,.58a2.15,2.15,0,0,0,1.93,0l2.29-1.33a.66.66,0,0,0,.4-.55v-.77A.55.55,0,0,1,260.84,161.82Z" fill="currentColor"></path><path d="M262.71,163.24l-2.3,1.32a.59.59,0,0,0,0,1.11l1,.59a2.1,2.1,0,0,0,1.92,0l2.3-1.32a.59.59,0,0,0,0-1.11l-1-.59A2.1,2.1,0,0,0,262.71,163.24Z" fill="currentColor"></path><path d="M265.87,164.77a.8.8,0,0,1-.22.17l-2.3,1.32a2.1,2.1,0,0,1-1.92,0l-1-.59a1.4,1.4,0,0,1-.22-.16.61.61,0,0,1-.18-.37v.75a.68.68,0,0,0,.4.55l1,.59a2.1,2.1,0,0,0,1.92,0l2.3-1.32a.68.68,0,0,0,.4-.56v-.77A.54.54,0,0,1,265.87,164.77Z" fill="currentColor"></path><path d="M240.6,156.72,238.3,158a.59.59,0,0,0,0,1.11l1,.59a2.16,2.16,0,0,0,1.92,0l2.3-1.32c.54-.31.54-.81,0-1.11l-1-.59A2.1,2.1,0,0,0,240.6,156.72Z" fill="currentColor"></path><path d="M243.76,158.24a.67.67,0,0,1-.22.18l-2.3,1.32a2.16,2.16,0,0,1-1.92,0l-1-.59a1.37,1.37,0,0,1-.23-.17.57.57,0,0,1-.17-.36v.75a.66.66,0,0,0,.4.55l1,.58a2.07,2.07,0,0,0,1.92,0l2.3-1.33a.66.66,0,0,0,.4-.55v-.77A.52.52,0,0,1,243.76,158.24Z" fill="currentColor"></path><path d="M247.14,160.48l-2.29,1.33a.59.59,0,0,0,0,1.11l1,.58a2.12,2.12,0,0,0,1.93,0l2.3-1.32a.59.59,0,0,0,0-1.11l-1-.59A2.12,2.12,0,0,0,247.14,160.48Z" fill="currentColor"></path><path d="M250.31,162a1.28,1.28,0,0,1-.22.17l-2.3,1.32a2.1,2.1,0,0,1-1.92,0l-1-.59a1.4,1.4,0,0,1-.22-.16.59.59,0,0,1-.18-.36v.74a.66.66,0,0,0,.4.55l1,.59a2.1,2.1,0,0,0,1.92,0l2.3-1.32a.69.69,0,0,0,.39-.56v-.76A.57.57,0,0,1,250.31,162Z" fill="currentColor"></path><path d="M252.24,163.43l-2.3,1.33a.59.59,0,0,0,0,1.11l1,.58a2.1,2.1,0,0,0,1.92,0l2.3-1.32c.53-.31.54-.8,0-1.11l-1-.59A2.16,2.16,0,0,0,252.24,163.43Z" fill="currentColor"></path><path d="M255.4,165a.8.8,0,0,1-.22.17l-2.3,1.32a2.1,2.1,0,0,1-1.92,0l-1-.59a1.52,1.52,0,0,1-.23-.16.57.57,0,0,1-.17-.36v.74a.67.67,0,0,0,.4.56l1,.58a2.1,2.1,0,0,0,1.92,0l2.3-1.32a.68.68,0,0,0,.4-.56v-.76A.54.54,0,0,1,255.4,165Z" fill="currentColor"></path><path d="M257.27,166.38,255,167.7a.59.59,0,0,0,0,1.11l1,.59a2.18,2.18,0,0,0,1.93,0l2.3-1.33a.58.58,0,0,0,0-1.1l-1-.59A2.12,2.12,0,0,0,257.27,166.38Z" fill="currentColor"></path><path d="M260.44,167.9a1.28,1.28,0,0,1-.22.17l-2.3,1.33a2.16,2.16,0,0,1-1.92,0l-1-.59a1,1,0,0,1-.22-.17.59.59,0,0,1-.18-.36V169a.67.67,0,0,0,.4.56l1,.58a2.13,2.13,0,0,0,1.92,0l2.3-1.33a.68.68,0,0,0,.4-.55v-.77A.56.56,0,0,1,260.44,167.9Z" fill="currentColor"></path><path d="M235.17,159.85l-2.3,1.33a.59.59,0,0,0,0,1.11l1,.58a2.1,2.1,0,0,0,1.92,0l2.3-1.32a.59.59,0,0,0,0-1.11l-1-.59A2.16,2.16,0,0,0,235.17,159.85Z" fill="currentColor"></path><path d="M238.33,161.38a.8.8,0,0,1-.22.17l-2.3,1.32a2.1,2.1,0,0,1-1.92,0l-1-.59-.22-.16a.65.65,0,0,1-.18-.36v.74a.69.69,0,0,0,.4.56l1,.58a2.13,2.13,0,0,0,1.92,0l2.3-1.33a.68.68,0,0,0,.4-.56V161A.54.54,0,0,1,238.33,161.38Z" fill="currentColor"></path><path d="M241.71,163.62l-2.3,1.32a.59.59,0,0,0,0,1.11l1,.59a2.16,2.16,0,0,0,1.92,0l2.3-1.32c.54-.31.54-.81,0-1.11l-1-.59A2.1,2.1,0,0,0,241.71,163.62Z" fill="currentColor"></path><path d="M244.87,165.14a.82.82,0,0,1-.22.18l-2.3,1.32a2.16,2.16,0,0,1-1.92,0l-1-.59a1.37,1.37,0,0,1-.23-.17.57.57,0,0,1-.17-.36v.75a.66.66,0,0,0,.4.55l1,.58a2.13,2.13,0,0,0,1.92,0l2.3-1.33a.66.66,0,0,0,.4-.55v-.77A.52.52,0,0,1,244.87,165.14Z" fill="currentColor"></path><path d="M246.81,166.57l-2.3,1.32a.59.59,0,0,0,0,1.11l1,.59a2.16,2.16,0,0,0,1.92,0l2.3-1.32a.59.59,0,0,0,0-1.11l-1-.59A2.1,2.1,0,0,0,246.81,166.57Z" fill="currentColor"></path><path d="M250,168.09a.67.67,0,0,1-.22.18l-2.3,1.32a2.16,2.16,0,0,1-1.92,0l-1-.59a1,1,0,0,1-.22-.17.59.59,0,0,1-.18-.36v.75a.68.68,0,0,0,.4.55l1,.58a2.07,2.07,0,0,0,1.92,0l2.3-1.33a.66.66,0,0,0,.4-.55v-.77A.52.52,0,0,1,250,168.09Z" fill="currentColor"></path><path d="M251.84,169.51l-2.29,1.33c-.54.3-.54.8,0,1.11l1,.58a2.1,2.1,0,0,0,1.92,0l2.31-1.32a.59.59,0,0,0,0-1.11l-1-.59A2.1,2.1,0,0,0,251.84,169.51Z" fill="currentColor"></path><path d="M255,171a1.06,1.06,0,0,1-.23.17l-2.3,1.32a2.1,2.1,0,0,1-1.92,0l-1-.59a1.4,1.4,0,0,1-.22-.16.54.54,0,0,1-.18-.36v.74a.65.65,0,0,0,.4.55l1,.59a2.1,2.1,0,0,0,1.92,0l2.3-1.32a.68.68,0,0,0,.4-.56v-.77A.57.57,0,0,1,255,171Z" fill="currentColor"></path><path d="M229.74,163l-2.3,1.32a.59.59,0,0,0,0,1.11l1,.59a2.12,2.12,0,0,0,1.93,0l2.3-1.32a.59.59,0,0,0,0-1.11l-1-.59A2.1,2.1,0,0,0,229.74,163Z" fill="currentColor"></path><path d="M232.9,164.52a1,1,0,0,1-.22.17l-2.3,1.32a2.16,2.16,0,0,1-1.92,0l-1-.59a1,1,0,0,1-.22-.17.57.57,0,0,1-.18-.36v.75a.68.68,0,0,0,.4.55l1,.59a2.1,2.1,0,0,0,1.92,0l2.3-1.33a.68.68,0,0,0,.4-.55v-.77A.54.54,0,0,1,232.9,164.52Z" fill="currentColor"></path><path d="M236.28,166.75l-2.3,1.33a.59.59,0,0,0,0,1.11l1,.58a2.1,2.1,0,0,0,1.92,0l2.3-1.32a.59.59,0,0,0,0-1.11l-1-.59A2.16,2.16,0,0,0,236.28,166.75Z" fill="currentColor"></path><path d="M239.44,168.28a.8.8,0,0,1-.22.17l-2.3,1.32a2.1,2.1,0,0,1-1.92,0l-1-.59-.22-.16a.65.65,0,0,1-.18-.36v.74a.69.69,0,0,0,.4.56l1,.58a2.1,2.1,0,0,0,1.92,0l2.3-1.32a.68.68,0,0,0,.4-.56v-.76A.54.54,0,0,1,239.44,168.28Z" fill="currentColor"></path><path d="M241.37,169.7,239.08,171a.59.59,0,0,0,0,1.11l1,.58a2.12,2.12,0,0,0,1.93,0l2.3-1.32a.59.59,0,0,0,0-1.11l-1-.59A2.18,2.18,0,0,0,241.37,169.7Z" fill="currentColor"></path><path d="M244.54,171.23a1,1,0,0,1-.22.17l-2.3,1.32a2.1,2.1,0,0,1-1.92,0l-1-.58a1.4,1.4,0,0,1-.22-.17.59.59,0,0,1-.18-.36v.74a.67.67,0,0,0,.4.56l1,.58a2.13,2.13,0,0,0,1.92,0l2.3-1.33a.71.71,0,0,0,.4-.56v-.76A.54.54,0,0,1,244.54,171.23Z" fill="currentColor"></path><path d="M246.41,172.65l-2.3,1.32a.59.59,0,0,0,0,1.11l1,.59a2.16,2.16,0,0,0,1.92,0l2.3-1.32c.53-.31.54-.81,0-1.11l-1-.59A2.1,2.1,0,0,0,246.41,172.65Z" fill="currentColor"></path><path d="M249.57,174.17a.82.82,0,0,1-.22.18l-2.3,1.32a2.16,2.16,0,0,1-1.92,0l-1-.59a1.06,1.06,0,0,1-.23-.17.57.57,0,0,1-.17-.36v.75a.66.66,0,0,0,.4.55l1,.58a2.13,2.13,0,0,0,1.92,0l2.3-1.33a.66.66,0,0,0,.4-.55v-.77A.52.52,0,0,1,249.57,174.17Z" fill="currentColor"></path><g style="opacity:0.35000000000000003"><path d="M249.2,155.11a1.28,1.28,0,0,1-.22.17l-2.3,1.32a2.1,2.1,0,0,1-1.92,0l-1-.59a1.4,1.4,0,0,1-.22-.16.59.59,0,0,1-.18-.36v.74a.67.67,0,0,0,.4.56l1,.58a2.1,2.1,0,0,0,1.92,0l2.3-1.32a.69.69,0,0,0,.39-.56v-.76A.57.57,0,0,1,249.2,155.11Z"></path><path d="M255.74,158.87a1,1,0,0,1-.22.17l-2.3,1.33a2.16,2.16,0,0,1-1.92,0l-1-.59a1,1,0,0,1-.22-.17.59.59,0,0,1-.18-.36V160a.69.69,0,0,0,.4.56l1,.58a2.13,2.13,0,0,0,1.92,0l2.3-1.33a.68.68,0,0,0,.4-.55v-.77A.52.52,0,0,1,255.74,158.87Z"></path><path d="M260.84,161.82a1.08,1.08,0,0,1-.23.18l-2.29,1.32a2.18,2.18,0,0,1-1.93,0l-1-.59a1,1,0,0,1-.22-.17.59.59,0,0,1-.18-.36v.74a.67.67,0,0,0,.4.56l1,.58a2.15,2.15,0,0,0,1.93,0l2.29-1.33a.66.66,0,0,0,.4-.55v-.77A.55.55,0,0,1,260.84,161.82Z"></path><path d="M265.87,164.77a.8.8,0,0,1-.22.17l-2.3,1.32a2.1,2.1,0,0,1-1.92,0l-1-.59a1.4,1.4,0,0,1-.22-.16.61.61,0,0,1-.18-.37v.75a.68.68,0,0,0,.4.55l1,.59a2.1,2.1,0,0,0,1.92,0l2.3-1.32a.68.68,0,0,0,.4-.56v-.77A.54.54,0,0,1,265.87,164.77Z"></path><path d="M243.76,158.24a.67.67,0,0,1-.22.18l-2.3,1.32a2.16,2.16,0,0,1-1.92,0l-1-.59a1.37,1.37,0,0,1-.23-.17.57.57,0,0,1-.17-.36v.75a.66.66,0,0,0,.4.55l1,.58a2.07,2.07,0,0,0,1.92,0l2.3-1.33a.66.66,0,0,0,.4-.55v-.77A.52.52,0,0,1,243.76,158.24Z"></path><path d="M250.31,162a1.28,1.28,0,0,1-.22.17l-2.3,1.32a2.1,2.1,0,0,1-1.92,0l-1-.59a1.4,1.4,0,0,1-.22-.16.59.59,0,0,1-.18-.36v.74a.66.66,0,0,0,.4.55l1,.59a2.1,2.1,0,0,0,1.92,0l2.3-1.32a.69.69,0,0,0,.39-.56v-.76A.57.57,0,0,1,250.31,162Z"></path><path d="M255.4,165a.8.8,0,0,1-.22.17l-2.3,1.32a2.1,2.1,0,0,1-1.92,0l-1-.59a1.52,1.52,0,0,1-.23-.16.57.57,0,0,1-.17-.36v.74a.67.67,0,0,0,.4.56l1,.58a2.1,2.1,0,0,0,1.92,0l2.3-1.32a.68.68,0,0,0,.4-.56v-.76A.54.54,0,0,1,255.4,165Z"></path><path d="M260.44,167.9a1.28,1.28,0,0,1-.22.17l-2.3,1.33a2.16,2.16,0,0,1-1.92,0l-1-.59a1,1,0,0,1-.22-.17.59.59,0,0,1-.18-.36V169a.67.67,0,0,0,.4.56l1,.58a2.13,2.13,0,0,0,1.92,0l2.3-1.33a.68.68,0,0,0,.4-.55v-.77A.56.56,0,0,1,260.44,167.9Z"></path><path d="M238.33,161.38a.8.8,0,0,1-.22.17l-2.3,1.32a2.1,2.1,0,0,1-1.92,0l-1-.59-.22-.16a.65.65,0,0,1-.18-.36v.74a.69.69,0,0,0,.4.56l1,.58a2.13,2.13,0,0,0,1.92,0l2.3-1.33a.68.68,0,0,0,.4-.56V161A.54.54,0,0,1,238.33,161.38Z"></path><path d="M244.87,165.14a.82.82,0,0,1-.22.18l-2.3,1.32a2.16,2.16,0,0,1-1.92,0l-1-.59a1.37,1.37,0,0,1-.23-.17.57.57,0,0,1-.17-.36v.75a.66.66,0,0,0,.4.55l1,.58a2.13,2.13,0,0,0,1.92,0l2.3-1.33a.66.66,0,0,0,.4-.55v-.77A.52.52,0,0,1,244.87,165.14Z"></path><path d="M250,168.09a.67.67,0,0,1-.22.18l-2.3,1.32a2.16,2.16,0,0,1-1.92,0l-1-.59a1,1,0,0,1-.22-.17.59.59,0,0,1-.18-.36v.75a.68.68,0,0,0,.4.55l1,.58a2.07,2.07,0,0,0,1.92,0l2.3-1.33a.66.66,0,0,0,.4-.55v-.77A.52.52,0,0,1,250,168.09Z"></path><path d="M255,171a1.06,1.06,0,0,1-.23.17l-2.3,1.32a2.1,2.1,0,0,1-1.92,0l-1-.59a1.4,1.4,0,0,1-.22-.16.54.54,0,0,1-.18-.36v.74a.65.65,0,0,0,.4.55l1,.59a2.1,2.1,0,0,0,1.92,0l2.3-1.32a.68.68,0,0,0,.4-.56v-.77A.57.57,0,0,1,255,171Z"></path><path d="M232.9,164.52a1,1,0,0,1-.22.17l-2.3,1.32a2.16,2.16,0,0,1-1.92,0l-1-.59a1,1,0,0,1-.22-.17.57.57,0,0,1-.18-.36v.75a.68.68,0,0,0,.4.55l1,.59a2.1,2.1,0,0,0,1.92,0l2.3-1.33a.68.68,0,0,0,.4-.55v-.77A.54.54,0,0,1,232.9,164.52Z"></path><path d="M239.44,168.28a.8.8,0,0,1-.22.17l-2.3,1.32a2.1,2.1,0,0,1-1.92,0l-1-.59-.22-.16a.65.65,0,0,1-.18-.36v.74a.69.69,0,0,0,.4.56l1,.58a2.1,2.1,0,0,0,1.92,0l2.3-1.32a.68.68,0,0,0,.4-.56v-.76A.54.54,0,0,1,239.44,168.28Z"></path><path d="M244.54,171.23a1,1,0,0,1-.22.17l-2.3,1.32a2.1,2.1,0,0,1-1.92,0l-1-.58a1.4,1.4,0,0,1-.22-.17.59.59,0,0,1-.18-.36v.74a.67.67,0,0,0,.4.56l1,.58a2.13,2.13,0,0,0,1.92,0l2.3-1.33a.71.71,0,0,0,.4-.56v-.76A.54.54,0,0,1,244.54,171.23Z"></path><path d="M249.57,174.17a.82.82,0,0,1-.22.18l-2.3,1.32a2.16,2.16,0,0,1-1.92,0l-1-.59a1.06,1.06,0,0,1-.23-.17.57.57,0,0,1-.17-.36v.75a.66.66,0,0,0,.4.55l1,.58a2.13,2.13,0,0,0,1.92,0l2.3-1.33a.66.66,0,0,0,.4-.55v-.77A.52.52,0,0,1,249.57,174.17Z"></path></g><path d="M259.24,144.47a.22.22,0,0,1,.06-.12l1.84-2.23a.21.21,0,0,1,.12-.08.17.17,0,0,1,.13,0l1.15.65s.06.05,0,.09,0,.07-.07.13l-.08.09a.35.35,0,0,1-.12.1.11.11,0,0,1-.11,0l-.76-.43-.51.62.68.39s.05,0,0,.08a.23.23,0,0,1-.07.13l-.07.09a.44.44,0,0,1-.12.1.09.09,0,0,1-.11,0l-.68-.38-.56.68.76.43a.08.08,0,0,1,.05.08.32.32,0,0,1-.08.13l-.07.09a.54.54,0,0,1-.12.11.14.14,0,0,1-.11,0l-1.16-.66A.16.16,0,0,1,259.24,144.47Z" style="fill:#455a64"></path><path d="M261.07,145.41l1.87-2.26a.17.17,0,0,1,.12-.08.21.21,0,0,1,.13,0l.64.37c.53.3.61.67.24,1.13a1,1,0,0,1-.88.38v0a.67.67,0,0,1-.05.54l-.33.82s0,0,0,0l0,0c0,.05-.14,0-.28,0l-.12-.07c-.12-.07-.17-.13-.13-.2l.35-.8a.53.53,0,0,0,0-.23.32.32,0,0,0-.15-.16l-.15-.08-.73.88c-.06.07-.15.06-.29,0l-.11-.06C261.05,145.55,261,145.48,261.07,145.41Zm1.89-.86a.29.29,0,0,0,.26,0,.64.64,0,0,0,.29-.21.45.45,0,0,0,.13-.3.21.21,0,0,0-.13-.19l-.27-.15-.56.68Z" style="fill:#455a64"></path><path d="M263.1,146.57,265,144.3a.21.21,0,0,1,.11-.08.16.16,0,0,1,.13,0l.64.36c.53.3.61.68.24,1.13a1,1,0,0,1-.87.39h0a.65.65,0,0,1,0,.55l-.33.82s0,0,0,0l0,0c0,.06-.14,0-.28,0l-.11-.06c-.13-.07-.17-.14-.14-.2l.35-.81a.53.53,0,0,0,0-.23.35.35,0,0,0-.15-.15l-.15-.09-.73.88c-.05.07-.15.07-.29,0l-.11-.06C263.08,146.71,263,146.64,263.1,146.57Zm1.89-.86a.33.33,0,0,0,.26,0,.66.66,0,0,0,.29-.22.45.45,0,0,0,.14-.29.23.23,0,0,0-.14-.19l-.27-.16-.56.69Z" style="fill:#455a64"></path><path d="M266,146.52c.7-.84,1.39-1.07,2.07-.68s.67,1,0,1.84-1.4,1.08-2.08.7S265.3,147.37,266,146.52Zm.82,1.47a2.22,2.22,0,0,0,.68-.61,1.9,1.9,0,0,0,.44-.74.35.35,0,0,0-.2-.4.55.55,0,0,0-.53,0,2.19,2.19,0,0,0-.67.61,1.72,1.72,0,0,0-.44.74.35.35,0,0,0,.2.41A.56.56,0,0,0,266.83,148Z" style="fill:#455a64"></path><path d="M267.5,149.07l1.88-2.27a.23.23,0,0,1,.12-.08.24.24,0,0,1,.13,0l.63.36c.53.31.61.68.24,1.13a1,1,0,0,1-.87.39v0a.71.71,0,0,1-.05.54l-.34.82a0,0,0,0,1,0,0,0,0,0,0,1,0,0c0,.06-.14.05-.28,0l-.12-.07c-.12-.07-.17-.14-.14-.2L269,149a.33.33,0,0,0,0-.23q0-.08-.15-.15l-.14-.08-.73.88c-.06.07-.16.06-.3,0l-.11-.06C267.49,149.21,267.45,149.14,267.5,149.07Zm1.9-.86a.29.29,0,0,0,.26,0,.69.69,0,0,0,.28-.21.49.49,0,0,0,.14-.3.25.25,0,0,0-.13-.19l-.27-.15-.57.68Z" style="fill:#455a64"></path><path d="M270.2,150.73a.69.69,0,0,1-.18-.23.19.19,0,0,1,0-.17.67.67,0,0,1,.2-.11c.1,0,.16-.05.2,0s0,0,.06.09a.61.61,0,0,0,.12.16.58.58,0,0,0,.19.15.46.46,0,0,0,.38,0,.66.66,0,0,0,.37-.24c.23-.29.19-.52-.13-.7l-.34-.2c-.06,0-.08-.06-.08-.09s0-.07.05-.12l.94-1a.2.2,0,0,1,.13-.08.22.22,0,0,1,.13,0l1,.59s.06,0,.05.08a.19.19,0,0,1-.07.13l-.06.08a.39.39,0,0,1-.11.09.12.12,0,0,1-.1,0l-.73-.41-.53.56.1.06a.74.74,0,0,1,.23,1.28,1.08,1.08,0,0,1-.76.45,1.25,1.25,0,0,1-.78-.17A1.39,1.39,0,0,1,270.2,150.73Z" style="fill:#455a64"></path><path d="M272.13,151.4a2.4,2.4,0,0,1,.58-1.06,2.94,2.94,0,0,1,1-.83.9.9,0,0,1,.86,0,.61.61,0,0,1,.33.66,2.37,2.37,0,0,1-.58,1.07,3.06,3.06,0,0,1-1,.83.92.92,0,0,1-.87,0A.6.6,0,0,1,272.13,151.4Zm.84.31a1.09,1.09,0,0,0,.33-.22,8,8,0,0,0,.92-1.11.89.89,0,0,0,.13-.33.15.15,0,0,0-.09-.17.24.24,0,0,0-.22,0,1.07,1.07,0,0,0-.32.22,5.92,5.92,0,0,0-.49.54,4.9,4.9,0,0,0-.43.58.84.84,0,0,0-.14.33.17.17,0,0,0,.09.16A.24.24,0,0,0,273,151.71Z" style="fill:#455a64"></path><path d="M273.74,152.69q-.18-.21-.09-.33a.52.52,0,0,1,.19-.11q.14-.06.18,0a.25.25,0,0,1,.07.09,1,1,0,0,0,.13.19.7.7,0,0,0,.18.14.57.57,0,0,0,.38.07.58.58,0,0,0,.38-.23.47.47,0,0,0,.13-.37.53.53,0,0,0-.28-.3l-.15-.08a.08.08,0,0,1-.05-.08.23.23,0,0,1,.07-.14l0,0a.35.35,0,0,1,.13-.1.11.11,0,0,1,.11,0l.11.06a.53.53,0,0,0,.4.07.56.56,0,0,0,.32-.18.34.34,0,0,0,.1-.27.33.33,0,0,0-.19-.24.8.8,0,0,0-.21-.08l-.18,0h-.1s-.05-.07,0-.15a.43.43,0,0,1,.06-.19c.06-.07.18-.09.35-.05a1.68,1.68,0,0,1,.52.2.76.76,0,0,1,.41.47.68.68,0,0,1-.17.57.86.86,0,0,1-.37.26.93.93,0,0,1-.44,0v0a.62.62,0,0,1,.14.43.79.79,0,0,1-.21.48,1.12,1.12,0,0,1-.44.34,1.08,1.08,0,0,1-.5.09,1.16,1.16,0,0,1-.51-.15A2.13,2.13,0,0,1,273.74,152.69Z" style="fill:#455a64"></path></g><g id="freepik--phone--inject-86"><path d="M219.94,182.35l-3.7,2.14-5.13,3-17.8-10.28,5.39-3.11,4.67-2.7a8.9,8.9,0,0,0,3.07,3.2l9,5.22a4.56,4.56,0,0,0,1.81.61Z" style="fill:#455a64"></path><path d="M219.94,182.35l-3.7,2.14-5.13,3-17.8-10.28,5.39-3.11,4.67-2.7a8.9,8.9,0,0,0,3.07,3.2l9,5.22a4.56,4.56,0,0,0,1.81.61Z" style="opacity:0.1"></path><path d="M229.21,182.6v3.06a2.86,2.86,0,0,1-1.35,2.38h0l-.78.46-8.57,5a3.16,3.16,0,0,0,1.88-2.72V187.7a2.07,2.07,0,0,0,1-.24l7.41-4.28A.71.71,0,0,0,229.21,182.6Z" style="fill:#263238"></path><path d="M203.37,171.36l-4.67,2.7-4.16,2.4A5.38,5.38,0,0,1,194,175l-.64-2.9v0a2,2,0,0,0,1-.23l7.41-4.28a.75.75,0,0,0,.41-.53h0l.63,2.86A5.46,5.46,0,0,0,203.37,171.36Z" style="fill:#263238"></path><path d="M219.38,187.46l-7.86-4.53a.83.83,0,0,1-.4-.49v-.09s-.32,1-.72,2.13-2.07,1.36-3.74.4l-9-5.22A8.51,8.51,0,0,1,194,175l-.64-2.91h0a2.13,2.13,0,0,1-1-.23l-7.85-4.54a.69.69,0,0,1-.42-.57v3.9a8.44,8.44,0,0,0,1.5,3.94,22.86,22.86,0,0,0,6.86,6.34s16.5,9.55,19.63,11.33,5.53,1.78,6.47,1.24a3.16,3.16,0,0,0,1.88-2.72V187.7A2,2,0,0,1,219.38,187.46Z" style="fill:#37474f"></path><path d="M194.32,171.84l7.41-4.28a.61.61,0,0,0,0-1.16l-7.85-4.54a2.22,2.22,0,0,0-2,0l-7.41,4.28a.61.61,0,0,0,0,1.16l7.85,4.54A2.22,2.22,0,0,0,194.32,171.84Z" style="fill:#455a64"></path><path d="M189.6,168.87c-1.93-1.11-1.93-2.92,0-4a7.72,7.72,0,0,1,7,0c1.93,1.12,1.93,2.92,0,4A7.75,7.75,0,0,1,189.6,168.87Z" style="fill:#37474f"></path><ellipse cx="190.92" cy="165.61" rx="0.52" ry="0.3" style="fill:#263238"></ellipse><path d="M190.15,166.29c.29,0,.48.18.43.34s-.31.28-.59.25-.47-.18-.43-.34S189.87,166.27,190.15,166.29Z" style="fill:#263238"></path><path d="M190.15,167.4a.7.7,0,0,1,.69.13c.13.15,0,.33-.22.4a.72.72,0,0,1-.7-.13C189.79,167.65,189.89,167.47,190.15,167.4Z" style="fill:#263238"></path><path d="M191.27,168.29a.76.76,0,0,1,.69-.13c.26.08.36.26.23.4a.74.74,0,0,1-.7.14C191.24,168.62,191.14,168.44,191.27,168.29Z" style="fill:#263238"></path><path d="M193.08,168.64c0-.17.15-.32.44-.34s.54.08.59.24-.15.32-.43.35S193.13,168.8,193.08,168.64Z" style="fill:#263238"></path><path d="M194.91,168.3c-.21-.12-.21-.31,0-.42a.79.79,0,0,1,.73,0c.2.11.2.3,0,.42A.79.79,0,0,1,194.91,168.3Z" style="fill:#263238"></path><path d="M196,167.41c-.29,0-.48-.18-.44-.34s.31-.28.6-.25.47.18.43.34S196.32,167.43,196,167.41Z" style="fill:#263238"></path><path d="M196,166.3a.72.72,0,0,1-.7-.13c-.13-.14,0-.32.23-.4a.72.72,0,0,1,.7.13C196.4,166.05,196.3,166.23,196,166.3Z" style="fill:#263238"></path><path d="M194.92,165.41a.77.77,0,0,1-.7.13c-.25-.08-.35-.26-.22-.4a.7.7,0,0,1,.69-.13C195,165.08,195.05,165.26,194.92,165.41Z" style="fill:#263238"></path><path d="M193.1,165.06c.05.17-.14.32-.43.35s-.55-.09-.59-.25.15-.32.43-.35S193.06,164.9,193.1,165.06Z" style="fill:#263238"></path><path d="M221.39,187.46l7.41-4.28a.61.61,0,0,0,0-1.16l-7.86-4.53a2.22,2.22,0,0,0-2,0l-7.41,4.28a.61.61,0,0,0,0,1.15l7.86,4.54A2.22,2.22,0,0,0,221.39,187.46Z" style="fill:#455a64"></path><path d="M216.67,184.49c-1.93-1.11-1.93-2.91,0-4a7.69,7.69,0,0,1,7,0c1.92,1.11,1.92,2.92,0,4A7.72,7.72,0,0,1,216.67,184.49Z" style="fill:#37474f"></path><path d="M218.35,181a.23.23,0,0,1,0,.43.85.85,0,0,1-.73,0c-.21-.12-.21-.31,0-.43A.85.85,0,0,1,218.35,181Z" style="fill:#263238"></path><path d="M217.22,181.92c.28,0,.47.18.43.34s-.31.27-.59.25-.48-.18-.43-.35S216.94,181.89,217.22,181.92Z" style="fill:#263238"></path><path d="M217.21,183a.74.74,0,0,1,.7.13c.13.15,0,.33-.23.4a.7.7,0,0,1-.69-.13C216.86,183.28,217,183.1,217.21,183Z" style="fill:#263238"></path><path d="M218.33,183.92a.72.72,0,0,1,.7-.13c.25.07.36.25.23.4a.75.75,0,0,1-.7.13C218.3,184.24,218.2,184.06,218.33,183.92Z" style="fill:#263238"></path><path d="M220.15,184.26c0-.16.15-.32.43-.34s.55.08.59.25-.14.31-.43.34S220.2,184.42,220.15,184.26Z" style="fill:#263238"></path><path d="M222,183.92c-.2-.11-.2-.3,0-.42a.79.79,0,0,1,.73,0c.21.12.21.31,0,.42A.79.79,0,0,1,222,183.92Z" style="fill:#263238"></path><path d="M223.1,183c-.28,0-.47-.18-.43-.34s.31-.28.59-.25.48.18.43.34S223.38,183.06,223.1,183Z" style="fill:#263238"></path><path d="M223.11,181.93a.77.77,0,0,1-.7-.13c-.13-.15,0-.33.23-.41a.76.76,0,0,1,.69.13C223.46,181.67,223.36,181.85,223.11,181.93Z" style="fill:#263238"></path><path d="M222,181a.72.72,0,0,1-.7.13c-.25-.07-.36-.25-.23-.4a.72.72,0,0,1,.7-.13C222,180.7,222.12,180.88,222,181Z" style="fill:#263238"></path><path d="M220.17,180.69c0,.16-.15.31-.43.34s-.55-.09-.59-.25.14-.32.43-.34S220.12,180.52,220.17,180.69Z" style="fill:#263238"></path></g></g><g id="freepik--Keyboard--inject-86"><path id="freepik--shadow--inject-86" d="M353.61,234.75l-27.54,16a3.22,3.22,0,0,1-2.93,0l-77.46-44.66a.9.9,0,0,1,0-1.7l27.53-16a3.24,3.24,0,0,1,2.94,0l77.46,44.66A.9.9,0,0,1,353.61,234.75Z" style="opacity:0.2"></path><g id="freepik--keyboard--inject-86"><path d="M247.79,201.14a1,1,0,0,1,.61-.84l24.51-14.15a3.22,3.22,0,0,1,2.93,0l74.79,43.25a1,1,0,0,1,.61.85v2.57a1,1,0,0,1-.61.84l-24.5,14.15a3.22,3.22,0,0,1-2.93,0l-74.8-43.19a1,1,0,0,1-.61-.84Z" style="fill:#263238"></path><path d="M326.13,245.18l24.5-14.09a.89.89,0,0,0,0-1.69l-74.79-43.25a3.22,3.22,0,0,0-2.93,0L248.4,200.3a.89.89,0,0,0,0,1.69l74.8,43.18A3.25,3.25,0,0,0,326.13,245.18Z" style="fill:#37474f"></path><path d="M324.76,245.52v2.63a3,3,0,0,0,1.38-.34l24.49-14.14a1,1,0,0,0,.6-.85v-2.58a1,1,0,0,1-.6.85l-24.49,14.09A3.09,3.09,0,0,1,324.76,245.52Z" style="fill:#263238"></path><path d="M252.33,201.33s0,0,0,0l2.43-1.4,3.29,1.9-2.44,1.45-3.29-1.9Zm3.8-2.19s0,0,0,0l2.42-1.4,2.59,1.49-2.44,1.45-2.58-1.49Zm.8,4.85s0,0,0,0l2.43-1.41,2.58,1.5-2.44,1.44L256.94,204Zm3-7a.05.05,0,0,1,0,0l2.42-1.4,4.18,2.42-2.44,1.44L259.93,197Zm.09,4.44a.05.05,0,0,1,0,0l2.43-1.4,2,1.19-2.44,1.45L260,201.4Zm.8,4.84s0,0,0,0l2.42-1.4,2.59,1.49-2.44,1.45-2.58-1.49Zm2.56-2.9a.05.05,0,0,1,0,0l2.43-1.4,2.05,1.19-2.44,1.45-2.05-1.19Zm.35-8.58v0l2.43-1.4,3.29,1.9L267,196.67l-3.29-1.9Zm1,13.73a0,0,0,0,1,0,0l2.43-1.4,18.67,10.78-2.44,1.45L264.72,208.5Zm.7-8.37s0,0,0,0l2.43-1.4,2.05,1.19-2.44,1.44-2.05-1.18Zm1.33,5.16a.05.05,0,0,1,0,0l2.43-1.4,2.05,1.19-2.44,1.45-2.05-1.19Zm.79-12.71v0l2.43-1.4,2,1.18-2.44,1.45-2.05-1.18Zm.8,4.85a0,0,0,0,1,0,0l2.43-1.4,2.05,1.18-2.44,1.45-2.05-1.18Zm.44,4.64s0,0,0,0l2.43-1.4,2,1.19-2.44,1.44-2.05-1.18Zm1.33,5.16a.05.05,0,0,1,0,0l2.43-1.4L274.6,207l-2.44,1.45-2.05-1.19Zm.79-12.71v0l2.43-1.4,2.05,1.18-2.44,1.45-2.05-1.18Zm.8,4.85a0,0,0,0,1,0,0l2.43-1.4,2.05,1.18-2.44,1.45-2.05-1.18Zm.44,4.64s0,0,0,0l2.43-1.4,2.05,1.19-2.44,1.44L272.14,204Zm0-14.09a0,0,0,0,1,0,0l2.43-1.4,2.58,1.49-2.44,1.45-2.58-1.49Zm1.33,19.25s0,0,0,0l2.43-1.4,2,1.19-2.44,1.45-2-1.19Zm.79-12.71v0l2.43-1.4,2.05,1.18-2.44,1.45-2.05-1.18Zm.8,4.85a0,0,0,0,1,0,0l2.43-1.4,2.05,1.18-2.44,1.45-2.05-1.18Zm.44,4.64s0,0,0,0l2.43-1.4,2.05,1.19-2.44,1.44L275.5,206Zm1.33,5.16s0,0,0,0l2.43-1.4,2.05,1.19-2.44,1.45-2.05-1.19Zm.67-18.1a0,0,0,0,1,0,0l2.43-1.4,2.05,1.18-2.44,1.45L277.49,193Zm.11,5.39,0,0,2.43-1.4,2.05,1.18-2.44,1.45-2.05-1.18Zm.81,4.85a0,0,0,0,1,0,0l2.43-1.4,2,1.18-2.44,1.45-2-1.18Zm.44,4.64s0,0,0,0l2.43-1.4,2.05,1.19-2.44,1.44-2.05-1.18Zm1.33,5.16s0,0,0,0l2.43-1.4,2.05,1.19-2.44,1.45L280.19,213Zm.67-18.1a0,0,0,0,1,0,0l2.43-1.4,2,1.18-2.44,1.45-2-1.18Zm.11,5.39,0,0,2.43-1.4,2,1.19L283,201.52l-2-1.18Zm.81,4.85a0,0,0,0,1,0,0l2.43-1.4,2.05,1.18-2.44,1.45-2.05-1.18Zm.44,4.64s0,0,0,0l2.43-1.4,2,1.19L284.27,211l-2-1.18Zm1.33,5.16s0,0,0,0l2.43-1.4,2.05,1.19-2.44,1.45L283.55,215Zm.67-18.1a0,0,0,0,1,0,0l2.43-1.4,2.05,1.18-2.44,1.45-2.05-1.18Zm.12,5.39a0,0,0,0,1,0,0l2.43-1.4,2.05,1.19-2.44,1.44-2.05-1.18ZM284.7,220s0,0,0,0l2.42-1.41,2.58,1.5-2.44,1.45L284.7,220Zm.43-12.91a0,0,0,0,1,0,0l2.43-1.4,2.05,1.18-2.44,1.45-2.05-1.18Zm.44,4.64s0,0,0,0l2.43-1.4,2.05,1.19L287.63,213l-2.05-1.18Zm1.33,5.16s0,0,0,0l2.43-1.4,2,1.19L289,218.11l-2-1.19Zm.67-18.1a0,0,0,0,1,0,0l2.43-1.4,2.05,1.18L289.62,200l-2.05-1.18Zm.12,5.39v0l2.43-1.4,2.05,1.19-2.44,1.44-2.05-1.18Zm.8,4.85a0,0,0,0,1,0,0l2.43-1.4L293,208.8l-2.44,1.45-2.05-1.18Zm.1,13.21,0,0,2.42-1.4,2.59,1.49-2.45,1.45-2.58-1.49Zm.34-8.57,0,0,2.43-1.4,2.05,1.19L291,214.89l-2.05-1.18Zm1.33,5.16s0,0,0,0l2.43-1.4,2.05,1.19-2.44,1.45-2.05-1.19Zm.79-12.71v0l2.43-1.4,2.05,1.18-2.44,1.45-2.05-1.18Zm.8,4.85a0,0,0,0,1,0,0l2.43-1.4,2,1.18-2.44,1.45-2-1.18Zm.44,4.64s0,0,0,0l2.43-1.4,2.05,1.19-2.44,1.44-2.05-1.18Zm.1-14,0,0,2.42-1.4,2.06,1.19-2.45,1.45-2.05-1.19Zm.09,22.92s0,0,0,0l2.42-1.4,2.59,1.49L295.06,226l-2.58-1.49Zm1.14-3.73,0,0,2.43-1.4,2.05,1.19L295.68,222l-2.05-1.19Zm.79-12.7a0,0,0,0,1,0,0l2.43-1.4,2,1.18-2.44,1.45-2-1.18Zm.8,4.85a0,0,0,0,1,0,0l2.43-1.4,2.05,1.18-2.44,1.45L295.21,213Zm.44,4.64s0,0,0,0l2.43-1.4,2,1.19-2.44,1.44-2-1.18Zm.1-14,0,0,2.42-1.4,2.06,1.19-2.45,1.45-2.05-1.19Zm.62,23.23s0,0,0,0l2.42-1.41,3.29,1.9-2.44,1.45-3.29-1.9Zm.61-4s0,0,0,0l2.43-1.4L305.9,225l-2.44,1.45L297,222.74Zm.79-12.71a.1.1,0,0,1,0,0l2.43-1.4,2.05,1.19-2.44,1.44L297.77,210Zm.8,4.85a0,0,0,0,1,0,0l2.43-1.4,2.05,1.18-2.44,1.45-2.05-1.18Zm.44,4.64s0,0,0,0l2.43-1.4,2.05,1.19-2.44,1.44L299,219.53Zm.1-14a.05.05,0,0,1,0,0l2.42-1.4,2.06,1.19-2.45,1.45-2.05-1.19Zm2,6.48a0,0,0,0,1,0,0l2.43-1.4,2.05,1.19-2.44,1.44L301.13,212Zm.54,17.86a0,0,0,0,1,0,0l2.43-1.4,2.05,1.18L303.73,231l-2.05-1.18Zm.26-13a0,0,0,0,1,0,0l2.43-1.4,2.05,1.18L304,218l-2.05-1.18Zm.44,4.64,0,0,2.43-1.4,1.87,1.08a1.23,1.23,0,0,0,.59.12,1.39,1.39,0,0,0,.63-.12l3.18-1.84,2.41,1.39-6.24,3.64-4.88-2.82Zm.1-14,0,0,2.42-1.4,2.06,1.19-2.45,1.45-2-1.19Zm2,6.49a.1.1,0,0,1,0,0l2.43-1.4,2.05,1.19-2.44,1.44-2.05-1.18Zm.55,17.86a0,0,0,0,1,0,0l2.43-1.4,2,1.18L307.09,233l-2-1.18Zm.25-13s0,0,0,0l2.42-1.4,2,1.18L307.34,220l-2-1.18Zm2-8.55s0,0,0,0l2.43-1.4,2.05,1.18-2.44,1.45-2.05-1.18Zm.56,5.64a0,0,0,0,1,0,0l2.43-1.4,2,1.19L309.9,217l-2-1.18Zm.54,17.86a0,0,0,0,1,0,0l2.43-1.4,2.05,1.18-2.44,1.45-2.05-1.18Zm.44-4.13a.05.05,0,0,1,0,0l2.43-1.4,2.05,1.19-2.44,1.45-2.05-1.19Zm1.82-17.43s0,0,0,0l2.43-1.4,2,1.18-2.44,1.45-2-1.18Zm.56,5.64a0,0,0,0,1,0,0l2.43-1.4,3.65,2.1-2.45,1.45-3.64-2.1Zm1.25,18.27s0,0,0,0l2.43-1.4,5.41,3.12-2.44,1.45-5.41-3.12Zm.61-12.81s0,0,0,0l2.42-1.4,2.06,1.19-2.44,1.44-2.06-1.18Zm.94-9.16s0,0,0,0l2.43-1.4,2.05,1.18-2.44,1.45L314,214.1Zm2.25,19.78a.05.05,0,0,1,0,0l2.42-1.4,2.06,1.19-2.44,1.45-2.05-1.19Zm.17-8.68s0,0,0,0l2.42-1.4,2.06,1.18-2.45,1.45-2.05-1.18Zm.44-4.13a0,0,0,0,1,0,0l2.43-1.4,2.05,1.18-2.44,1.45-2.05-1.18Zm.5-5s0,0,0,0l2.43-1.4,2.05,1.18-2.44,1.45L317.38,216Zm1.81,23.91a0,0,0,0,1,0,0l2.43-1.4,2.05,1.18-2.44,1.45L319.19,240Zm.44-4.13a.05.05,0,0,1,0,0l2.42-1.4,2.06,1.19L321.68,237l-2.05-1.19Zm.17-8.68s0,0,0,0l2.42-1.4,2.06,1.19-2.45,1.44-2-1.18Zm.27,4.54s0,0,0,0l2.42-1.4,2.05,1.19-2.44,1.44-2.05-1.18Zm.17-8.67a0,0,0,0,1,0,0l2.43-1.4,2.05,1.18-2.44,1.45-2-1.18Zm1.25-4.6a0,0,0,0,1,0,0l2.43-1.4,2.05,1.18-2.44,1.45-2-1.18Zm1.06,23.48a0,0,0,0,1,0,0l6.22-3.6,2.06,1.19-6.24,3.64-2.05-1.18Zm.44-4.13a.05.05,0,0,1,0,0l2.42-1.4,2.06,1.19L325,238.94,323,237.75Zm.44-4.14s0,0,0,0l2.42-1.4,2.05,1.19-2.44,1.44-2.05-1.18Zm.17-8.67a0,0,0,0,1,0,0l2.43-1.4,2.05,1.18-2.44,1.45L323.59,225Zm.27,4.54a0,0,0,0,1,0,0l2.43-1.4,2.05,1.18-2.44,1.45-2.05-1.18Zm1-9.14a0,0,0,0,1,0,0l2.43-1.4,2.05,1.18-2.44,1.45-2.05-1.18Zm1.94,15.21s0,0,0,0l2.42-1.4,2,1.19-2.44,1.44-2.05-1.18Zm.44-4.13a0,0,0,0,1,0,0l2.43-1.4,2,1.18-2.44,1.45-2-1.18Zm.43-4.13a0,0,0,0,1,0,0l2.43-1.4,2,1.18-2.44,1.45-2-1.19Zm.55-5a0,0,0,0,1,0,0l2.43-1.4,2.05,1.18-2.44,1.45-2.05-1.18Zm1.94,15.21s0,0,0,0l6.22-3.59,2.05,1.18-6.23,3.65-2.06-1.19Zm.44-4.13a0,0,0,0,1,0,0l2.43-1.4,2.05,1.18-2.44,1.45-2.05-1.18Zm.43-4.13a0,0,0,0,1,0,0l2.43-1.4,2.05,1.18-2.44,1.45L331,229.23Zm2.23-5.17s0,0,0,0l1-.61,2,1.19-1,.65-2.05-1.18Zm1.13,7.11a0,0,0,0,1,0,0l2.43-1.4,2.05,1.18-2.44,1.45-2.05-1.19ZM336.6,226s0,0,0,0l1-.61,2.05,1.19-1.05.65-2-1.18Zm1.13,7.11a0,0,0,0,1,0,0l2.43-1.4,2.05,1.18-2.44,1.45-2.05-1.18Zm2.23-5.17s0,0,0,0l1-.61,2.05,1.19-1.05.65L340,228Zm3.36,1.94s0,0,0,0l1-.61,2.05,1.19-1.05.65-2.05-1.18Z" fill="currentColor"></path></g></g><g id="freepik--Device--inject-86"><path id="freepik--shadow--inject-86" d="M417.4,235.75l15.92-9.18c2.39-1.39,2.39-3.62,0-5L319.1,155.62a9.57,9.57,0,0,0-8.66,0l-15.92,9.19c-2.39,1.38-2.39,3.62,0,5l114.22,65.94A9.51,9.51,0,0,0,417.4,235.75Z" style="opacity:0.2"></path><g id="freepik--Monitor--inject-86"><path d="M343.49,215.16,325.94,205c-1.81-1-2.71-2.41-2.71-3.78s0-2.44,0-2.44l16.51-9.37a3.85,3.85,0,0,0,1.75-3V164.76l30.64,17.71V204.1a3.87,3.87,0,0,1-1.74,3l-13.79,8A14.47,14.47,0,0,1,343.49,215.16Z" style="fill:#37474f"></path><path d="M364.77,207.93v2.43l5.61-3.23a3.88,3.88,0,0,0,1.75-3V182.47l-5.84-3.37c-.12,1.49-.25,3-.37,4.51L370,186v16.9a3.87,3.87,0,0,1-1.74,3Z" style="fill:#263238"></path><path d="M370,202.89a3.85,3.85,0,0,1-1.75,3l-11.67,6.81a14.47,14.47,0,0,1-13.1,0l-17.55-10.14c-3.62-2.09-3.62-5.48,0-7.57l11.69-6.81a3.87,3.87,0,0,0,1.74-3V168.27L370,186Z" style="fill:#455a64"></path><path d="M334.06,190.26h0l3.56-2.06a3.87,3.87,0,0,0,1.74-3V168.27L370,186v16.91a3.85,3.85,0,0,1-1.75,3l-3.49,2Z" style="fill:#37474f"></path><path d="M419.22,226.22a4.65,4.65,0,0,1-4.23-.08L296.47,157.72a4.82,4.82,0,0,1-2.18-3.78V50.2a4.1,4.1,0,0,1,6.28-3.62L419.08,115a4.82,4.82,0,0,1,2.18,3.78V222.52A4.67,4.67,0,0,1,419.22,226.22Z" style="fill:#37474f"></path><path d="M415,226.14,296.47,157.72a4.82,4.82,0,0,1-2.18-3.78V50.2c0-1.39,1-2,2.18-1.26L415,117.36a4.83,4.83,0,0,1,2.19,3.79V224.88C417.17,226.27,416.19,226.84,415,226.14Z" style="fill:#455a64"></path><path d="M413.07,212.1V122.51a2.86,2.86,0,0,0-1.31-2.27L299.69,55.53c-.72-.41-1.31-.07-1.31.76v89.59a2.9,2.9,0,0,0,1.31,2.27l112.07,64.7C412.49,213.27,413.07,212.93,413.07,212.1Z" style="fill:#fafafa"></path><path d="M353.29,182.43a4.55,4.55,0,0,1,2,3.55c0,1.31-.91,1.84-2,1.18a4.5,4.5,0,0,1-2.05-3.54C351.24,182.31,352.16,181.78,353.29,182.43Z" fill="currentColor"></path><path d="M420.62,116.63,416.53,119a4.63,4.63,0,0,1,.64,2.15v104c0,1.27-.81,1.85-1.86,1.42a4.08,4.08,0,0,0,6-3.79v-104A4.54,4.54,0,0,0,420.62,116.63Z" style="fill:#263238"></path></g><g id="freepik--Text--inject-86"><path d="M327.48,106.53c.15.39.32.8.5,1.23a9.35,9.35,0,0,0,.66,1.3,8.87,8.87,0,0,0,.93,1.26,5.46,5.46,0,0,0,1.29,1,3.44,3.44,0,0,0,1.29.47,1.73,1.73,0,0,0,1.09-.19,1.68,1.68,0,0,0,.76-.9,4.49,4.49,0,0,0,.27-1.72,6.66,6.66,0,0,0-.85-3.25,6.14,6.14,0,0,0-2.33-2.41,2.1,2.1,0,0,0-.85-.29,3.79,3.79,0,0,0-.75,0l-.62.06a.83.83,0,0,1-.49-.08l-5-2.9a1.67,1.67,0,0,1-.64-.77,2.1,2.1,0,0,1-.23-1.07l1-17.14a1.26,1.26,0,0,1,.27-.79.44.44,0,0,1,.6-.05l13.78,8a1.59,1.59,0,0,1,.61.75,2.53,2.53,0,0,1,.26,1.09v5.25a1,1,0,0,1-.26.79.47.47,0,0,1-.61,0l-9.37-5.41-.23,4.28a3.27,3.27,0,0,1,1.34,0,4.9,4.9,0,0,1,1.66.64A15.26,15.26,0,0,1,335,98.46a19.3,19.3,0,0,1,2.77,3.88,20.75,20.75,0,0,1,1.83,4.73,21.51,21.51,0,0,1,.66,5.39,13.59,13.59,0,0,1-.72,4.83,5.45,5.45,0,0,1-2,2.69,4.45,4.45,0,0,1-3,.64,9.56,9.56,0,0,1-3.67-1.33,16.62,16.62,0,0,1-3.91-3.13,20.09,20.09,0,0,1-2.91-4,20.46,20.46,0,0,1-1.84-4.43,17.27,17.27,0,0,1-.68-4.33.92.92,0,0,1,.21-.65.39.39,0,0,1,.5,0l4.09,2.36a2.12,2.12,0,0,1,.79.75A5,5,0,0,1,327.48,106.53Z" fill="currentColor"></path><path d="M352.53,96.11a15.21,15.21,0,0,1,4.15,3.49,20.55,20.55,0,0,1,2.89,4.59,23.88,23.88,0,0,1,1.7,5.27,32.73,32.73,0,0,1,.66,5.51c.05,1.45.07,3,.07,4.5s0,3-.07,4.32a21.18,21.18,0,0,1-.66,4.75,7.35,7.35,0,0,1-1.7,3.31,4.21,4.21,0,0,1-2.89,1.26,7.84,7.84,0,0,1-4.15-1.31,15.21,15.21,0,0,1-4.15-3.49,20.16,20.16,0,0,1-2.88-4.59,23.38,23.38,0,0,1-1.71-5.27,32.73,32.73,0,0,1-.66-5.51c0-1.38-.06-2.85-.06-4.4s0-3,.06-4.43a21.27,21.27,0,0,1,.66-4.75,7.27,7.27,0,0,1,1.71-3.3,4.17,4.17,0,0,1,2.88-1.26A7.84,7.84,0,0,1,352.53,96.11Zm3.45,24q.12-4.14,0-8.33c-.05-.85-.13-1.66-.25-2.42a9.51,9.51,0,0,0-.56-2.13,7,7,0,0,0-1-1.81,5.41,5.41,0,0,0-1.61-1.38,2.76,2.76,0,0,0-1.61-.48,1.4,1.4,0,0,0-1,.62,3.86,3.86,0,0,0-.58,1.47,12.07,12.07,0,0,0-.22,2.15q-.16,4,0,8.33a20.08,20.08,0,0,0,.2,2.4,10.19,10.19,0,0,0,.58,2.14,7.27,7.27,0,0,0,1.05,1.82,5.53,5.53,0,0,0,1.61,1.38,2.78,2.78,0,0,0,1.61.48,1.48,1.48,0,0,0,1.05-.61,3.56,3.56,0,0,0,.58-1.47A14.64,14.64,0,0,0,356,120.11Z" fill="currentColor"></path><path d="M382,113.59a1.68,1.68,0,0,1,.61.76,2.53,2.53,0,0,1,.26,1.09v5.25a1.46,1.46,0,0,1-.23.86,3.32,3.32,0,0,1-.42.5l-3.89,3.8a20.3,20.3,0,0,1,4.09,5.71,16.16,16.16,0,0,1,1.58,7.13c0,3.74-.84,6.06-2.52,7s-4,.51-7-1.23a18,18,0,0,1-4.11-3.21,21.1,21.1,0,0,1-3-4,20,20,0,0,1-1.88-4.24,14.34,14.34,0,0,1-.7-4,.88.88,0,0,1,.21-.65.39.39,0,0,1,.5,0l4.06,2.34a2.65,2.65,0,0,1,1,1.07c.23.45.5.94.79,1.47a12.49,12.49,0,0,0,1.12,1.67,7.12,7.12,0,0,0,2,1.61,3.81,3.81,0,0,0,2.55.68c.68-.13,1-.78,1-1.94a5.11,5.11,0,0,0-1-3.11,8.2,8.2,0,0,0-2.55-2.27l-2.68-1.55a1.59,1.59,0,0,1-.61-.75,2.53,2.53,0,0,1-.26-1.09v-4.26a1.46,1.46,0,0,1,.23-.86,3.55,3.55,0,0,1,.45-.53l3.41-3.34-8.4-4.85a1.63,1.63,0,0,1-.61-.75,2.42,2.42,0,0,1-.26-1.09v-5.25a1,1,0,0,1,.26-.8.47.47,0,0,1,.61,0Z" fill="currentColor"></path><path d="M339.06,140.4a.6.6,0,0,1,.23.28.88.88,0,0,1,.1.41v2a.37.37,0,0,1-.1.29.18.18,0,0,1-.23,0l-5.68-3.29a.55.55,0,0,1-.23-.28,1,1,0,0,1-.1-.4V127.46a.41.41,0,0,1,.1-.3.18.18,0,0,1,.23,0l5.59,3.23a.67.67,0,0,1,.23.28,1,1,0,0,1,.09.41v2a.4.4,0,0,1-.09.29.18.18,0,0,1-.23,0l-3.7-2.14v2l3.43,2a.55.55,0,0,1,.23.28.86.86,0,0,1,.1.41v1.95a.38.38,0,0,1-.1.3.18.18,0,0,1-.23,0l-3.43-2v2.07Z" style="fill:#455a64"></path><path d="M344.34,133.48a6.87,6.87,0,0,1,1.42,1.07,6.24,6.24,0,0,1,1.06,1.39,6.49,6.49,0,0,1,.67,1.71,8,8,0,0,1,.24,2,4.66,4.66,0,0,1-.37,2.08,1.37,1.37,0,0,1-1.06.79l1.49,5.25a1.11,1.11,0,0,1,0,.23.29.29,0,0,1-.08.24.14.14,0,0,1-.18,0l-1.63-.94a.74.74,0,0,1-.34-.36,3.46,3.46,0,0,1-.17-.43l-1.33-4.72-1.1-.64v4a.38.38,0,0,1-.1.3.18.18,0,0,1-.23,0l-1.57-.91a.67.67,0,0,1-.23-.28,1,1,0,0,1-.09-.41V131.91a.43.43,0,0,1,.09-.3.18.18,0,0,1,.23,0ZM343,138.29l1.35.78a1.07,1.07,0,0,0,.84.19c.22-.07.33-.37.33-.88a2.24,2.24,0,0,0-.33-1.27,2.48,2.48,0,0,0-.84-.77l-1.35-.78Z" style="fill:#455a64"></path><path d="M352.68,138.29a6.47,6.47,0,0,1,2.48,2.46,6.77,6.77,0,0,1,.67,1.71,8.14,8.14,0,0,1,.24,2,4.55,4.55,0,0,1-.38,2.09,1.35,1.35,0,0,1-1.05.78l1.49,5.26a1,1,0,0,1,0,.22.29.29,0,0,1-.08.24.14.14,0,0,1-.18,0l-1.63-1a.81.81,0,0,1-.35-.36c-.06-.15-.12-.29-.16-.43l-1.33-4.72-1.1-.64v4a.4.4,0,0,1-.1.29.18.18,0,0,1-.23,0l-1.57-.91a.61.61,0,0,1-.23-.28,1,1,0,0,1-.09-.4V136.72a.4.4,0,0,1,.09-.29.18.18,0,0,1,.23,0Zm-1.35,4.81,1.35.79a1.09,1.09,0,0,0,.84.18c.22-.07.33-.36.33-.88a2.18,2.18,0,0,0-.33-1.26,2.61,2.61,0,0,0-.84-.78l-1.35-.78Z" style="fill:#455a64"></path><path d="M357.17,145.7a6.19,6.19,0,0,1,.29-1.78,2.53,2.53,0,0,1,.74-1.16,1.7,1.7,0,0,1,1.15-.41,3.23,3.23,0,0,1,1.56.51,5.84,5.84,0,0,1,1.56,1.29,8.51,8.51,0,0,1,1.16,1.74,9.47,9.47,0,0,1,.73,2,11.16,11.16,0,0,1,.3,2.12c0,.54,0,1.1,0,1.68s0,1.12,0,1.61a6.54,6.54,0,0,1-.3,1.78,2.62,2.62,0,0,1-.73,1.18,1.72,1.72,0,0,1-1.16.4,3.46,3.46,0,0,1-1.56-.51,6.28,6.28,0,0,1-1.56-1.3,7.89,7.89,0,0,1-1.15-1.73,10,10,0,0,1-.74-2,10.39,10.39,0,0,1-.29-2.12c0-.51,0-1.06,0-1.64S357.15,146.22,357.17,145.7Zm5.27,6.24c0-.22,0-.46,0-.73s0-.54,0-.82,0-.56,0-.83,0-.51,0-.73a5.66,5.66,0,0,0-.13-.92,3.79,3.79,0,0,0-.29-.84,3.39,3.39,0,0,0-.46-.72,2.26,2.26,0,0,0-.65-.54,1.36,1.36,0,0,0-.64-.21.71.71,0,0,0-.47.19,1.13,1.13,0,0,0-.28.51,2.87,2.87,0,0,0-.13.77c0,.2,0,.44,0,.7s0,.53,0,.82,0,.56,0,.83,0,.53,0,.76a5,5,0,0,0,.41,1.77,2.71,2.71,0,0,0,1.11,1.25q.75.44,1.11,0A2.14,2.14,0,0,0,362.44,151.94Z" style="fill:#455a64"></path><path d="M369.63,148.08a6.87,6.87,0,0,1,1.42,1.07,6.47,6.47,0,0,1,1.73,3.1,8.14,8.14,0,0,1,.24,2,4.74,4.74,0,0,1-.37,2.09,1.37,1.37,0,0,1-1.06.78l1.49,5.26a1,1,0,0,1,0,.22.33.33,0,0,1-.07.24.15.15,0,0,1-.19,0l-1.63-.94a.74.74,0,0,1-.34-.36,2.94,2.94,0,0,1-.17-.43l-1.33-4.72-1.1-.64v4a.37.37,0,0,1-.1.29.18.18,0,0,1-.23,0l-1.57-.91a.54.54,0,0,1-.22-.28.86.86,0,0,1-.1-.41V146.51a.37.37,0,0,1,.1-.29c.06-.07.13-.07.22,0Zm-1.35,4.81,1.35.78a1.07,1.07,0,0,0,.84.19c.22-.07.33-.36.33-.88a2.18,2.18,0,0,0-.33-1.26,2.41,2.41,0,0,0-.84-.78l-1.35-.78Z" style="fill:#455a64"></path><path d="M308.86,133.32a3.27,3.27,0,0,1,.92.78,6.31,6.31,0,0,1,.68,1,5.37,5.37,0,0,1,.42,1,3.56,3.56,0,0,1,.16.84.25.25,0,0,1-.05.17.11.11,0,0,1-.14,0l-.35-.2a.41.41,0,0,1-.15-.14,1.1,1.1,0,0,1-.12-.31,4,4,0,0,0-.14-.41,3.87,3.87,0,0,0-.26-.55,4.05,4.05,0,0,0-.41-.57,2.22,2.22,0,0,0-.56-.45,1.18,1.18,0,0,0-.45-.18.63.63,0,0,0-.39,0,.56.56,0,0,0-.28.27,1.3,1.3,0,0,0-.1.54,1.81,1.81,0,0,0,.1.63,2.4,2.4,0,0,0,.32.61,4.51,4.51,0,0,0,.55.67c.22.24.49.51.81.83a8.1,8.1,0,0,1,.82.91,5.64,5.64,0,0,1,.56.85,4,4,0,0,1,.31.86,4.75,4.75,0,0,1,.1.94,2.62,2.62,0,0,1-.17,1,1.25,1.25,0,0,1-.47.58,1.13,1.13,0,0,1-.72.13,2.43,2.43,0,0,1-.94-.35,3.79,3.79,0,0,1-.92-.75,5.68,5.68,0,0,1-.72-1,5.91,5.91,0,0,1-.47-1.07,3,3,0,0,1-.18-1,.22.22,0,0,1,.05-.17.09.09,0,0,1,.13,0l.35.2a.5.5,0,0,1,.15.14.71.71,0,0,1,.12.31,3.91,3.91,0,0,0,.16.49,3.33,3.33,0,0,0,.28.57,3.86,3.86,0,0,0,.44.58,2.7,2.7,0,0,0,.61.48,1.85,1.85,0,0,0,.57.22.75.75,0,0,0,.47,0,.58.58,0,0,0,.32-.28,1,1,0,0,0,.13-.55,1.75,1.75,0,0,0-.14-.67,3,3,0,0,0-.4-.67,7.51,7.51,0,0,0-.62-.72l-.85-.84a6,6,0,0,1-.72-.83,5.22,5.22,0,0,1-.49-.84,3.49,3.49,0,0,1-.27-.85,5.14,5.14,0,0,1-.08-.88,2.57,2.57,0,0,1,.13-.87,1.22,1.22,0,0,1,.38-.6A1,1,0,0,1,308,133,1.8,1.8,0,0,1,308.86,133.32Z" style="fill:#455a64"></path><path d="M316,145.6a.48.48,0,0,1,.16.2.77.77,0,0,1,.07.29v.47a.29.29,0,0,1-.07.21.11.11,0,0,1-.16,0l-3.46-2a.42.42,0,0,1-.16-.2.62.62,0,0,1-.07-.29v-8.5a.25.25,0,0,1,.07-.21.12.12,0,0,1,.16,0l3.39,2a.48.48,0,0,1,.16.2.77.77,0,0,1,.07.29v.47a.29.29,0,0,1-.07.21.11.11,0,0,1-.16,0l-2.81-1.61v2.77l2.62,1.51a.47.47,0,0,1,.16.2.65.65,0,0,1,.07.29v.48a.28.28,0,0,1-.07.21.12.12,0,0,1-.16,0l-2.62-1.51v2.88Z" style="fill:#455a64"></path><path d="M319.67,139.69a3.78,3.78,0,0,1,.79.62,4.08,4.08,0,0,1,.66.86,4.72,4.72,0,0,1,.61,2.44,2.47,2.47,0,0,1-.34,1.5,1,1,0,0,1-.89.38l1.29,4.21a.5.5,0,0,1,0,.16.22.22,0,0,1-.06.17.1.1,0,0,1-.13,0l-.37-.21a.62.62,0,0,1-.25-.28l-.12-.29-1.24-4.07-1.47-.85v3.35a.29.29,0,0,1-.06.21.12.12,0,0,1-.17,0l-.35-.2a.43.43,0,0,1-.16-.2.59.59,0,0,1-.07-.29v-8.5a.25.25,0,0,1,.07-.21.11.11,0,0,1,.16,0Zm-1.49,3.46,1.45.83c.41.24.73.3.95.18s.34-.46.34-1a2.56,2.56,0,0,0-.34-1.39,2.66,2.66,0,0,0-.95-.9l-1.45-.83Z" style="fill:#455a64"></path><path d="M326.43,143.92a.37.37,0,0,1,.09-.16c.05,0,.13,0,.24,0l.32.19a.36.36,0,0,1,.13.16.53.53,0,0,1,.06.24.5.5,0,0,1,0,.12l-1.85,7.2a.44.44,0,0,1-.16.28.24.24,0,0,1-.29,0l-.34-.19a.79.79,0,0,1-.29-.31,2.08,2.08,0,0,1-.16-.48l-1.85-9.34a.34.34,0,0,1,0-.14.26.26,0,0,1,0-.17.11.11,0,0,1,.14,0l.31.18a.52.52,0,0,1,.24.25,1.61,1.61,0,0,1,.1.28l1.65,8.52Z" style="fill:#455a64"></path><path d="M328.51,154a.43.43,0,0,1-.16-.2.73.73,0,0,1-.07-.29V145a.29.29,0,0,1,.07-.21.11.11,0,0,1,.16,0l.35.2a.39.39,0,0,1,.17.2.72.72,0,0,1,.06.29V154a.29.29,0,0,1-.06.21.12.12,0,0,1-.17,0Z" style="fill:#455a64"></path><path d="M331.15,149.82c0,.39,0,.76,0,1.1s0,.71,0,1.11a5.34,5.34,0,0,0,.44,2,2.92,2.92,0,0,0,1.16,1.35,1.61,1.61,0,0,0,.7.24.7.7,0,0,0,.46-.14.82.82,0,0,0,.28-.41,2.65,2.65,0,0,0,.15-.57c0-.09,0-.14.09-.16a.17.17,0,0,1,.14,0l.39.23a.31.31,0,0,1,.13.16.53.53,0,0,1,.06.24,3.31,3.31,0,0,1-.15.86,1.82,1.82,0,0,1-.42.73,1.18,1.18,0,0,1-.74.33,1.89,1.89,0,0,1-1.09-.33,3.57,3.57,0,0,1-1-.84,5.65,5.65,0,0,1-.75-1.18,7.44,7.44,0,0,1-.48-1.4,7.82,7.82,0,0,1-.19-1.54q0-1.19,0-2.34a5,5,0,0,1,.19-1.31,2.07,2.07,0,0,1,.48-.86,1.15,1.15,0,0,1,.75-.31,1.92,1.92,0,0,1,1,.3,3.8,3.8,0,0,1,1.09.94,5.42,5.42,0,0,1,.74,1.18,6,6,0,0,1,.42,1.21,5.55,5.55,0,0,1,.15,1,.21.21,0,0,1-.06.17.09.09,0,0,1-.13,0l-.39-.23a.34.34,0,0,1-.14-.15.67.67,0,0,1-.09-.26,5.11,5.11,0,0,0-.15-.74,3,3,0,0,0-.28-.74,3.63,3.63,0,0,0-.46-.67,2.62,2.62,0,0,0-.7-.56c-.5-.29-.89-.29-1.16,0A2.37,2.37,0,0,0,331.15,149.82Z" style="fill:#455a64"></path><path d="M340,159.43a.43.43,0,0,1,.17.2.77.77,0,0,1,.07.29v.47a.34.34,0,0,1-.07.22.15.15,0,0,1-.17,0l-3.45-2a.37.37,0,0,1-.16-.2.59.59,0,0,1-.07-.29v-8.5a.25.25,0,0,1,.07-.21.11.11,0,0,1,.16,0l3.39,2a.48.48,0,0,1,.16.2.77.77,0,0,1,.07.29v.47a.29.29,0,0,1-.07.21.12.12,0,0,1-.16,0l-2.81-1.62v2.78l2.62,1.51a.43.43,0,0,1,.16.2.58.58,0,0,1,.07.28v.48a.27.27,0,0,1-.07.21.12.12,0,0,1-.16,0l-2.62-1.51v2.88Z" style="fill:#455a64"></path><path d="M347.74,155.89a.56.56,0,0,1,.16.2.82.82,0,0,1,.07.29v5.27a6.56,6.56,0,0,1-.14,1.42,2.21,2.21,0,0,1-.41.94.94.94,0,0,1-.71.36,1.92,1.92,0,0,1-1-.32,3.67,3.67,0,0,1-1.06-.89,4.87,4.87,0,0,1-.71-1.19,6.39,6.39,0,0,1-.41-1.41,9.9,9.9,0,0,1-.12-1.57v-5.26a.29.29,0,0,1,.06-.21.13.13,0,0,1,.17,0l.35.21a.43.43,0,0,1,.16.2.73.73,0,0,1,.07.29v5.33a5.15,5.15,0,0,0,.39,2.14,2.69,2.69,0,0,0,1.1,1.26c.46.27.83.27,1.09,0a2.48,2.48,0,0,0,.4-1.69v-5.33a.29.29,0,0,1,.07-.21.11.11,0,0,1,.16,0Z" style="fill:#455a64"></path><path d="M353.32,168.33a.45.45,0,0,1-.2-.24,2.13,2.13,0,0,1-.14-.35l-2.78-8v6.48a.33.33,0,0,1-.07.21.13.13,0,0,1-.16,0l-.35-.21a.4.4,0,0,1-.17-.19.82.82,0,0,1-.07-.29V157.2a.31.31,0,0,1,.07-.21.13.13,0,0,1,.17,0l.29.17a.56.56,0,0,1,.21.24c.05.12.1.24.14.36l2.78,8v-6.48a.29.29,0,0,1,.06-.21.13.13,0,0,1,.17,0l.35.2a.48.48,0,0,1,.16.2.62.62,0,0,1,.07.29v8.5a.25.25,0,0,1-.07.21.12.12,0,0,1-.16,0Z" style="fill:#455a64"></path><path d="M359,169.52l-3-1.72-.44,1.5a.39.39,0,0,1-.1.16s-.12,0-.24,0l-.31-.18a.38.38,0,0,1-.14-.16.69.69,0,0,1,0-.24.55.55,0,0,1,0-.16l2.1-7.1a.71.71,0,0,1,.13-.22c0-.06.14-.06.25,0l.52.29a.62.62,0,0,1,.25.3,2.28,2.28,0,0,1,.13.36l2.09,9.51a1.14,1.14,0,0,1,0,.21.26.26,0,0,1-.05.17.12.12,0,0,1-.14,0l-.31-.19a.45.45,0,0,1-.24-.25,1.3,1.3,0,0,1-.1-.27Zm-2.67-2.73,2.37,1.37-1.18-5.38Z" style="fill:#455a64"></path><path d="M364.41,165.85a.42.42,0,0,1,.09-.16c.05-.05.13,0,.24,0l.32.19a.36.36,0,0,1,.13.16.49.49,0,0,1,.06.23.51.51,0,0,1,0,.13l-1.85,7.2a.47.47,0,0,1-.16.28.26.26,0,0,1-.29,0l-.34-.2a.63.63,0,0,1-.28-.3,1.7,1.7,0,0,1-.17-.48l-1.85-9.34a.36.36,0,0,1,0-.14.25.25,0,0,1,.05-.17.11.11,0,0,1,.14,0l.31.18a.52.52,0,0,1,.24.25,1.3,1.3,0,0,1,.1.27l1.65,8.53Z" style="fill:#455a64"></path><path d="M369.51,175.6l-3-1.71-.45,1.49a.56.56,0,0,1-.09.17q-.08.07-.24,0l-.32-.18a.43.43,0,0,1-.13-.16.53.53,0,0,1-.06-.24.45.45,0,0,1,0-.17l2.09-7.09a.61.61,0,0,1,.13-.22c.06-.06.14-.06.26,0l.51.29a.73.73,0,0,1,.26.29,2.25,2.25,0,0,1,.12.37l2.09,9.51a1.36,1.36,0,0,1,0,.2.24.24,0,0,1-.06.18.1.1,0,0,1-.13,0l-.32-.18a.58.58,0,0,1-.24-.25,2.13,2.13,0,0,1-.09-.27Zm-2.67-2.72,2.37,1.36L368,168.86Z" style="fill:#455a64"></path><path d="M371.91,179.06a.4.4,0,0,1-.17-.19.79.79,0,0,1-.06-.29v-8.51a.31.31,0,0,1,.06-.21.13.13,0,0,1,.17,0l.35.2a.48.48,0,0,1,.16.2.62.62,0,0,1,.07.29V179a.29.29,0,0,1-.07.22.13.13,0,0,1-.16,0Z" style="fill:#455a64"></path><path d="M377.67,181.21a.37.37,0,0,1,.16.2.59.59,0,0,1,.07.29v.47a.25.25,0,0,1-.07.21.12.12,0,0,1-.16,0l-3.48-2a.37.37,0,0,1-.16-.2.59.59,0,0,1-.07-.29v-8.5a.25.25,0,0,1,.07-.21.12.12,0,0,1,.16,0l.35.2a.42.42,0,0,1,.16.2.62.62,0,0,1,.07.29v7.67Z" style="fill:#455a64"></path><path d="M382.45,183.07l-3-1.71-.44,1.49a.42.42,0,0,1-.1.17s-.12,0-.24,0l-.31-.18a.34.34,0,0,1-.13-.17.46.46,0,0,1-.06-.23.61.61,0,0,1,0-.17l2.1-7.09a.61.61,0,0,1,.13-.22c.05-.06.14-.06.25,0l.52.3a.59.59,0,0,1,.25.29,2.05,2.05,0,0,1,.13.37l2.09,9.51a1.06,1.06,0,0,1,0,.2.25.25,0,0,1-.05.17s-.08,0-.14,0l-.31-.18a.52.52,0,0,1-.24-.25,1.3,1.3,0,0,1-.1-.27Zm-2.67-2.72,2.37,1.36L381,176.33Z" style="fill:#455a64"></path><path d="M384.84,186.53a.43.43,0,0,1-.16-.2.59.59,0,0,1-.07-.29v-8.5a.25.25,0,0,1,.07-.21.12.12,0,0,1,.16,0l2.29,1.32a3,3,0,0,1,.91.78,4.65,4.65,0,0,1,.88,2,4.63,4.63,0,0,1,.09.83,2.32,2.32,0,0,1-.09.71,1.29,1.29,0,0,1-.2.44.65.65,0,0,1-.22.22l-.17.09a6.36,6.36,0,0,1,.57,1.23,4.45,4.45,0,0,1,.24,1.45,3.18,3.18,0,0,1-.12.91,1.61,1.61,0,0,1-.35.65.93.93,0,0,1-.59.27,1.43,1.43,0,0,1-.82-.24Zm.58-7.69v2.66l1.63.94c.38.22.67.27.86.15s.28-.39.28-.82a2.34,2.34,0,0,0-.28-1.16,2.29,2.29,0,0,0-.86-.83Zm0,3.84v3l1.75,1a1.21,1.21,0,0,0,.51.18.56.56,0,0,0,.36-.12.78.78,0,0,0,.22-.35,1.66,1.66,0,0,0,.07-.53,2.58,2.58,0,0,0-.07-.6,2.32,2.32,0,0,0-.21-.61,2.12,2.12,0,0,0-.36-.54,2,2,0,0,0-.52-.43Z" style="fill:#455a64"></path><path d="M394,190.65a.48.48,0,0,1,.16.2.77.77,0,0,1,.07.29v.47a.29.29,0,0,1-.07.21.12.12,0,0,1-.16,0l-3.48-2a.49.49,0,0,1-.17-.2.79.79,0,0,1-.06-.29v-8.51a.33.33,0,0,1,.06-.21.13.13,0,0,1,.17,0l.35.2a.56.56,0,0,1,.16.2.65.65,0,0,1,.07.29V189Z" style="fill:#455a64"></path><path d="M398.84,193.43a.42.42,0,0,1,.16.2.62.62,0,0,1,.07.29v.47a.25.25,0,0,1-.07.21.11.11,0,0,1-.16,0l-3.45-2a.43.43,0,0,1-.17-.2.77.77,0,0,1-.07-.29v-8.5a.29.29,0,0,1,.07-.21.13.13,0,0,1,.17,0l3.38,2a.42.42,0,0,1,.16.2.62.62,0,0,1,.07.29v.47a.25.25,0,0,1-.07.21.11.11,0,0,1-.16,0l-2.8-1.61v2.77l2.61,1.51a.49.49,0,0,1,.17.2.82.82,0,0,1,.07.29v.48a.33.33,0,0,1-.07.21.13.13,0,0,1-.17,0L396,188.89v2.88Z" style="fill:#455a64"></path></g></g><g id="freepik--Mouse--inject-86"><path d="M349.71,254.34l9.43,5.44a10.36,10.36,0,0,0,10.4-.55l15.54-11.35c2.78-2,2.62-5-.35-6.76L380,238.38a12.81,12.81,0,0,0-10.92-.33l-19.19,10.4C346.82,250,346.74,252.63,349.71,254.34Z" style="opacity:0.2"></path><path d="M385.34,243l-10.76,8.41-7.93,6.21a7.32,7.32,0,0,1-6.3-.19l-8.43-4.86a0,0,0,0,1,0,0l0,0a6,6,0,0,1-1.71-8.54l.25-.34a11.22,11.22,0,0,1,6.78-4.3l4.28-.86c6.91-1.4,12.59-2.08,13.25-1.64l10.57,6.13Z" style="fill:#37474f"></path><path d="M379.33,247.66l.6-.48-9.48-5.47,8.3-2.57-.84-.49-8.3,2.57L364,238l-1.07.21Z" fill="currentColor"></path><path d="M367.58,257.06s0,0,.05,0h0l7.55-5.45,10.2-7.37V243a.1.1,0,0,0-.05-.09l-.06,0c-.76-.26-5.18,1.06-10.52,3.19l-3.54,1.4A11.28,11.28,0,0,0,364.11,258v.19a7,7,0,0,0,2.54-.61Z" style="fill:#263238"></path></g></g></g><g id="freepik--Chair--inject-86"><g id="freepik--chair--inject-86"><polygon points="100.74 239.65 95.71 239.79 91.54 183.92 96.56 183.77 100.74 239.65" style="fill:#455a64"></polygon><polygon points="57.76 263.24 52.74 263.38 48.56 207.51 53.59 207.36 57.76 263.24" style="fill:#455a64"></polygon><path d="M59.46,268H51.14L40.8,345.49h0a1,1,0,0,0,.6.92,3.3,3.3,0,0,0,3,0,1.14,1.14,0,0,0,.59-.72h0Z" style="fill:#455a64"></path><path d="M109.41,239.19h-8.33L89,325.65h0a1,1,0,0,0,.61.91,3.22,3.22,0,0,0,3,0,1.09,1.09,0,0,0,.59-.71h0Z" style="fill:#37474f"></path><path d="M173.73,352.94,159.36,268H151l18.52,85.11h0a1.09,1.09,0,0,0,.59.71,3.24,3.24,0,0,0,3,0,1,1,0,0,0,.6-.91Z" style="fill:#37474f"></path><path d="M119.62,384.18l-12.1-86.45H99.19l16.25,86.65h0a1.13,1.13,0,0,0,.59.72,3.3,3.3,0,0,0,3,0,1,1,0,0,0,.6-.92Z" style="fill:#455a64"></path><path d="M159.36,268H151l3.39,15.56q2.84-2.35,5.53-4.83a5.38,5.38,0,0,0,1-1.33Z" style="fill:#37474f"></path><path d="M51.14,268l-1.45,10.33a6.69,6.69,0,0,0,1.61,2.81c1.55,1.42,3.19,2.85,4.89,4.28L59.46,268Z" style="fill:#37474f"></path><path d="M109.19,309.64l-1.67-11.91H99.19l2.72,14.51C104.39,311.41,106.81,310.54,109.19,309.64Z" style="fill:#37474f"></path><path d="M101.83,305.69c23.55-7.8,42.59-19.23,58.12-33.51a6.66,6.66,0,0,0,1.87-4.31v-4.49a5.71,5.71,0,0,0-2-4.09c-16.48-12-35.69-20.27-57.86-24.45a12.3,12.3,0,0,0-5,.28q-29.82,9.09-45.78,26.2a7.56,7.56,0,0,0-1.71,4.47v4.49a6.63,6.63,0,0,0,1.87,4.31c11.92,11,29,22.25,45.78,30.75A7.09,7.09,0,0,0,101.83,305.69Z" fill="currentColor"></path><path d="M161.82,263.38v4.49a6.73,6.73,0,0,1-1.87,4.32c-15.53,14.27-34.57,25.71-58.12,33.5a6.62,6.62,0,0,1-2.64.21V234.74a10.81,10.81,0,0,1,2.72.11c22.16,4.17,41.39,12.42,57.86,24.45A5.67,5.67,0,0,1,161.82,263.38Z" style="opacity:0.4"></path><path d="M99.19,234.74V305.9a6.29,6.29,0,0,1-2.1-.56c-16.81-8.5-33.86-19.77-45.79-30.74a6.77,6.77,0,0,1-1.86-4.32v-4.5a7.39,7.39,0,0,1,1.72-4.45q15.95-17.12,45.77-26.22A11,11,0,0,1,99.19,234.74Z" style="opacity:0.5"></path><path d="M51.31,265c11.92,11,29,22.22,45.78,30.72a7.16,7.16,0,0,0,4.74.35c23.55-7.75,42.59-19.18,58.12-33.45a2.06,2.06,0,0,0-.18-3.28c-16.48-12-35.69-20.27-57.86-24.45a12.3,12.3,0,0,0-5,.28q-29.82,9.09-45.78,26.17A2.6,2.6,0,0,0,51.31,265Z" fill="currentColor"></path><path d="M51.31,265c11.92,11,29,22.22,45.78,30.72a7.16,7.16,0,0,0,4.74.35c23.55-7.75,42.59-19.18,58.12-33.45a2.06,2.06,0,0,0-.18-3.28c-16.48-12-35.69-20.27-57.86-24.45a12.3,12.3,0,0,0-5,.28q-29.82,9.09-45.78,26.17A2.6,2.6,0,0,0,51.31,265Z" style="opacity:0.30000000000000004"></path><path d="M38.71,198.27q23.92-30.75,62.51-36.09a8.53,8.53,0,0,1,4.62.88,4.77,4.77,0,0,1,2.08,3.77v18.9a3,3,0,0,1-2.54,2.89Q66.8,194,42.87,224.71a2.91,2.91,0,0,1-3.63.83,4.74,4.74,0,0,1-2.08-3.76V202.87A8.74,8.74,0,0,1,38.71,198.27Z" fill="currentColor"></path><path d="M55.67,211,37.58,200.55a8,8,0,0,0-.42,2.32v18.91a4.74,4.74,0,0,0,2.08,3.76,2.91,2.91,0,0,0,3.63-.83A101.12,101.12,0,0,1,55.67,211Z" style="opacity:0.5"></path><path d="M55.67,211q20.72-18.36,49.71-22.38a3,3,0,0,0,2.54-2.89v-18.9a4.77,4.77,0,0,0-2.08-3.77,8.53,8.53,0,0,0-4.62-.88q-38.6,5.35-62.51,36.09a7.83,7.83,0,0,0-1.13,2.28Z" style="opacity:0.30000000000000004"></path><path d="M42.87,224.71Q66.8,194,105.38,188.62a3,3,0,0,0,2.54-2.89v-18.9a2.19,2.19,0,0,0-2.54-2.24q-38.58,5.34-62.51,36.09a8.68,8.68,0,0,0-1.55,4.6v18.9C41.32,225.6,42,225.82,42.87,224.71Z" fill="currentColor"></path><path d="M42.87,224.71Q66.8,194,105.38,188.62a3,3,0,0,0,2.54-2.89v-18.9a2.19,2.19,0,0,0-2.54-2.24q-38.58,5.34-62.51,36.09a8.68,8.68,0,0,0-1.55,4.6v18.9C41.32,225.6,42,225.82,42.87,224.71Z" style="opacity:0.4"></path></g></g><g id="freepik--Character--inject-86"><g id="freepik--character--inject-86"><path d="M150.13,319.32s-7.19,15.8-7.77,22.12c-.61,6.59-2.29,8.71-1.45,15.93.18,1.58.87,4.74,1,6a1.88,1.88,0,0,1-1.79,2.28c-2.89.48-7.43-5.09-9.46-11a170.63,170.63,0,0,1-4.86-20.86,9,9,0,0,1,1.09-4.59,14.09,14.09,0,0,1,1.41-2.34c1.06-2.83,1.73-8.28,2.68-12Z" style="fill:#ffa8a7"></path><path d="M120,339.56a6.66,6.66,0,0,0-.85,2.14c-.12,1.31,2.68,5.77,3.78,7.39a10.54,10.54,0,0,1,1.85,7.59c-.33,4.21,1.37,8.34,4,11.92a29,29,0,0,0,14,10c6.87,2.42,9.46-1,9.46-1s2.29-3.27,1-4.7S120,339.56,120,339.56Z" style="fill:#37474f"></path><path d="M128.33,326.84c-.21,0-.59-.09-1.16.55-.21.24-1.6,3.31-2.72,4.91s-4,4.61-4.46,7.26c1.4,5.22,6.1,9,6.63,13.89s.4,10.55,7.64,16.8,14.91,7.17,17.74,5.7,2.69-4.43-.94-10.23c-3.86-6.14-6.1-19.22-6.1-19.23a44.73,44.73,0,0,1-.51-5.54c-.07-1.78.53-3.66.74-5.44a3.13,3.13,0,0,0-2.26-4,17.76,17.76,0,0,0-3.79-1.45,6,6,0,0,0-4,.32,29.28,29.28,0,0,1-2.53,1.48,3.56,3.56,0,0,1-3.65-.8,3,3,0,0,1-.86-3.42S128.33,326.84,128.33,326.84Z" fill="currentColor"></path><path d="M128.33,326.84c-.21,0-.59-.09-1.16.55-.21.24-1.6,3.31-2.72,4.91s-4,4.61-4.46,7.26c1.4,5.22,6.1,9,6.63,13.89s.4,10.55,7.64,16.8,14.91,7.17,17.74,5.7,2.69-4.43-.94-10.23c-3.86-6.14-6.1-19.22-6.1-19.23a44.73,44.73,0,0,1-.51-5.54c-.07-1.78.53-3.66.74-5.44a3.13,3.13,0,0,0-2.26-4,17.76,17.76,0,0,0-3.79-1.45,6,6,0,0,0-4,.32,29.28,29.28,0,0,1-2.53,1.48,3.56,3.56,0,0,1-3.65-.8,3,3,0,0,1-.86-3.42S128.33,326.84,128.33,326.84Z" style="opacity:0.4"></path><path d="M130.08,365.31s3.13-5.78,11.07-5.44,10.53,4.49,11.64,6.92c1.33,2.89,2.63,8.07-.71,9.42-3.6,1.45-7.68.79-14-2.69S130.08,365.31,130.08,365.31Z" style="fill:#fafafa"></path><path d="M132.47,341.44a.8.8,0,0,0,.72,0c1.25-.58,7.8-1.68,11.44,2,.51-.37.43-1.09-.15-2.13-4.32-3-10.51-2-12-1.27a.75.75,0,0,0-.35,1A.83.83,0,0,0,132.47,341.44Z" style="fill:#fafafa"></path><path d="M145.26,348.1a2.41,2.41,0,0,0-.37-2.2c-4.27-2.54-10-1.58-11.47-.91a.75.75,0,0,0-.35,1,.78.78,0,0,0,.36.36.79.79,0,0,0,.72,0C135.37,345.86,141.57,344.82,145.26,348.1Z" style="fill:#fafafa"></path><path d="M148.08,359a4.55,4.55,0,0,0-.9-2.91c-4.3-2.83-10.35-1.84-11.84-1.15a.74.74,0,0,0-.35,1,.82.82,0,0,0,1.08.38C137.39,355.72,144.6,354.53,148.08,359Z" style="fill:#fafafa"></path><path d="M134.38,351.35a.85.85,0,0,0,.73,0c1.24-.57,7.65-1.64,11.31,1.87a2.78,2.78,0,0,0-.57-2.38c-4.27-2.54-10-1.58-11.47-.92A.75.75,0,0,0,134,351,.87.87,0,0,0,134.38,351.35Z" style="fill:#fafafa"></path><path d="M156.41,339.32s2.47,19.71,5.78,27.45,5,11.49,9.77,17.44c1,1.29,3.41,3.72,4.26,4.76a2,2,0,0,1-.33,3c-2.29,2-11.69,2.16-16.79-2s-9.56-12.73-12.57-16c-1.13-1.24-2.19-2.5-3.19-3.83s-.64-2.46-.68-3.86c0-.68.15-2.52.15-2.52-.58-3.32-2.33-8.58-3.23-11.83Z" style="fill:#ffa8a7"></path><path d="M140.38,378.49a7.19,7.19,0,0,0,.14,2.4c.48,1.3,5.12,4.26,6.89,5.31a11,11,0,0,1,5.14,6.35c1.56,4.13,5,7.28,9.07,9.52a30.38,30.38,0,0,0,17.73,3.19c7.58-.79,8.52-5.15,8.52-5.15s.7-4.12-1.11-4.91S140.38,378.49,140.38,378.49Z" style="fill:#37474f"></path><path d="M142.59,362.73c-.21.08-.6.17-.85,1-.1.32,0,3.85-.38,5.87s-1.73,6.14-1,8.86c3.66,4.31,9.79,5.79,12.48,10.18s5.09,9.81,14.73,12.48,17.32.13,19.33-2.52.57-5.4-5.46-9.26c-6.39-4.1-14.35-15.47-14.36-15.48a45.81,45.81,0,0,1-2.95-5c-.86-1.65-1.14-3.69-1.74-5.47a4.21,4.21,0,0,0-1.35-2.24,4.37,4.37,0,0,0-2.56-.53,18.81,18.81,0,0,0-4.24.32,6.37,6.37,0,0,0-3.62,2.08,29.79,29.79,0,0,1-1.74,2.53,3.7,3.7,0,0,1-3.81.87,3.19,3.19,0,0,1-2.34-2.84S142.59,362.73,142.59,362.73Z" fill="currentColor"></path><path d="M142.59,362.73c-.21.08-.6.17-.85,1-.1.32,0,3.85-.38,5.87s-1.73,6.14-1,8.86c3.66,4.31,9.79,5.79,12.48,10.18s5.09,9.81,14.73,12.48,17.32.13,19.33-2.52.57-5.4-5.46-9.26c-6.39-4.1-14.35-15.47-14.36-15.48a45.81,45.81,0,0,1-2.95-5c-.86-1.65-1.14-3.69-1.74-5.47a4.21,4.21,0,0,0-1.35-2.24,4.37,4.37,0,0,0-2.56-.53,18.81,18.81,0,0,0-4.24.32,6.37,6.37,0,0,0-3.62,2.08,29.79,29.79,0,0,1-1.74,2.53,3.7,3.7,0,0,1-3.81.87,3.19,3.19,0,0,1-2.34-2.84S142.59,362.73,142.59,362.73Z" style="opacity:0.4"></path><path d="M161.43,398.34s.38-6.86,8-10.09,12-.45,14.11,1.35c2.55,2.14,6.09,6.47,3.54,9.23-2.77,3-6.92,4.19-14.46,3.71S161.43,398.34,161.43,398.34Z" style="fill:#fafafa"></path><path d="M153,374.69a.84.84,0,0,0,.69-.3c.93-1.1,6.63-5.07,11.71-3.24.31-.57-.08-1.23-1.1-1.94-5.41-.9-10.82,2.82-11.94,4.16a.79.79,0,0,0,.14,1.14A.85.85,0,0,0,153,374.69Z" style="fill:#fafafa"></path><path d="M168.11,375.28a2.56,2.56,0,0,0-1.33-1.91c-5.18-.5-10.19,3-11.27,4.26a.79.79,0,0,0,.14,1.14.92.92,0,0,0,.5.18.84.84,0,0,0,.69-.3C157.74,377.58,163.15,373.82,168.11,375.28Z" style="fill:#fafafa"></path><path d="M175.63,384.3a4.79,4.79,0,0,0-2.16-2.36c-5.33-.75-10.62,2.89-11.72,4.2a.8.8,0,0,0,.14,1.15.89.89,0,0,0,.49.18.86.86,0,0,0,.7-.3C164.06,386,170.36,381.65,175.63,384.3Z" style="fill:#fafafa"></path><path d="M159.27,383.21a.84.84,0,0,0,.69-.3c.92-1.09,6.5-5,11.54-3.29a3,3,0,0,0-1.6-2c-5.18-.49-10.2,3-11.27,4.26a.8.8,0,0,0,.14,1.15A.89.89,0,0,0,159.27,383.21Z" style="fill:#fafafa"></path><path d="M117.59,226.07c7.79,6.2,35.13,23.45,46.07,34.41,3.16,3.16,4.08,7.2,2.93,15.89-1.56,11.78-12.44,51.71-12.44,51.71-1.37,2.22-3.45-2.18-3.45-2.18l-42.1-58Z" style="fill:#455a64"></path><path d="M152.72,315.46c-9.92-9-41-62.55-41-62.55l1.4-.24c7.56-3.48,9.94-12.78,9.94-12.78,1,4.2-1.84,10.14-4.88,12.34,2.52,2.36,15.74,14.51,25.66,23,2.49,2.13,5,4.75,5.71,9.4C151.24,295.82,153.05,313.22,152.72,315.46Z" style="fill:#37474f"></path><path d="M117.59,226.07h0L62.75,236.14c.48,10.89,0,17.12,2.27,22.13,2.58,5.7,6.36,11.5,20.91,19.39,14,7.6,31.17,15.53,34.6,17.33,2.58,1.36,3.63,6.67,4.55,13.53,1,7.21.86,12.81,7.34,28.1,6.35,15,7.64,18.21,7.64,18.21s10.68,1.54,18-4.44c0,0-7.72-50.79-9.43-59.95-1-5.11-.88-7.78-6.95-13.6-5.21-5-28.58-24.17-28.58-24.17S123.21,240.19,117.59,226.07Z" style="fill:#455a64"></path><g id="freepik--character--inject-86"><path d="M107.79,150.87c4.91-.58,11.61-.37,15.55,3.68,4.68,4.82,6.11,8,11.15,22.92,3.33,9.84,9.23,31.81,5.75,35.67s-13,3.22-13,3.22Z" style="fill:#ffa8a7"></path><path d="M105.28,150.77c5.33-1.26,15-2,20.41,5.31S139.27,191,139.27,191a31.07,31.07,0,0,1-16.72,3.11C112.53,193.34,105.28,150.77,105.28,150.77Z" fill="currentColor"></path><path d="M84,151.75c-6.32.09-18.38,3.31-22.79,4.51-3.77,1.88-2.57,4.49-2.35,9.19.77,16.15,3.34,50.43,3.34,50.43l.07,26.8c21.32,6.84,58.55,1.75,61.5-12.62,0,0-.08-30.27-2.58-53.19C119.3,160,112,150.54,106,150.72Z" style="fill:#f5f5f5"></path><path d="M70,205.27l.73-21.21c1.2-17-5.06-26.87-7.48-28.31-6.51,1.62-10.46,2.14-13.19,16.83-1,5.43-.65,11.91-.69,22,0,8,.53,16.15,1.34,25.45.58,6.7,3.59,7.78,11.93,7.6,7-.14,28.57-4.29,40.58-7.48,4.86-1.29,12-3.73,15.71-5,2.73-1,13.19-4,12.43-8.16a3.79,3.79,0,0,0-2.22-2.59,10,10,0,0,0-3.46-.72,55.09,55.09,0,0,0-15.53,1c-3.83.81-7.47,1.77-11.34,2.36S86.72,203.36,83,203.77C76,204.55,70,205.27,70,205.27Z" style="fill:#ffa8a7"></path><path d="M65.44,155.13c-6.16,1.09-11.56,3-13.75,7.17s-2.6,6.83-3.35,18.23c-1.05,16.07-.79,23.61-.79,23.61s13,4.23,23.17-1.67l.86-21.36S72.62,164,65.44,155.13Z" fill="currentColor"></path><path d="M60.11,214.56s.08-6,9.87-9.29c0,0,6-.72,13-1.5,3.74-.41,12.08,3.88,15.81,3.32s7.51-1.55,11.34-2.36a55.09,55.09,0,0,1,15.53-1,10,10,0,0,1,3.46.72,3.79,3.79,0,0,1,2.22,2.59c.76,4.15-9.7,7.21-12.43,8.16-2,.69-4.89,1.69-7.92,2.67-11.47-3.07-36.61-11.64-40.87-10.53C65.32,208.55,61.34,211.38,60.11,214.56Z" style="fill:#f28f8f;opacity:0.8"></path><path d="M74.49,205.48c9.3,1,41.21,11.4,55.55,10.92,4.36-1.47,4.77-3.72,5.88-9.75s-9.09-12.24-13.37-12.53c-42.35,3-52.48,9.73-52.48,9.73L70,205.27S71.8,205.28,74.49,205.48Z" style="fill:#ffa8a7"></path><polygon points="70.08 203.85 69.98 205.27 71.86 205.33 71.56 203.23 70.08 203.85" style="fill:#f28f8f;opacity:0.8"></polygon><path d="M125.3,194.22c5,.81,9.73,6.11,9.73,6.11a13.2,13.2,0,0,0-4.64-6.51A41.18,41.18,0,0,1,125.3,194.22Z" style="fill:#f28f8f;opacity:0.8"></path></g><path d="M98.62,110.9a13.46,13.46,0,1,0,14.6-12.21A13.45,13.45,0,0,0,98.62,110.9Z" style="fill:#263238"></path><path d="M76.61,121.08s1.54,13.69,2.45,16a5.87,5.87,0,0,0,3.12,3.14l.66-9.47Z" style="fill:#263238"></path><path d="M80.05,102a4.47,4.47,0,0,0-4.24,1.68c-2,2.67-1.36,9.78.8,17.42l5.12,1.08Z" style="fill:#263238"></path><path d="M78.24,103.38,72,102.25a3,3,0,0,1,3.5-2.74A3.54,3.54,0,0,1,78.24,103.38Z" style="fill:#263238"></path><path d="M77.77,101.74,74,96.37a3,3,0,0,1,4.42.7A3.47,3.47,0,0,1,77.77,101.74Z" style="fill:#263238"></path><path d="M83.28,122.3c-1.1.56-2.39-1.65-3.55-3.16s-4.68-3.18-7.17,1.2A7.49,7.49,0,0,0,76,130.8c3.48,1.4,5-.25,5-.25l-.64,22c8,8.52,26.26,9.81,19.88-.59l.25-5.73s3.9.57,7.45.79c3,.18,6.41-1.62,8.2-6.1,2.16-5.4,3.08-10.07,4-16.89a67.66,67.66,0,0,0,.53-10.51c-.87-15-18.76-20.47-29.15-14.92S83.28,122.3,83.28,122.3Z" style="fill:#ffa8a7"></path><path d="M106.94,110.27a33.93,33.93,0,0,1-10.45-4.13,1.38,1.38,0,0,0-1-.29,1.35,1.35,0,0,0-.76.85,34.35,34.35,0,0,1-2.37,4.88,7.52,7.52,0,0,1-4.13,3.34,3.15,3.15,0,0,0-1.73.74,3,3,0,0,0-.64,1.72,14,14,0,0,0,.18,2.41c.11,1.1.3,3-.41,3.93a1.74,1.74,0,0,1-2.62.22,10.51,10.51,0,0,1-1.81-2.63,16.13,16.13,0,0,0-1.93-2.68c-.7-.73-.27-2.18-.35-3.16-.16-2-.16-3.93-.13-5.9,0-1.66-.82-5.45-1-7.1-.25-2.38,0-1.52.92-3.14,2.28-7.68,11.09-10.1,17.86-9.08a70.78,70.78,0,0,0,9.08.84,66.37,66.37,0,0,0,11.45-.55,3,3,0,0,1,1.57.07,2,2,0,0,1,.94,2.24,5.92,5.92,0,0,1-1.29,2.27,12.26,12.26,0,0,1,3.66-.85,4.27,4.27,0,0,1,3.41,1.3,5.14,5.14,0,0,1,.74,4.37,13.89,13.89,0,0,1-9.78,10.19A20,20,0,0,1,106.94,110.27Z" style="fill:#263238"></path><path d="M100.44,146.25s-9.15-2.36-12.24-4.45a10.94,10.94,0,0,1-4.08-5,15.68,15.68,0,0,0,2.06,5.7c2.1,3.38,14.16,6.14,14.16,6.14Z" style="fill:#f28f8f"></path><path d="M88.52,93.05c-5.27,3.16-11.45,9.34-11.73,23.42a7.42,7.42,0,0,0-3.73,7c.16,4.41,3.4,8.11,7.26,8.27s6.85-3.28,6.7-7.69c-.12-3.3-2.66-7.11-5.41-7.61,0,0-.73-6.09,3-13.94,4.92-10.38,14.82-11,23.89-11.39C105.41,89.55,95.67,88.78,88.52,93.05Z" fill="currentColor"></path><path d="M88.52,93.05c-5.27,3.16-11.45,9.34-11.73,23.42a7.42,7.42,0,0,0-3.73,7c.16,4.41,3.4,8.11,7.26,8.27s6.85-3.28,6.7-7.69c-.12-3.3-2.66-7.11-5.41-7.61,0,0-.73-6.09,3-13.94,4.92-10.38,14.82-11,23.89-11.39C105.41,89.55,95.67,88.78,88.52,93.05Z" style="opacity:0.5"></path><path d="M87.85,124.08c-.17-4.88-3.77-9-8-9.17a6.74,6.74,0,0,0-1.92.21c-.52.13-2.14.73-2.46.84-3,1.05-5.11,4.26-5,8.16.17,4.89,3.77,9,8,9.17A6.56,6.56,0,0,0,80.8,133l2.26-.8C86,131.06,88,127.9,87.85,124.08Z" fill="currentColor"></path><path d="M87.85,124.08c-.17-4.88-3.77-9-8-9.17a6.74,6.74,0,0,0-1.92.21c-.52.13-2.14.73-2.46.84-3,1.05-5.11,4.26-5,8.16.17,4.89,3.77,9,8,9.17A6.56,6.56,0,0,0,80.8,133l2.26-.8C86,131.06,88,127.9,87.85,124.08Z" style="opacity:0.30000000000000004"></path><path d="M85.91,124.77c-.17-4.89-3.76-9-8-9.17s-7.6,3.64-7.43,8.52,3.77,9,8,9.17S86.08,129.65,85.91,124.77Z" fill="currentColor"></path><path d="M85.91,124.77c-.17-4.89-3.76-9-8-9.17s-7.6,3.64-7.43,8.52,3.77,9,8,9.17S86.08,129.65,85.91,124.77Z" style="opacity:0.1"></path><path d="M81.83,124.6A4.32,4.32,0,0,0,78,120.27c-2-.08-3.59,1.72-3.51,4a4.32,4.32,0,0,0,3.8,4.33C80.34,128.71,81.91,126.9,81.83,124.6Z" style="fill:#455a64"></path><path d="M102.23,122.73a3.14,3.14,0,0,1-6.11-.28,4.61,4.61,0,0,0,6.11.28Z" style="fill:#263238"></path><path d="M117.78,123.9a3.15,3.15,0,0,1-6.09-.68,4.63,4.63,0,0,0,2.91,1.5A4.69,4.69,0,0,0,117.78,123.9Z" style="fill:#263238"></path><path d="M99.82,115.64l-4.43,1.64a2.47,2.47,0,0,1,1.44-3.11A2.32,2.32,0,0,1,99.82,115.64Z" style="fill:#263238"></path><path d="M100.2,134.81l4.88,2.2a2.63,2.63,0,0,1-3.5,1.44A2.8,2.8,0,0,1,100.2,134.81Z" style="fill:#b16668"></path><path d="M118.36,118.31,114,116.45a2.29,2.29,0,0,1,3-1.31A2.49,2.49,0,0,1,118.36,118.31Z" style="fill:#263238"></path><polygon points="106.28 121.66 106.18 133.29 112.37 131.61 106.28 121.66" style="fill:#f28f8f"></polygon><path d="M118.72,132.32a23,23,0,0,1,4.17,3.42,4.31,4.31,0,0,1,0,6l-1.71-.82s1.47-1.88.67-3.29-3.65-3.17-3.65-3.17Z" style="fill:#455a64"></path><path d="M122.55,140.47c-1.28-1.09-2.21-.35-3.88,1.86s-1.14,3.09,0,3.9,2.31.23,3.6-1.63C123.73,142.52,123.94,141.64,122.55,140.47Z" fill="currentColor"></path><path d="M122.55,140.47c-1.28-1.09-2.21-.35-3.88,1.86s-1.14,3.09,0,3.9,2.31.23,3.6-1.63C123.73,142.52,123.94,141.64,122.55,140.47Z" style="opacity:0.1"></path><path d="M34.54,102.42a5.89,5.89,0,0,1-.73-1.9,1.8,1.8,0,0,1,0-.61l6-17.21L32.7,83.93c-.76.14-1.26-.45-1.49-1.77l-.12-.69c-.23-1.31,0-2,.8-2.17l13-2.28c.21,0,.52.31.91,1a6.62,6.62,0,0,1,.74,1.9,2.76,2.76,0,0,1,0,.66l-6,17.11,7.8-1.36a1,1,0,0,1,1,.3,3,3,0,0,1,.54,1.47l.12.68c.23,1.32,0,2-.8,2.18l-13.76,2.4C35.25,103.44,34.93,103.11,34.54,102.42Z" fill="currentColor"></path><path d="M55.82,108.9a5,5,0,0,1-.5-1.6,1.39,1.39,0,0,1,0-.5l5.82-13.74-5.84.62c-.63.07-1-.45-1.13-1.53l-.06-.57c-.11-1.09.15-1.67.78-1.73L65.7,88.7c.17,0,.4.27.69.88a5.29,5.29,0,0,1,.49,1.6,2,2,0,0,1,0,.54l-5.79,13.67,6.45-.69a.76.76,0,0,1,.76.3,2.56,2.56,0,0,1,.36,1.23l.06.57c.12,1.08-.14,1.66-.77,1.73l-11.39,1.22C56.34,109.77,56.1,109.49,55.82,108.9Z" fill="currentColor"></path><g style="opacity:0.6000000000000001"><path d="M55.82,108.9a5,5,0,0,1-.5-1.6,1.39,1.39,0,0,1,0-.5l5.82-13.74-5.84.62c-.63.07-1-.45-1.13-1.53l-.06-.57c-.11-1.09.15-1.67.78-1.73L65.7,88.7c.17,0,.4.27.69.88a5.29,5.29,0,0,1,.49,1.6,2,2,0,0,1,0,.54l-5.79,13.67,6.45-.69a.76.76,0,0,1,.76.3,2.56,2.56,0,0,1,.36,1.23l.06.57c.12,1.08-.14,1.66-.77,1.73l-11.39,1.22C56.34,109.77,56.1,109.49,55.82,108.9Z" style="fill:#fff"></path></g></g></g><g id="freepik--speech-bubble--inject-86"><g id="freepik--speech-bubble--inject-86"><g id="freepik--speech-bubble--inject-86"><path d="M200.05,112.43l-4.54-10.37,3.66-10.56V85L188,91.5V98l4.81,10.15a.76.76,0,0,0,.33.29h0Z" fill="currentColor"></path><path d="M200.05,112.43l-4.54-10.37,3.66-10.56V85L188,91.5V98l4.81,10.15a.76.76,0,0,0,.33.29h0Z" style="opacity:0.2"></path><path d="M229.11,52.75a7.4,7.4,0,0,0-3.36-5.81L223,45.36a7.41,7.41,0,0,0-6.71,0L161.63,76.85a7.42,7.42,0,0,0-3.36,5.82V108.3a7.4,7.4,0,0,0,3.36,5.81l2.73,1.58a7.41,7.41,0,0,0,6.71,0L195,102l4.8,10.13a.72.72,0,0,0,1.3-.12l5.08-16.47L225.75,84.2a7.4,7.4,0,0,0,3.36-5.81Z" fill="currentColor"></path><path d="M158.27,108.3a7.4,7.4,0,0,0,3.36,5.81l2.73,1.58a7.5,7.5,0,0,0,6.14.27c-1.58.6-2.78-.29-2.78-2.21V88.12a6.83,6.83,0,0,1,1-3.31l-9.45-5.45a6.83,6.83,0,0,0-1,3.31Z" style="opacity:0.2"></path><path d="M229,51.8c-.39-1.42-1.69-1.88-3.24-1l-54.69,31.5a6.59,6.59,0,0,0-2.36,2.51l-9.45-5.45a6.69,6.69,0,0,1,2.37-2.51l54.67-31.5a7.5,7.5,0,0,1,6.72,0L225.76,47A7.38,7.38,0,0,1,229,51.8Z" style="fill:#fff;opacity:0.5"></path></g><path d="M171.73,106.28V91.19a1.49,1.49,0,0,1,.89-1.27l.64-.37c.59-.34.88-.25.88.25v5.82l2.62-1.51V88.29a1.47,1.47,0,0,1,.89-1.27l.62-.36c.59-.34.89-.26.89.24V102a1.49,1.49,0,0,1-.89,1.27l-.62.36c-.6.34-.89.26-.89-.24V97.22l-2.62,1.52v6.15a1.46,1.46,0,0,1-.88,1.26l-.64.37C172,106.86,171.73,106.78,171.73,106.28Z" style="fill:#455a64"></path><path d="M181.06,101.38a1,1,0,0,1-.14-.64V86.12a2,2,0,0,1,.14-.8,1,1,0,0,1,.43-.47L186,82.24q.23-.13.33.09a2,2,0,0,1,.11.83v.73a3.08,3.08,0,0,1-.11,1,.8.8,0,0,1-.33.48l-2.7,1.56V90.3l2.39-1.38A.22.22,0,0,1,186,89a2.23,2.23,0,0,1,.11.84v.73a3.41,3.41,0,0,1-.11,1,.76.76,0,0,1-.34.47l-2.39,1.38v3.82L186,95.65q.24-.14.33.09a2.28,2.28,0,0,1,.1.84v.73a3.35,3.35,0,0,1-.1,1,.73.73,0,0,1-.33.48l-4.53,2.61C181.3,101.47,181.15,101.47,181.06,101.38Z" style="fill:#455a64"></path><path d="M188.06,97.34a1,1,0,0,1-.14-.64V81.84a1.5,1.5,0,0,1,.89-1.27l.61-.35c.59-.34.89-.26.89.24V93.17l2.28-1.32c.17-.09.28-.06.35.08a2,2,0,0,1,.11.84v.73a3.08,3.08,0,0,1-.11,1,.75.75,0,0,1-.35.48l-4.1,2.37C188.29,97.43,188.15,97.43,188.06,97.34Z" style="fill:#455a64"></path><path d="M194.31,93.73a1,1,0,0,1-.14-.64V78.23a1.48,1.48,0,0,1,.89-1.26l.61-.36c.59-.34.89-.26.89.24V89.56l2.28-1.31c.17-.1.28-.07.35.08a2,2,0,0,1,.11.83v.73a3.08,3.08,0,0,1-.11,1,.8.8,0,0,1-.35.49l-4.1,2.37C194.54,93.82,194.4,93.83,194.31,93.73Z" style="fill:#455a64"></path><path d="M199.82,82.52q0-8.44,4-10.76c1.31-.76,2.3-.65,3,.33s1,2.91,1,5.8a19.72,19.72,0,0,1-1,7,7.05,7.05,0,0,1-3,3.77C201.16,90.19,199.82,88.14,199.82,82.52Zm4.92,2a6.33,6.33,0,0,0,.5-1.93,25,25,0,0,0,.17-3.34,20.42,20.42,0,0,0-.17-3.12,2.36,2.36,0,0,0-.5-1.35.75.75,0,0,0-.89,0,2.3,2.3,0,0,0-.9,1,6.34,6.34,0,0,0-.52,1.94,26.66,26.66,0,0,0-.17,3.32,22.07,22.07,0,0,0,.17,3.13,2.28,2.28,0,0,0,.52,1.35.75.75,0,0,0,.9,0A2.31,2.31,0,0,0,204.74,84.56Z" style="fill:#455a64"></path><path d="M210.09,79.45c-.12,0-.17-.17-.17-.43a9.06,9.06,0,0,1,.22-2,14,14,0,0,1,.65-2.12l.33-.81c.29-.68.5-1.21.63-1.6a3.54,3.54,0,0,0,.19-1c0-.88-.33-1.13-1-.74a2,2,0,0,0-.55.47c-.16.2-.32.41-.48.64a2.13,2.13,0,0,1-.3.39q-.2.11-.42-.12a2,2,0,0,1-.38-.62,1.7,1.7,0,0,1-.17-.64,2.43,2.43,0,0,1,.41-1.25,6.46,6.46,0,0,1,1-1.24,5.88,5.88,0,0,1,1.19-.92c.94-.54,1.69-.63,2.24-.25s.84,1.2.84,2.46a7.7,7.7,0,0,1-.18,1.72,8.74,8.74,0,0,1-.43,1.41c-.17.41-.4.92-.7,1.53s-.61,1.33-.81,1.86a7.31,7.31,0,0,0-.38,1.76,1.33,1.33,0,0,1-.25.63,1.81,1.81,0,0,1-.56.47l-.35.2C210.4,79.43,210.21,79.49,210.09,79.45Zm-.37,4.9V82.18a1.52,1.52,0,0,1,.92-1.29l.48-.28c.62-.35.92-.28.92.23V83a1.5,1.5,0,0,1-.92,1.28l-.48.28C210,84.93,209.72,84.85,209.72,84.35Z" style="fill:#455a64"></path><path d="M216.08,76q-.18,0-.18-.42a9,9,0,0,1,.23-2,13.34,13.34,0,0,1,.65-2.12l.33-.81c.29-.69.5-1.22.62-1.61a3.27,3.27,0,0,0,.2-1c0-.88-.34-1.13-1-.75a2.22,2.22,0,0,0-.55.47,6.84,6.84,0,0,0-.48.65,1.88,1.88,0,0,1-.3.38c-.13.08-.28,0-.42-.12a2.2,2.2,0,0,1-.39-.62,1.81,1.81,0,0,1-.16-.64,2.37,2.37,0,0,1,.41-1.24,6.52,6.52,0,0,1,1-1.25,5.88,5.88,0,0,1,1.19-.92c.94-.54,1.68-.62,2.24-.25s.84,1.2.84,2.46a7.79,7.79,0,0,1-.18,1.73,8.92,8.92,0,0,1-.43,1.4c-.17.41-.4.92-.7,1.53s-.61,1.33-.81,1.86a7.42,7.42,0,0,0-.38,1.76,1.29,1.29,0,0,1-.25.63,1.68,1.68,0,0,1-.56.47l-.36.21C216.39,76,216.2,76,216.08,76Zm-.38,4.9V78.72a1.52,1.52,0,0,1,.92-1.28l.49-.29c.62-.35.92-.27.92.23v2.17a1.5,1.5,0,0,1-.92,1.28l-.49.29C216,81.47,215.7,81.4,215.7,80.89Z" style="fill:#455a64"></path><path d="M222.07,72.54c-.12,0-.18-.18-.18-.43a9.7,9.7,0,0,1,.22-2,14.56,14.56,0,0,1,.66-2.12l.33-.81c.29-.68.5-1.22.62-1.61a3.15,3.15,0,0,0,.19-1q0-1.32-1-.75a2.05,2.05,0,0,0-.55.47,6.42,6.42,0,0,0-.48.65,1.88,1.88,0,0,1-.3.38q-.21.12-.42-.12a2.06,2.06,0,0,1-.39-.62,1.61,1.61,0,0,1-.16-.63,2.4,2.4,0,0,1,.41-1.25,6.44,6.44,0,0,1,1-1.25,6.27,6.27,0,0,1,1.19-.92,2.06,2.06,0,0,1,2.24-.24c.55.38.83,1.19.83,2.45a8.39,8.39,0,0,1-.17,1.73,8.92,8.92,0,0,1-.43,1.4c-.17.41-.4.93-.7,1.54a16.48,16.48,0,0,0-.81,1.86,7.23,7.23,0,0,0-.38,1.75,1.37,1.37,0,0,1-.25.64,2,2,0,0,1-.56.47l-.36.2A.9.9,0,0,1,222.07,72.54Zm-.38,4.9V75.27a1.52,1.52,0,0,1,.92-1.29l.49-.28c.62-.36.92-.28.92.22v2.17a1.52,1.52,0,0,1-.92,1.29l-.49.28C222,78,221.69,77.94,221.69,77.44Z" style="fill:#455a64"></path></g></g><g id="freepik--Plant--inject-86"><g id="freepik--Pot--inject-86"><g id="freepik--pot--inject-86"><path d="M420.09,380c-9.09-9.37-14.43-47.52-5.56-54.95h45.08c8.86,7.43,3.53,45.56-5.55,54.94l-.25.26-.31.31c-.26.25-.53.5-.82.74l-.22.17c-.22.18-.44.36-.69.53s-.77.53-1.17.76c-7.47,4.36-19.59,4.36-27.06,0h0a14.13,14.13,0,0,1-1.19-.77c-.22-.16-.43-.32-.63-.49l-.27-.21c-.28-.23-.55-.47-.79-.71l-.37-.36C420.23,380.11,420.15,380,420.09,380Z" style="fill:#37474f"></path><path d="M455.69,322c10.29,6,10.29,15.74,0,21.75s-27,6-37.25,0-10.28-15.74,0-21.75S445.41,316,455.69,322Z" style="fill:#455a64"></path><path d="M450.75,324.9c7.55,4.41,7.55,11.56,0,16s-19.81,4.41-27.36,0-7.55-11.56,0-16S443.19,320.49,450.75,324.9Z" style="fill:#263238"></path><path d="M423.39,332.48c7.55-4.41,19.8-4.41,27.36,0a12.6,12.6,0,0,1,4.52,4.2,12.5,12.5,0,0,1-4.52,4.19c-7.56,4.41-19.81,4.41-27.36,0a12.5,12.5,0,0,1-4.52-4.19A12.6,12.6,0,0,1,423.39,332.48Z" style="fill:#f5f5f5"></path></g><g id="freepik--Plants--inject-86"><path d="M433.38,313.23a12.33,12.33,0,0,1-1.15-3.29c-.51-2.75.18-5.89,2.4-7.59.88-.67,2-1.17,2.41-2.21a3.51,3.51,0,0,0,0-1.82c-.41-2.34-1.2-4.76-.55-7.05a7.87,7.87,0,0,1,4.37-4.68,23.57,23.57,0,0,1,6.37-1.67,10.21,10.21,0,0,0,3.37-1c1.26-.71,1.65-1.95,2.44-3a21.43,21.43,0,0,1,3.09-3.3c2.29-2.05,5.17-3.74,8.35-3.6,6.63.3,6.44,6,4.53,10.33s-2.42,5.73,1.72,10.24,4.15,10.06-.79,13.17-8.16,3.52-6.2,9.51c1.75,5.35,2.83,9.91-2.11,15.63-3.2,3.69-7.56,6.33-13,6.1a21.79,21.79,0,0,1-6.38-1.49c-1.51-.75-.5-1.92-1-3.4q-1.64-4.78-3.28-9.56a70.53,70.53,0,0,0-2.6-7.54C434.73,315.68,434,314.49,433.38,313.23Z" fill="currentColor"></path><path d="M442.39,337.47a.49.49,0,0,0,.33-.47c-.28-32.75,17.77-52.31,17.95-52.5a.5.5,0,0,0,0-.7.48.48,0,0,0-.69,0c-.19.2-18.51,20-18.23,53.19a.51.51,0,0,0,.5.49Z" style="fill:#fff"></path><path d="M447.65,307l.09-.05c5.88-3.7,16.36-6.45,16.47-6.48a.5.5,0,0,0,.35-.6.49.49,0,0,0-.6-.36c-.44.11-10.73,2.83-16.73,6.6a.5.5,0,0,0,.42.89Z" style="fill:#fff"></path><path d="M449.46,302.52h0a.5.5,0,0,0,.26-.65,37.25,37.25,0,0,0-5.42-9.11.47.47,0,0,0-.68-.06.5.5,0,0,0-.06.7,37.77,37.77,0,0,1,5.26,8.85A.5.5,0,0,0,449.46,302.52Z" style="fill:#fff"></path><path d="M437.79,341a27.55,27.55,0,0,1-14.38.53c-8.25-1.78-13.3-9.49-13.3-9.49s8.92-3.57,14.13-3.92a46,46,0,0,0-15.63.33s-4.78-1.77-3.87-9.84c0,0,4.49-3.31,14.84-2,0,0-5.19-3.7-14.28-4.79-.71,0,.26-10.5,1.12-15.18s2.59-4,6.31-3.56,14.71,2.91,16.1,5.61,0,9.57,0,9.57a15.77,15.77,0,0,0,3-9,24.39,24.39,0,0,1,6.35,3.47,14.55,14.55,0,0,1,3.95,4.95c-.51,3.69-2.25,9.31-4.68,12.45a16.77,16.77,0,0,0,6.73-10.05,22.7,22.7,0,0,1,4.34,12.82C448.55,331.15,444.89,337.27,437.79,341Z" fill="currentColor"></path><path d="M437.79,341a27.55,27.55,0,0,1-14.38.53c-8.25-1.78-13.3-9.49-13.3-9.49s8.92-3.57,14.13-3.92a46,46,0,0,0-15.63.33s-4.78-1.77-3.87-9.84c0,0,4.49-3.31,14.84-2,0,0-5.19-3.7-14.28-4.79-.71,0,.26-10.5,1.12-15.18s2.59-4,6.31-3.56,14.71,2.91,16.1,5.61,0,9.57,0,9.57a15.77,15.77,0,0,0,3-9,24.39,24.39,0,0,1,6.35,3.47,14.55,14.55,0,0,1,3.95,4.95c-.51,3.69-2.25,9.31-4.68,12.45a16.77,16.77,0,0,0,6.73-10.05,22.7,22.7,0,0,1,4.34,12.82C448.55,331.15,444.89,337.27,437.79,341Z" style="opacity:0.15"></path><path d="M438.88,340.29a.49.49,0,0,1-.3-.4c-1.25-15.64-18.74-40.05-26.47-45a.48.48,0,0,1-.14-.65.47.47,0,0,1,.64-.15c7.86,5,25.64,29.8,26.9,45.68a.46.46,0,0,1-.63.48Z" style="fill:#fff"></path></g></g></g></svg>